<?xml version="1.0" encoding="UTF-8"?>
<svg version="1.1" xmlns="http://www.w3.org/2000/svg" width="225" height="225">
<path d="M0 0 C74.25 0 148.5 0 225 0 C225 74.25 225 148.5 225 225 C150.75 225 76.5 225 0 225 C0 150.75 0 76.5 0 0 Z " fill="#002F3D" transform="translate(0,0)"/>
<path d="M0 0 C74.25 0 148.5 0 225 0 C225 74.25 225 148.5 225 225 C150.75 225 76.5 225 0 225 C0 150.75 0 76.5 0 0 Z M44 44 C43.35933594 44.5878125 42.71867187 45.175625 42.05859375 45.78125 C29.82142134 57.38876925 22.04352622 73.80587767 18 90 C17.82339844 90.64235596 17.64679687 91.28471191 17.46484375 91.9465332 C15.8174391 98.41566345 15.70160172 104.66177031 15.75 111.3125 C15.74226562 112.36373047 15.73453125 113.41496094 15.7265625 114.49804688 C15.78119646 136.72040871 23.37237488 158.15322662 38 175 C38.66515625 175.80824219 39.3303125 176.61648437 40.015625 177.44921875 C48.38832902 187.28262832 58.4776791 194.29720152 70 200 C71.28970703 200.66128906 71.28970703 200.66128906 72.60546875 201.3359375 C75.36624164 202.68166136 78.14557777 203.86657072 81 205 C81.98097656 205.39574219 82.96195312 205.79148438 83.97265625 206.19921875 C106.6000403 213.7416801 134.83322916 210.27065708 156 200 C178.78237127 188.52132446 196.7654908 168.47687712 204.9375 144.1875 C212.69082484 120.03825525 211.58225667 92.28834175 199.97265625 69.625 C186.62870139 44.69305018 166.73612001 27.73506251 139.73046875 19.0078125 C104.29876018 9.43568599 70.31535979 19.12957677 44 44 Z " fill="#FEFEFE" transform="translate(0,0)"/>
<path d="M0 0 C17.80581714 14.04033343 32.86767966 36.73594604 35.7890625 59.58691406 C37.06274064 74.15755615 37.61263894 89.96988989 33 104 C32.80664062 104.61665527 32.61328125 105.23331055 32.4140625 105.86865234 C24.14308782 131.8367048 6.85618253 151.29240383 -17.15234375 164.05859375 C-21.9806351 166.53817781 -26.76656004 168.53641086 -32 170 C-32.97453125 170.29648438 -33.9490625 170.59296875 -34.953125 170.8984375 C-53.74344625 175.66156544 -76.018941 175.50203124 -94 168 C-95.68996094 167.33097656 -95.68996094 167.33097656 -97.4140625 166.6484375 C-121.85266631 156.20807931 -140.629657 137.74343963 -150.79785156 113.06347656 C-160.14591353 88.71417681 -159.91827998 61.57593121 -149.6875 37.625 C-138.82459014 13.69305833 -119.08940312 -4.8959786 -94.68359375 -14.6796875 C-62.29361493 -26.28924513 -27.3647929 -20.60685057 0 0 Z M-129 23 C-142.70516821 41.18132173 -149.3757175 64.43637803 -146.5390625 87.0546875 C-144.40812622 101.63238212 -139.78989352 115.06310757 -131 127 C-130.33226562 127.91265625 -129.66453125 128.8253125 -128.9765625 129.765625 C-115.04518563 147.77079799 -94.85259487 159.60098089 -72.26953125 162.71484375 C-48.10892976 164.82204077 -24.96330195 159.72422863 -6 144 C-5.14921875 143.31164062 -4.2984375 142.62328125 -3.421875 141.9140625 C12.51167921 128.37542902 24.21694488 107.4399939 26.25 86.41455078 C27.78668809 60.24763382 20.40221259 37.80620546 3.515625 17.703125 C-12.7974425 0.17417669 -33.85670629 -8.31554338 -57.36328125 -10.28125 C-85.32774992 -11.11704981 -111.05130303 1.91690303 -129 23 Z " fill="#145B5C" transform="translate(173,36)"/>
<path d="M0 0 C1.7687388 1.5201313 3.51921359 3.06179351 5.25 4.625 C6.09175781 5.38425781 6.93351563 6.14351562 7.80078125 6.92578125 C24.77605038 23.05624694 38.05404524 46.96550013 39.42700195 70.68261719 C39.71278418 85.78922493 39.89678881 100.14003274 35.25 114.625 C35.03569336 115.31335938 34.82138672 116.00171875 34.60058594 116.7109375 C27.32318977 139.50708968 11.54228455 159.87643812 -8.75 172.625 C-9.87921875 173.38876953 -9.87921875 173.38876953 -11.03125 174.16796875 C-33.11987033 188.48875759 -62.78377665 192.29854031 -88.33032227 187.54833984 C-115.04457464 181.56641543 -139.45892397 164.94257381 -154.5859375 142.171875 C-170.37743346 116.84294089 -175.82310237 88.23044515 -169.78515625 58.83203125 C-165.92247516 42.21905032 -157.89507263 27.47161043 -146.75 14.625 C-146.07453125 13.80515625 -145.3990625 12.9853125 -144.703125 12.140625 C-108.87650199 -29.96219475 -42.58592166 -33.91322694 0 0 Z M-134.75 14.625 C-135.39066406 15.2128125 -136.03132813 15.800625 -136.69140625 16.40625 C-148.92857866 28.01376925 -156.70647378 44.43087767 -160.75 60.625 C-160.92660156 61.26735596 -161.10320312 61.90971191 -161.28515625 62.5715332 C-162.9325609 69.04066345 -163.04839828 75.28677031 -163 81.9375 C-163.00773438 82.98873047 -163.01546875 84.03996094 -163.0234375 85.12304688 C-162.96880354 107.34540871 -155.37762512 128.77822662 -140.75 145.625 C-140.08484375 146.43324219 -139.4196875 147.24148437 -138.734375 148.07421875 C-130.36167098 157.90762832 -120.2723209 164.92220152 -108.75 170.625 C-107.46029297 171.28628906 -107.46029297 171.28628906 -106.14453125 171.9609375 C-103.38375836 173.30666136 -100.60442223 174.49157072 -97.75 175.625 C-96.76902344 176.02074219 -95.78804688 176.41648438 -94.77734375 176.82421875 C-72.1499597 184.3666801 -43.91677084 180.89565708 -22.75 170.625 C0.03237127 159.14632446 18.0154908 139.10187712 26.1875 114.8125 C33.94082484 90.66325525 32.83225667 62.91334175 21.22265625 40.25 C7.87870139 15.31805018 -12.01387999 -1.63993749 -39.01953125 -10.3671875 C-74.45123982 -19.93931401 -108.43464021 -10.24542323 -134.75 14.625 Z " fill="#8CCCCA" transform="translate(178.75,29.375)"/>
<path d="M0 0 C3.526875 -0.12375 3.526875 -0.12375 7.125 -0.25 C7.85348145 -0.28641602 8.58196289 -0.32283203 9.33251953 -0.36035156 C15.60280572 -0.46579169 18.87506853 2.09874552 23.375 6.125 C25.78436899 10.38772976 25.75911491 14.21527574 25 19 C22.77901366 23.52423143 20.53183368 25.86954558 16 28 C13.12508918 28.21118346 10.54232902 28.28622356 7.6875 28.1875 C5.150625 28.125625 2.61375 28.06375 0 28 C0 18.76 0 9.52 0 0 Z " fill="#F5F6F6" transform="translate(44,95)"/>
<path d="M0 0 C0.99 0.66 1.98 1.32 3 2 C3.33 1.67 3.66 1.34 4 1 C5.66617115 0.95936168 7.33388095 0.957279 9 1 C9.04898438 1.99902344 9.09796875 2.99804688 9.1484375 4.02734375 C9.22320312 5.31769531 9.29796875 6.60804687 9.375 7.9375 C9.44460937 9.22527344 9.51421875 10.51304688 9.5859375 11.83984375 C9.72257812 12.88269531 9.85921875 13.92554687 10 15 C10.66 15.33 11.32 15.66 12 16 C12 17.65 12 19.3 12 21 C8.66666667 21 5.33333333 21 2 21 C1.34 21.33 0.68 21.66 0 22 C-2.94827837 22.40203796 -5.08145963 22.54942715 -7.69140625 20.98828125 C-11.64844625 17.81311422 -12.80817033 15.69449545 -13.375 10.6875 C-12.87765929 5.79698299 -11.42915508 4.42915508 -8 1 C-5.22899606 -0.38550197 -3.0665294 -0.1877467 0 0 Z " fill="#F4F5F5" transform="translate(129,102)"/>
<path d="M0 0 C3.62760073 1.64890942 6.08652985 3.47518657 8 7 C8 8.98 8 10.96 8 13 C2.72 13 -2.56 13 -8 13 C-7.01 14.485 -7.01 14.485 -6 16 C0.435 15.505 0.435 15.505 7 15 C4.87909994 19.24180013 4.18353093 20.14065292 0 22 C-3.36742108 22.4898067 -5.75992466 22.7490388 -8.74609375 20.9453125 C-10.93918102 19.16770219 -12.72792969 17.54414063 -14 15 C-14.68128376 8.18716238 -14.68128376 8.18716238 -12.953125 5.17578125 C-8.85782021 0.20119044 -6.33896965 -0.42976065 0 0 Z " fill="#F4F6F6" transform="translate(86,102)"/>
<path d="M0 0 C3 0 6 0 9 0 C9.94875 -0.0825 10.8975 -0.165 11.875 -0.25 C15 0 15 0 17.8125 1.3125 C20.78995684 4.9705184 20.68823245 8.02198217 20.859375 12.63671875 C20.73499249 14.95627808 20.73499249 14.95627808 22 16 C22.04063832 17.66617115 22.042721 19.33388095 22 21 C19.625 21.125 19.625 21.125 17 21 C14.22957891 18.22957891 14.60203894 16.23466195 14.375 12.375 C14.26285156 10.59222656 14.26285156 10.59222656 14.1484375 8.7734375 C14.09945312 7.85820313 14.05046875 6.94296875 14 6 C12.00045254 5.95745644 9.99958364 5.95919217 8 6 C6.05909174 7.94090826 6.60080565 11.47293902 6.4375 14.0625 C6.35371094 15.35285156 6.26992187 16.64320312 6.18359375 17.97265625 C6.12300781 18.97167969 6.06242188 19.97070312 6 21 C4.02 21 2.04 21 0 21 C0 14.07 0 7.14 0 0 Z " fill="#F0F2F3" transform="translate(144,102)"/>
<path d="M0 0 C1.98 0 3.96 0 6 0 C7.65 3.96 9.3 7.92 11 12 C12.81242323 7.9811485 14.33501617 4.38889325 15 0 C16.98 0 18.96 0 21 0 C20.61521615 6.66958671 18.89445477 16.10554523 14 21 C12.00041636 21.04080783 9.99954746 21.04254356 8 21 C6.66087415 17.87745057 5.32969342 14.75157642 4 11.625 C3.6184375 10.73554687 3.236875 9.84609375 2.84375 8.9296875 C2.30234375 7.65351562 2.30234375 7.65351562 1.75 6.3515625 C1.41484375 5.56604004 1.0796875 4.78051758 0.734375 3.97119141 C0 2 0 2 0 0 Z " fill="#ECEEEF" transform="translate(94,102)"/>
<path d="M0 0 C1.65 0 3.3 0 5 0 C5 1.65 5 3.3 5 5 C6.65 5 8.3 5 10 5 C10 6.65 10 8.3 10 10 C8.35 10 6.7 10 5 10 C5.33 13.3 5.66 16.6 6 20 C7.32 20.33 8.64 20.66 10 21 C10 22.65 10 24.3 10 26 C6.35645778 26.28027248 3.822954 26.44312908 0.5625 24.6875 C-1.94613556 20.37264684 -1.30250762 15.87373394 -1 11 C-1.99 11 -2.98 11 -4 11 C-4 9.02 -4 7.04 -4 5 C-2.68 5 -1.36 5 0 5 C0 3.35 0 1.7 0 0 Z " fill="#E8EBEC" transform="translate(171,97)"/>
<path d="M0 0 C8.17817372 -0.48106904 8.17817372 -0.48106904 11.5625 1.5 C13.59373506 5.03258271 13.686998 8.01704731 13 12 C11.25746655 15.23613354 10.52814056 15.82395315 7 17 C4.69 17 2.38 17 0 17 C0 11.39 0 5.78 0 0 Z " fill="#022B3A" transform="translate(50,101)"/>
<path d="M0 0 C1.65 0 3.3 0 5 0 C5 5.28 5 10.56 5 16 C-0.28 16 -5.56 16 -11 16 C-10.67 14.35 -10.34 12.7 -10 11 C-6.7 11 -3.4 11 0 11 C0 7.37 0 3.74 0 0 Z " fill="#F4F6F6" transform="translate(185,117)"/>
<path d="M0 0 C2.9375 0.8125 2.9375 0.8125 4.9375 2.8125 C4.36057692 9.38942308 4.36057692 9.38942308 2.9375 10.8125 C-0.5 11 -0.5 11 -4.0625 10.8125 C-6.0625 8.8125 -6.0625 8.8125 -6.375 5.875 C-6.0625 2.8125 -6.0625 2.8125 -4.9375 0.875 C-3.0625 -0.1875 -3.0625 -0.1875 0 0 Z " fill="#0A303F" transform="translate(128.0625,107.1875)"/>
<path d="M0 0 C5.28 0 10.56 0 16 0 C16 0.33 16 0.66 16 1 C11.32790951 2.43023178 6.86896303 3.40380045 2 4 C1.34 2.68 0.68 1.36 0 0 Z " fill="#001126" transform="translate(78,115)"/>
<path d="M0 0 C2.31 0.33 4.62 0.66 7 1 C7.33 1.99 7.66 2.98 8 4 C4.7 4 1.4 4 -2 4 C-1.34 2.68 -0.68 1.36 0 0 Z " fill="#0D2F3E" transform="translate(80,107)"/>
<path d="M0 0 C2.31 0 4.62 0 7 0 C7 0.99 7 1.98 7 3 C4.625 3.1875 4.625 3.1875 2 3 C1.34 2.01 0.68 1.02 0 0 Z " fill="#0C3240" transform="translate(78,116)"/>
</svg>
