<?xml version="1.0" encoding="UTF-8"?>
<svg version="1.1" xmlns="http://www.w3.org/2000/svg" width="375" height="331">
<path d="M0 0 C28.79818675 24.36769648 46.19401752 58.75847024 49.66015625 96.24609375 C52.55830782 134.08035077 41.7163282 171.35722824 17.1875 200.5 C16.44757813 201.38042969 15.70765625 202.26085937 14.9453125 203.16796875 C-7.48559867 228.91163014 -39.63281398 245.61490658 -73.8125 248.5 C-105.80418985 250.16514123 -136.83202176 242.79089402 -162.8125 223.5 C-163.61171875 222.9225 -164.4109375 222.345 -165.234375 221.75 C-178.06958419 212.01873029 -189.26230847 200.13985393 -197.8125 186.5 C-198.20131348 185.88044434 -198.59012695 185.26088867 -198.99072266 184.62255859 C-219.34002008 151.59582495 -224.88887125 112.01412086 -216.30859375 74.28417969 C-207.87574571 39.63142079 -185.84229189 8.7005431 -155.8125 -10.5 C-154.81863281 -11.14324219 -153.82476562 -11.78648438 -152.80078125 -12.44921875 C-145.18440764 -17.1370001 -137.18754153 -20.46415776 -128.8125 -23.5 C-127.24048828 -24.07234375 -127.24048828 -24.07234375 -125.63671875 -24.65625 C-82.00608416 -39.2921935 -35.31321531 -28.08217824 0 0 Z " fill="#272221" transform="translate(271.8125,79.5)"/>
<path d="M0 0 C0.82628906 0.00080566 1.65257812 0.00161133 2.50390625 0.00244141 C9.40054767 0.07081791 15.97568484 0.89497167 22.75 2.1875 C23.60980469 2.29707031 24.46960938 2.40664063 25.35546875 2.51953125 C34.65366932 3.79961635 43.17784202 7.52002046 51.75 11.1875 C52.38373535 11.45691406 53.0174707 11.72632812 53.67041016 12.00390625 C83.71128116 25.07443553 107.26418495 52.55549572 119.4375 82.5625 C124.61664683 95.92695381 128.23945669 110.81527183 127.75 125.1875 C126.76902344 125.27386719 125.78804687 125.36023438 124.77734375 125.44921875 C116.01743925 126.32509985 108.2285483 128.04636156 99.95703125 131.06640625 C95.51661461 132.61865908 91.63188881 133.3200655 86.9375 133.25 C86.14730469 133.24097656 85.35710937 133.23195312 84.54296875 133.22265625 C83.65544922 133.20525391 83.65544922 133.20525391 82.75 133.1875 C83.0625 131.3125 83.0625 131.3125 83.75 129.1875 C87.62657248 126.60311835 90.59361316 126.81901612 95.15625 126.62890625 C98.19511931 126.11174927 98.83264005 125.52513474 100.75 123.1875 C101.60228231 121.1829217 101.60228231 121.1829217 102.13671875 118.95703125 C102.4605957 117.75336914 102.4605957 117.75336914 102.79101562 116.52539062 C103.00435547 115.69201172 103.21769531 114.85863281 103.4375 114 C103.77491211 112.7325293 103.77491211 112.7325293 104.11914062 111.43945312 C104.67187781 109.3578684 105.21215399 107.27298196 105.75 105.1875 C102.95068836 106.42231413 100.16142371 107.67420179 97.375 108.9375 C96.5809375 109.28554687 95.786875 109.63359375 94.96875 109.9921875 C94.20820313 110.34023437 93.44765625 110.68828125 92.6640625 111.046875 C91.9623291 111.36108398 91.2605957 111.67529297 90.53759766 111.99902344 C88.33759069 113.46168855 87.6875377 114.74465368 86.75 117.1875 C86.51079045 119.32037373 86.51079045 119.32037373 86.625 121.4375 C86.66625 122.675 86.7075 123.9125 86.75 125.1875 C85.43 125.5175 84.11 125.8475 82.75 126.1875 C82.63386796 123.08364789 82.56277971 119.98035338 82.5 116.875 C82.46648437 115.99392578 82.43296875 115.11285156 82.3984375 114.20507812 C82.29999617 107.73256082 82.29999617 107.73256082 84.48828125 105.08203125 C87.65323555 103.83026176 90.09794004 104.09654543 93.43359375 104.375 C96.74402619 104.1070392 98.22206243 103.3716716 100.75 101.1875 C101.90725109 98.40964754 102.45149015 95.57568914 103 92.625 C104.71258741 84.26232517 104.71258741 84.26232517 105.75 82.1875 C103.1225162 83.47430869 100.49803317 84.76667678 97.875 86.0625 C96.75544922 86.60970703 96.75544922 86.60970703 95.61328125 87.16796875 C94.54013672 87.69970703 94.54013672 87.69970703 93.4453125 88.2421875 C92.78547363 88.56687012 92.12563477 88.89155273 91.44580078 89.22607422 C89.56965314 90.19025819 89.56965314 90.19025819 87.75 92.1875 C87.28837573 94.62002661 87.28837573 94.62002661 87.125 97.3125 C87.05023438 98.22257812 86.97546875 99.13265625 86.8984375 100.0703125 C86.82496094 101.11832031 86.82496094 101.11832031 86.75 102.1875 C85.43 102.5175 84.11 102.8475 82.75 103.1875 C82.60424673 99.79212148 82.51578458 96.39755098 82.4375 93 C82.39560547 92.04029297 82.35371094 91.08058594 82.31054688 90.09179688 C82.184667 82.81593994 82.184667 82.81593994 85.26953125 79.38671875 C86.08808594 78.66097656 86.90664063 77.93523437 87.75 77.1875 C88.59148398 72.2832262 87.04328832 69.11241559 84.75 64.8125 C84.193125 63.75289062 83.63625 62.69328125 83.0625 61.6015625 C82.629375 60.80492187 82.19625 60.00828125 81.75 59.1875 C80.56713474 61.05232329 79.40431343 62.92986976 78.25 64.8125 C77.27546875 66.37871094 77.27546875 66.37871094 76.28125 67.9765625 C74.59460352 71.5133569 74.04786681 73.33609294 74.75 77.1875 C75.56855469 77.91324219 76.38710938 78.63898438 77.23046875 79.38671875 C81.02969056 83.61003974 80.30126624 87.53041644 80.0625 93 C80.02866211 94.46856445 80.02866211 94.46856445 79.99414062 95.96679688 C79.93539727 98.37527455 79.85332129 100.78059078 79.75 103.1875 C77.77050781 102.31176758 77.77050781 102.31176758 75.75 101.1875 C75.421875 99.19921875 75.421875 99.19921875 75.5 96.875 C75.26853915 93.3889697 75.26853915 93.3889697 73.26953125 90.66015625 C71.14968956 89.33578409 69.01381606 88.24786117 66.75 87.1875 C65.84121094 86.72214844 64.93242187 86.25679688 63.99609375 85.77734375 C61.59402673 84.55068363 59.17995923 83.3576648 56.75 82.1875 C57.28984951 84.92293859 57.85563144 87.6484665 58.4375 90.375 C58.58638672 91.14392578 58.73527344 91.91285156 58.88867188 92.70507812 C60.01203387 97.83730056 61.34190456 100.95231884 65.75 104.1875 C68.27603341 104.7131638 68.27603341 104.7131638 70.8125 104.375 C74.93714553 104.03816454 75.76853252 104.19676626 79.75 106.1875 C79.75 112.7875 79.75 119.3875 79.75 126.1875 C78.43 125.5275 77.11 124.8675 75.75 124.1875 C75.26038519 121.90263087 75.31250598 119.80892174 75.31640625 117.4765625 C74.46721038 114.04463987 72.65468322 113.11087132 69.75 111.1875 C67.50968307 110.04239076 65.23665696 108.95934754 62.9375 107.9375 C61.77605469 107.41671875 60.61460937 106.8959375 59.41796875 106.359375 C58.09732422 105.77929688 58.09732422 105.77929688 56.75 105.1875 C57.34209833 107.94060695 57.94808021 110.68936786 58.5625 113.4375 C58.72814453 114.21480469 58.89378906 114.99210937 59.06445312 115.79296875 C60.25945044 121.59552712 60.25945044 121.59552712 63.75 126.1875 C66.57322382 126.81413602 66.57322382 126.81413602 69.6875 126.8125 C73.61223848 126.93894758 76.35501638 127.14232915 79.75 129.1875 C79.75 130.5075 79.75 131.8275 79.75 133.1875 C73.15 132.5275 66.55 131.8675 59.75 131.1875 C57.22127285 124.95599381 54.86662742 118.73323112 52.77734375 112.33984375 C52.26880859 111.27443359 52.26880859 111.27443359 51.75 110.1875 C50.76 109.8575 49.77 109.5275 48.75 109.1875 C48.75 108.1975 48.75 107.2075 48.75 106.1875 C32.29469231 105.58072366 19.93531837 106.9167585 5.30859375 115.11328125 C2.75 116.1875 2.75 116.1875 0.71875 116 C-1.62538135 115.03258071 -3.90607129 113.98312252 -6.1875 112.875 C-19.87950915 106.68570809 -31.40125944 105.63996454 -46.25 106.1875 C-46.25 107.1775 -46.25 108.1675 -46.25 109.1875 C-47.24 109.1875 -48.23 109.1875 -49.25 109.1875 C-49.43175781 109.87714844 -49.61351562 110.56679687 -49.80078125 111.27734375 C-51.41834166 117.32453115 -53.19180675 123.27566832 -55.25 129.1875 C-55.58 129.1875 -55.91 129.1875 -56.25 129.1875 C-56.25 117.9675 -56.25 106.7475 -56.25 95.1875 C-57.9 95.1875 -59.55 95.1875 -61.25 95.1875 C-61.25 90.5675 -61.25 85.9475 -61.25 81.1875 C-62.838125 82.1775 -64.42625 83.1675 -66.0625 84.1875 C-70.875 87.1875 -70.875 87.1875 -74.25 87.1875 C-74.25 73.6575 -74.25 60.1275 -74.25 46.1875 C-76.23 46.1875 -78.21 46.1875 -80.25 46.1875 C-80.23334541 47.0419445 -80.23334541 47.0419445 -80.21635437 47.91365051 C-80.10586659 53.83428287 -80.03037751 59.75462323 -79.9753418 65.67602539 C-79.9501737 67.88675833 -79.9160362 70.09740788 -79.87280273 72.30786133 C-79.81225321 75.48279367 -79.7838133 78.65662761 -79.76171875 81.83203125 C-79.73591232 82.82274124 -79.7101059 83.81345123 -79.68351746 84.83418274 C-79.68247177 87.38357538 -79.71697099 89.69446232 -80.25 92.1875 C-82.70712552 94.38078315 -83.96758272 95.1875 -87.25 95.1875 C-87.25 90.8975 -87.25 86.6075 -87.25 82.1875 C-88.60996094 82.9815625 -89.96992187 83.775625 -91.37109375 84.59375 C-93.14316328 85.62511322 -94.91530228 86.65635708 -96.6875 87.6875 C-97.58533203 88.21214844 -98.48316406 88.73679687 -99.40820312 89.27734375 C-100.68920898 90.02177734 -100.68920898 90.02177734 -101.99609375 90.78125 C-102.78685303 91.24208984 -103.5776123 91.70292969 -104.39233398 92.17773438 C-106.25 93.1875 -106.25 93.1875 -107.25 93.1875 C-107.25 89.5575 -107.25 85.9275 -107.25 82.1875 C-107.94867188 82.620625 -108.64734375 83.05375 -109.3671875 83.5 C-110.27726562 84.056875 -111.18734375 84.61375 -112.125 85.1875 C-113.02992187 85.744375 -113.93484375 86.30125 -114.8671875 86.875 C-117.25 88.1875 -117.25 88.1875 -119.25 88.1875 C-118.69287118 83.17334058 -117.03249785 79.12698819 -114.75 74.6875 C-114.21814087 73.64299683 -114.21814087 73.64299683 -113.67553711 72.57739258 C-97.65648962 41.7192799 -72.52770592 18.17713146 -39.70703125 6.24609375 C-26.71242519 2.26695449 -13.59630751 -0.01404577 0 0 Z " fill="#FBC807" transform="translate(186.25,55.8125)"/>
<path d="M0 0 C1.25619141 0.00451172 2.51238281 0.00902344 3.80664062 0.01367188 C6.89197663 0.02540319 9.97721316 0.041819 13.0625 0.0625 C12.0625 2.0625 12.0625 2.0625 9.55859375 2.9140625 C8.54925781 3.16929687 7.53992188 3.42453125 6.5 3.6875 C5.48808594 3.94789063 4.47617188 4.20828125 3.43359375 4.4765625 C2.65113281 4.66992188 1.86867187 4.86328125 1.0625 5.0625 C1.63581816 9.36564211 1.63581816 9.36564211 4.9375 12.3125 C12.36436452 16.47154413 18.8581645 15.04676194 26.6875 13.0625 C41.87316025 9.54981377 52.68213811 11.63960259 67.0625 17.0625 C67.0625 18.0525 67.0625 19.0425 67.0625 20.0625 C67.63162109 20.32820801 68.20074219 20.59391602 68.78710938 20.86767578 C73.01580802 23.0881963 76.73182432 26.10060444 80.5625 28.9375 C81.41714844 29.56269531 82.27179688 30.18789063 83.15234375 30.83203125 C83.97863281 31.44175781 84.80492187 32.05148437 85.65625 32.6796875 C86.40583984 33.23253418 87.15542969 33.78538086 87.92773438 34.35498047 C93.93338206 39.15867442 93.93338206 39.15867442 94.4375 42.6875 C94.0625 45.0625 94.0625 45.0625 92.0625 47.0625 C86.33012787 46.95209876 82.70451646 44.11397365 78.25 40.875 C76.83355637 39.87338243 75.41689109 38.87207824 74 37.87109375 C72.98486328 37.14575439 72.98486328 37.14575439 71.94921875 36.40576172 C69.57302875 34.71401775 67.17020498 33.06556552 64.75 31.4375 C64.09386719 30.99148438 63.43773437 30.54546875 62.76171875 30.0859375 C60.92465875 28.89512039 60.92465875 28.89512039 58.0625 28.0625 C62.03973859 32.288316 66.37562742 35.65543765 71.0625 39.0625 C75.75126299 42.47093657 80.08057401 45.83924516 84.0625 50.0625 C84.3925 50.3925 84.7225 50.7225 85.0625 51.0625 C85.1875 53.5625 85.1875 53.5625 85.0625 56.0625 C84.0625 57.0625 84.0625 57.0625 81.04296875 57.4921875 C75.8199913 57.41484956 72.36617326 54.25008598 68.375 51.1875 C66.89354086 50.08376813 65.41052012 48.98212852 63.92578125 47.8828125 C63.27907471 47.39055176 62.63236816 46.89829102 61.96606445 46.39111328 C60.06650296 45.06529391 58.15758468 44.04387105 56.0625 43.0625 C57.29574367 46.762231 58.73901118 47.60055732 61.8125 49.9375 C71.5328288 57.54410923 71.5328288 57.54410923 73 61.75 C73.020625 62.513125 73.04125 63.27625 73.0625 64.0625 C72.4025 64.7225 71.7425 65.3825 71.0625 66.0625 C66.90490361 65.899457 63.84547228 65.10778176 60.3125 63 C57.26364363 60.80646773 57.26364363 60.80646773 54.0625 61.0625 C53.66417969 62.04992187 53.26585937 63.03734375 52.85546875 64.0546875 C52.32079608 65.34915818 51.78561313 66.64341817 51.25 67.9375 C50.85844727 68.91396484 50.85844727 68.91396484 50.45898438 69.91015625 C49.00444382 73.39387067 48.28100411 74.91683059 45.0625 77.0625 C41.05193724 78.17654521 37.20613981 78.14374784 33.0625 78.0625 C32.7325 77.4025 32.4025 76.7425 32.0625 76.0625 C31.4025 76.0625 30.7425 76.0625 30.0625 76.0625 C30.0625 76.7225 30.0625 77.3825 30.0625 78.0625 C25.1125 78.0625 20.1625 78.0625 15.0625 78.0625 C16.74662803 74.69424394 18.51851214 71.77760113 20.6171875 68.66796875 C21.31457031 67.62962891 22.01195312 66.59128906 22.73046875 65.52148438 C24.19394631 63.35217029 25.65748728 61.18289899 27.12109375 59.01367188 C30.63075444 53.78796162 34.04959069 48.59142519 37.0625 43.0625 C36.4025 43.0625 35.7425 43.0625 35.0625 43.0625 C34.4025 44.7125 33.7425 46.3625 33.0625 48.0625 C31.0825 47.5675 31.0825 47.5675 29.0625 47.0625 C28.79751709 47.76987305 28.53253418 48.47724609 28.25952148 49.20605469 C26.04240789 54.49673978 23.00049636 59.35815642 20.125 64.3125 C19.49142578 65.42625 18.85785156 66.54 18.20507812 67.6875 C17.59212891 68.74453125 16.97917969 69.8015625 16.34765625 70.890625 C15.78957275 71.8590332 15.23148926 72.82744141 14.65649414 73.82519531 C13.0625 76.0625 13.0625 76.0625 10.0625 77.0625 C7.86645538 76.84429429 5.67806887 76.54280509 3.5 76.1875 C1.76556641 75.91292969 1.76556641 75.91292969 -0.00390625 75.6328125 C-2.9375 75.0625 -2.9375 75.0625 -4.9375 74.0625 C-4.9375 73.0725 -4.9375 72.0825 -4.9375 71.0625 C-5.59105469 71.45179688 -6.24460938 71.84109375 -6.91796875 72.2421875 C-11.3212864 73.43843162 -14.15465942 71.90761624 -18.25 70.1875 C-18.99056641 69.89230469 -19.73113281 69.59710938 -20.49414062 69.29296875 C-22.31476407 68.56471937 -24.12702451 67.81562376 -25.9375 67.0625 C-24.49854816 63.72472512 -22.70055719 61.66627826 -20.0625 59.1875 C-16.79237786 56.01250869 -14.27747566 52.96245943 -11.9375 49.0625 C-12.494375 49.578125 -13.05125 50.09375 -13.625 50.625 C-15.9375 52.0625 -15.9375 52.0625 -18.1875 51.875 C-21.56753689 50.87635274 -24.23602445 49.32163358 -27.25 47.5 C-28.85294922 46.53900391 -28.85294922 46.53900391 -30.48828125 45.55859375 C-31.29652344 45.06488281 -32.10476562 44.57117188 -32.9375 44.0625 C-30.85288397 32.40510774 -27.54940218 21.04757334 -24.25 9.6875 C-24.03561279 8.94363037 -23.82122559 8.19976074 -23.6003418 7.43334961 C-22.05615981 2.18115981 -22.05615981 2.18115981 -20.9375 1.0625 C-14.03132132 -0.37085784 -7.02160046 -0.04786618 0 0 Z " fill="#FAEAB9" transform="translate(160.9375,242.9375)"/>
<path d="M0 0 C22.77 0 45.54 0 69 0 C69 19.47 69 38.94 69 59 C62.07 59 55.14 59 48 59 C48 60.65 48 62.3 48 64 C49.65 64 51.3 64 53 64 C53 65.65 53 67.3 53 69 C60.92 69 68.84 69 77 69 C77.99 71.43375 78.98 73.8675 80 76.375 C80.31324219 77.13989746 80.62648438 77.90479492 80.94921875 78.69287109 C83 83.77777778 83 83.77777778 83 86 C50.99 86 18.98 86 -14 86 C-12.64408339 79.22041695 -11.47447405 73.57878131 -6 69 C1.16218068 67.42606438 8.76289927 68.27786381 16 69 C16 67.35 16 65.7 16 64 C17.32 64 18.64 64 20 64 C20 62.35 20 60.7 20 59 C13.4 59 6.8 59 0 59 C0 39.53 0 20.06 0 0 Z " fill="#0D6BAC" transform="translate(151,68)"/>
<path d="M0 0 C0.33 1.32 0.66 2.64 1 4 C-0.65 4.33 -2.3 4.66 -4 5 C-3.79842285 5.57443848 -3.5968457 6.14887695 -3.38916016 6.74072266 C-2.46729492 9.36864752 -1.54614184 11.99682149 -0.625 14.625 C-0.30789062 15.52863281 0.00921875 16.43226562 0.3359375 17.36328125 C1.92476001 21.8980455 3.49865172 26.43529463 5 31 C3.02 31.495 3.02 31.495 1 32 C-5 18.63106796 -5 18.63106796 -5 15 C-6.04800781 15.433125 -6.04800781 15.433125 -7.1171875 15.875 C-8.02726562 16.24625 -8.93734375 16.6175 -9.875 17 C-10.77992187 17.37125 -11.68484375 17.7425 -12.6171875 18.125 C-15 19 -15 19 -17 19 C-15.11194805 24.16730007 -13.66102737 26.81685936 -9 30 C-8.236875 30.5775 -7.47375 31.155 -6.6875 31.75 C-6.130625 32.1625 -5.57375 32.575 -5 33 C-5.33 33.66 -5.66 34.32 -6 35 C-12.30448146 34.84238796 -15.81587989 31.32392365 -20 27 C-21.58368102 23.83263796 -21.42056706 21.4846985 -21 18 C-16.93730919 14.50419628 -12.41678999 12 -7 12 C-7.495 9.525 -7.495 9.525 -8 7 C-11.08722204 8.26152754 -14.16901055 9.53583456 -17.25 10.8125 C-18.12269531 11.16892578 -18.99539062 11.52535156 -19.89453125 11.89257812 C-20.73886719 12.24384766 -21.58320312 12.59511719 -22.453125 12.95703125 C-23.22817383 13.27647705 -24.00322266 13.59592285 -24.80175781 13.92504883 C-27.10882813 15.05321749 -28.99831452 16.39905036 -31 18 C-30.66677734 18.65597168 -30.33355469 19.31194336 -29.99023438 19.98779297 C-28.4893443 22.94811496 -26.99460321 25.91149929 -25.5 28.875 C-24.97535156 29.90753906 -24.45070313 30.94007812 -23.91015625 32.00390625 C-23.41386719 32.99003906 -22.91757813 33.97617187 -22.40625 34.9921875 C-21.94541016 35.90339355 -21.48457031 36.81459961 -21.00976562 37.75341797 C-20 40 -20 40 -20 42 C-21.32 42.33 -22.64 42.66 -24 43 C-25.65296119 39.92043712 -27.29610171 36.83573921 -28.9375 33.75 C-29.40607422 32.87730469 -29.87464844 32.00460938 -30.35742188 31.10546875 C-31.0293457 29.83896484 -31.0293457 29.83896484 -31.71484375 28.546875 C-32.12855225 27.77182617 -32.54226074 26.99677734 -32.96850586 26.19824219 C-33.9392844 24.1293925 -34.53558429 22.2309731 -35 20 C-35.94875 20.495 -36.8975 20.99 -37.875 21.5 C-41 23 -41 23 -43 23 C-36.097232 34.55944012 -36.097232 34.55944012 -29 46 C-30.98 46.99 -30.98 46.99 -33 48 C-37.89706361 41.13815707 -42.52975671 34.14695431 -47 27 C-48.32 27.66 -49.64 28.32 -51 29 C-49.912265 32.08191583 -48.78315816 34.29118761 -46.8125 36.9375 C-45 40 -45 40 -45.0625 43.1875 C-46.52 47.56 -46.52 47.56 -49 49 C-53.88275862 49.99310345 -53.88275862 49.99310345 -57 49 C-60.07930384 46.30234163 -62.55647005 43.27536994 -65 40 C-66.32 41.65 -67.64 43.3 -69 45 C-68.43152344 45.556875 -67.86304687 46.11375 -67.27734375 46.6875 C-52.76915263 61.02614631 -52.76915263 61.02614631 -52 66 C-52.46327196 68.96494053 -53.5888624 71.36587648 -55 74 C-53.35 74.33 -51.7 74.66 -50 75 C-48.68 73.35 -47.36 71.7 -46 70 C-45.34 70.33 -44.68 70.66 -44 71 C-44.2846076 74.41529114 -44.79660671 75.78498424 -47.1875 78.3125 C-50.53976922 80.32386153 -52.16125101 80.73507959 -56 80 C-58.4375 77.875 -58.4375 77.875 -60 75 C-59.93170718 71.58535902 -59.6351705 69.7622046 -57.4375 67.125 C-56.963125 66.75375 -56.48875 66.3825 -56 66 C-57.65 64.68 -59.3 63.36 -61 62 C-61.226875 62.78375 -61.45375 63.5675 -61.6875 64.375 C-63 67 -63 67 -65.25 68.375 C-69.19395674 69.27135381 -72.33289768 69.03475317 -75.8125 66.875 C-77.67554298 63.93335319 -77.88105265 61.44947304 -78 58 C-76.875 55.125 -76.875 55.125 -75 53 C-72.3125 52.1875 -72.3125 52.1875 -70 52 C-69.67 52.99 -69.34 53.98 -69 55 C-70.32 55.33 -71.64 55.66 -73 56 C-72.505 59.465 -72.505 59.465 -72 63 C-70.35 63.33 -68.7 63.66 -67 64 C-66.01 62.35 -65.02 60.7 -64 59 C-66.16264012 55.01618925 -68.71211176 52.11016455 -72 49 C-79.12441239 51.90253838 -84.06330144 59.37730859 -89 65 C-84.70883477 69.58654181 -79.97665488 72.91682754 -74.73242188 76.33789062 C-72.88671875 77.59765625 -72.88671875 77.59765625 -70 80 C-70 81.32 -70 82.64 -70 84 C-73.28247431 84 -73.82566967 83.66923327 -76.35546875 81.8125 C-76.97744141 81.36132812 -77.59941406 80.91015625 -78.24023438 80.4453125 C-78.88283203 79.96835938 -79.52542969 79.49140625 -80.1875 79 C-80.84169922 78.52304688 -81.49589844 78.04609375 -82.16992188 77.5546875 C-83.78457682 76.37610725 -85.39290497 75.18886818 -87 74 C-87.29648438 74.77730469 -87.59296875 75.55460937 -87.8984375 76.35546875 C-88.97813254 78.94750259 -90.23492187 80.83376775 -92 83 C-91.20882096 84.99983534 -91.20882096 84.99983534 -90 87 C-86.85069107 88.04976964 -84.61185544 88.10131595 -81.3125 88.0625 C-80.31863281 88.05347656 -79.32476562 88.04445313 -78.30078125 88.03515625 C-77.54152344 88.02355469 -76.78226563 88.01195313 -76 88 C-76 89.32 -76 90.64 -76 92 C-81.07140722 93.69046907 -85.87679164 93.68902929 -90.8125 91.6875 C-95.58823529 89.15916955 -95.58823529 89.15916955 -97 87 C-97.57161256 82.45059045 -96.18881584 80.28859265 -93.5 76.6875 C-92.52546875 75.36298828 -92.52546875 75.36298828 -91.53125 74.01171875 C-91.0259375 73.34785156 -90.520625 72.68398437 -90 72 C-90.99 71.34 -91.98 70.68 -93 70 C-94.60857268 72.37211656 -96.21191752 74.74750057 -97.8125 77.125 C-98.26431641 77.79015625 -98.71613281 78.4553125 -99.18164062 79.140625 C-101.76016905 82.98018558 -104.03089855 86.8001225 -106 91 C-105.18273437 91.22429687 -104.36546875 91.44859375 -103.5234375 91.6796875 C-99.16166825 93.31414205 -95.52459725 95.60753848 -91.625 98.125 C-90.52091797 98.82689453 -90.52091797 98.82689453 -89.39453125 99.54296875 C-87.59269922 100.68958913 -85.79583569 101.84401076 -84 103 C-84.495 104.98 -84.495 104.98 -85 107 C-88.40202433 105.71075644 -91.50564554 104.2347924 -94.64453125 102.3984375 C-95.48564453 101.90859375 -96.32675781 101.41875 -97.19335938 100.9140625 C-98.05767578 100.40617187 -98.92199219 99.89828125 -99.8125 99.375 C-100.69615234 98.859375 -101.57980469 98.34375 -102.49023438 97.8125 C-104.66194789 96.54468886 -106.8317818 95.27377652 -109 94 C-109.66 95.98 -110.32 97.96 -111 100 C-103.96678328 104.64192304 -96.56147318 108.31484383 -89 112 C-89 113.32 -89 114.64 -89 116 C-94.70985298 115.49993326 -98.84925738 113.18208399 -103.75 110.4375 C-105.26364172 109.5992732 -106.77917969 108.76445858 -108.296875 107.93359375 C-108.96041992 107.56290771 -109.62396484 107.19222168 -110.30761719 106.81030273 C-111.98792129 105.85605107 -111.98792129 105.85605107 -114 106 C-114.99 108.31 -115.98 110.62 -117 113 C-109.36551804 116.08481325 -101.69080593 119.05868864 -94 122 C-94 123.32 -94 124.64 -94 126 C-99.75 125.125 -99.75 125.125 -102 124 C-101.8453125 125.546875 -101.8453125 125.546875 -101.6875 127.125 C-102.09675008 132.19970101 -103.46272683 133.46272683 -107 137 C-110.21451269 138.60725635 -113.43612536 138.05748185 -117 138 C-117 135.69 -117 133.38 -117 131 C-119.31 130.67 -121.62 130.34 -124 130 C-124.1139209 130.56960449 -124.2278418 131.13920898 -124.34521484 131.72607422 C-126.56347656 142.81738281 -128.78173828 153.90869141 -131 165 C-132.32 165 -133.64 165 -135 165 C-132.89246292 146.19855078 -128.3146424 129.04045901 -121.78442383 111.27978516 C-121.06885226 109.20010658 -120.49525222 107.14148166 -120 105 C-121.01320313 105.34224609 -121.01320313 105.34224609 -122.046875 105.69140625 C-122.93890625 105.97886719 -123.8309375 106.26632813 -124.75 106.5625 C-125.63171875 106.85253906 -126.5134375 107.14257812 -127.421875 107.44140625 C-130.07834316 108.01697435 -131.47031106 107.89248371 -134 107 C-133.67 106.01 -133.34 105.02 -133 104 C-130.19921875 103.05078125 -130.19921875 103.05078125 -126.6875 102.3125 C-125.53636719 102.06113281 -124.38523437 101.80976562 -123.19921875 101.55078125 C-120 101 -120 101 -116 101 C-115.690625 100.071875 -115.38125 99.14375 -115.0625 98.1875 C-114.375 96.125 -113.6875 94.0625 -113 92 C-113.78375 91.608125 -114.5675 91.21625 -115.375 90.8125 C-118.44594603 88.69208488 -119.16223547 87.60238746 -120 84 C-119.79334807 79.04035374 -118.31313924 76.61076022 -115 73 C-112.265625 71.26953125 -112.265625 71.26953125 -109.25 69.8125 C-108.1878125 69.29816406 -107.125625 68.78382812 -106.03125 68.25390625 C-103.47692164 67.19728331 -101.45182587 66.63061436 -98.75 66.25 C-93.7925907 64.59753023 -92.12759926 61.95260059 -89.09765625 57.8203125 C-85.71403177 53.27100733 -81.83339744 49.17059443 -78 45 C-79.4540625 44.0409375 -79.4540625 44.0409375 -80.9375 43.0625 C-84 41 -84 41 -85 40 C-85.3125 37.1875 -85.3125 37.1875 -85 34 C-83 31.625 -83 31.625 -81 30 C-79.68 30.66 -78.36 31.32 -77 32 C-77.495 32.4125 -77.99 32.825 -78.5 33.25 C-80.43386092 35.12202338 -80.43386092 35.12202338 -80 39 C-77.92571071 40.25938993 -76.60459403 41.0599492 -74.1484375 40.81640625 C-71.25750267 39.71785102 -69.60144406 38.01441693 -67.375 35.875 C-62.55719612 31.39415562 -57.48033825 27.62635148 -52 24 C-52.48597656 23.23816406 -52.97195312 22.47632812 -53.47265625 21.69140625 C-55.31640997 18.4424387 -55.54831556 16.68154733 -55 13 C-53.4375 10.625 -53.4375 10.625 -51 9 C-45.63383896 8.17443676 -42.47957309 9.48044532 -38.08984375 12.3203125 C-32.41957239 14.16447552 -23.56972561 8.30830562 -18.25195312 6.00976562 C-4.18389536 0 -4.18389536 0 0 0 Z M-51 13 C-51.34900558 16.71736641 -51.34900558 16.71736641 -49.5 19.8125 C-49.005 20.204375 -48.51 20.59625 -48 21 C-44.9168649 19.80100302 -41.93720508 18.52299523 -39 17 C-39 16.34 -39 15.68 -39 15 C-44.87451237 11.93818224 -44.87451237 11.93818224 -51 13 Z M-57 33 C-58.32 34.32 -59.64 35.64 -61 37 C-57.535 41.455 -57.535 41.455 -54 46 C-52.68 45.67 -51.36 45.34 -50 45 C-49.2296788 43.21730262 -49.2296788 43.21730262 -49 41 C-50.10492332 38.78147067 -50.10492332 38.78147067 -51.8125 36.75 C-52.35519531 36.04359375 -52.89789063 35.3371875 -53.45703125 34.609375 C-53.96621094 34.07828125 -54.47539063 33.5471875 -55 33 C-55.66 33 -56.32 33 -57 33 Z M-114.5625 78 C-116.18378212 79.94717035 -116.18378212 79.94717035 -116.4375 82.5625 C-116.16259685 85.02624882 -116.16259685 85.02624882 -114.75 86.875 C-113.06719639 88.21961038 -113.06719639 88.21961038 -111.03808594 87.76342773 C-107.54965966 86.45673044 -106.10884909 83.11718848 -104.25 80.0625 C-103.63318359 79.09280273 -103.63318359 79.09280273 -103.00390625 78.10351562 C-100.75600807 74.80309111 -100.75600807 74.80309111 -100 71 C-105.52016893 71 -110.30996011 74.68094448 -114.5625 78 Z M-120 118 C-120.66 120.31 -121.32 122.62 -122 125 C-120.906875 125.185625 -119.81375 125.37125 -118.6875 125.5625 C-115 127 -115 127 -113.8671875 128.69140625 C-113.0625 130.625 -113.0625 130.625 -112 134 C-109.3668037 133.63680051 -108.15568678 133.14494976 -106.1875 131.3125 C-104.79817821 128.98676809 -104.79817821 128.98676809 -104.8125 126 C-106.36053043 122.08918628 -108.1070609 121.37378076 -111.85546875 119.74609375 C-114.54698992 118.80969932 -117.16673083 118.28332692 -120 118 Z " fill="#221E1F" transform="translate(138,10)"/>
<path d="M0 0 C0.66 0.66 1.32 1.32 2 2 C1.9765625 4.8203125 1.9765625 4.8203125 1.625 8.125 C1.51414063 9.22070312 1.40328125 10.31640625 1.2890625 11.4453125 C1.19367188 12.28835938 1.09828125 13.13140625 1 14 C2.051875 12.515 2.051875 12.515 3.125 11 C5.26828183 8.41707061 5.70584395 8.05190989 9.1875 7.4375 C10.115625 7.623125 11.04375 7.80875 12 8 C14 11 14 11 13.75 14.375 C13.10626078 17.48640622 12.30944157 20.11922854 11 23 C11.928125 22.773125 12.85625 22.54625 13.8125 22.3125 C17 22 17 22 18.67578125 23.19921875 C20.33018286 25.44900973 20.40270795 26.72920468 20.375 29.5 C20.38660156 30.66015625 20.38660156 30.66015625 20.3984375 31.84375 C19.90215284 34.5295258 18.92576807 35.11569584 17 37 C15.62658968 40.05248818 14.46508334 43.15482772 13.28125 46.28515625 C12 49 12 49 9 51 C4.98943724 52.11404521 1.14363981 52.08124784 -3 52 C-3.33 51.34 -3.66 50.68 -4 50 C-4.66 50 -5.32 50 -6 50 C-6 50.66 -6 51.32 -6 52 C-10.95 52 -15.9 52 -21 52 C-19.31587197 48.63174394 -17.54398786 45.71510113 -15.4453125 42.60546875 C-14.74792969 41.56712891 -14.05054688 40.52878906 -13.33203125 39.45898438 C-11.86855369 37.28967029 -10.40501272 35.12039899 -8.94140625 32.95117188 C-5.43174556 27.72546162 -2.01290931 22.52892519 1 17 C0.34 17 -0.32 17 -1 17 C-1.66 18.65 -2.32 20.3 -3 22 C-4.32 21.67 -5.64 21.34 -7 21 C-7.39747437 22.06105957 -7.39747437 22.06105957 -7.80297852 23.14355469 C-10.02009211 28.43423978 -13.06200364 33.29565642 -15.9375 38.25 C-16.57107422 39.36375 -17.20464844 40.4775 -17.85742188 41.625 C-18.47037109 42.68203125 -19.08332031 43.7390625 -19.71484375 44.828125 C-20.27292725 45.7965332 -20.83101074 46.76494141 -21.40600586 47.76269531 C-23 50 -23 50 -26 51 C-28.19604462 50.78179429 -30.38443113 50.48030509 -32.5625 50.125 C-33.71878906 49.94195312 -34.87507813 49.75890625 -36.06640625 49.5703125 C-39 49 -39 49 -41 48 C-41 47.01 -41 46.02 -41 45 C-41.65355469 45.38929688 -42.30710938 45.77859375 -42.98046875 46.1796875 C-47.3837864 47.37593162 -50.21715942 45.84511624 -54.3125 44.125 C-55.05306641 43.82980469 -55.79363281 43.53460938 -56.55664062 43.23046875 C-58.37726407 42.50221937 -60.18952451 41.75312376 -62 41 C-60.56104816 37.66222512 -58.76305719 35.60377826 -56.125 33.125 C-52.85492617 29.93221883 -50.22858267 26.99287729 -48 23 C-48 22.01 -48 21.02 -48 20 C-46.49609375 18.23828125 -46.49609375 18.23828125 -44.4375 16.3125 C-41.55290805 13.5502229 -38.87701735 10.74910442 -36.3125 7.6875 C-33.16987716 4.09290444 -30.7532123 1.34171075 -25.796875 0.7265625 C-19.66224883 0.46930398 -19.66224883 0.46930398 -17.26953125 2.38671875 C-15.81639198 4.23332343 -15.39606461 5.70282526 -15 8 C-14.236875 7.05125 -13.47375 6.1025 -12.6875 5.125 C-8.91595775 0.43605558 -6.01875899 -0.43772793 0 0 Z " fill="#3F3A34" transform="translate(197,269)"/>
<path d="M0 0 C18.81 0 37.62 0 57 0 C57 15.84 57 31.68 57 48 C38.19 48 19.38 48 0 48 C0 32.16 0 16.32 0 0 Z " fill="#CAE3F4" transform="translate(157,74)"/>
<path d="M0 0 C7.38603562 5.49658464 9.30055914 14.17122063 10.80078125 22.8125 C10.89939453 23.8953125 10.89939453 23.8953125 11 25 C10.505 25.495 10.505 25.495 10 26 C10.72960937 26.72445312 11.45921875 27.44890625 12.2109375 28.1953125 C39.50404779 55.64132537 64 97.05774481 64 137 C62.68 137 61.36 137 60 137 C59.67 136.01 59.34 135.02 59 134 C50.30593504 135.53637323 41.65277306 137.24842651 33 139 C33.33 137.35 33.66 135.7 34 134 C34.92683594 133.79503906 35.85367188 133.59007812 36.80859375 133.37890625 C38.00613281 133.10949219 39.20367187 132.84007812 40.4375 132.5625 C41.63246094 132.29566406 42.82742188 132.02882812 44.05859375 131.75390625 C46.8704686 131.29933252 46.8704686 131.29933252 48 130 C47.8981629 128.08575543 47.8981629 128.08575543 47.5625 125.9375 C47.376875 124.638125 47.19125 123.33875 47 122 C43.535 122.495 43.535 122.495 40 123 C40.50298788 118.59885603 42.08772731 116.28804981 45 113 C46.890625 113.5234375 46.890625 113.5234375 49 115 C49.78860649 117.61887976 50.33036579 119.94921481 50.75 122.625 C50.87503906 123.33140625 51.00007813 124.0378125 51.12890625 124.765625 C51.4349525 126.50773442 51.71955406 128.25358664 52 130 C53.98 129.67 55.96 129.34 58 129 C56.02 120.75 54.04 112.5 52 104 C48.45296222 104.70940756 46.09461446 105.25530903 42.93359375 106.6640625 C42.20076172 106.98117188 41.46792969 107.29828125 40.71289062 107.625 C39.1898034 108.29437395 37.66897135 108.9689018 36.15039062 109.6484375 C35.41884766 109.96296875 34.68730469 110.2775 33.93359375 110.6015625 C33.27415771 110.89369629 32.61472168 111.18583008 31.93530273 111.48681641 C29.61585471 112.10186368 28.24845216 111.75292636 26 111 C26 110.01 26 109.02 26 108 C27.93467942 107.16013916 29.87285129 106.32831973 31.8125 105.5 C33.43091797 104.80390625 33.43091797 104.80390625 35.08203125 104.09375 C38 103 38 103 41 103 C40.01 100.03 39.02 97.06 38 94 C34.535 94.495 34.535 94.495 31 95 C31.4794463 90.78087253 32.16625119 88.20336822 35 85 C36.828125 85.09765625 36.828125 85.09765625 39 86 C40.484375 88.87109375 40.484375 88.87109375 41.75 92.4375 C42.17796875 93.61183594 42.6059375 94.78617187 43.046875 95.99609375 C44 99 44 99 44 101 C45.98 100.34 47.96 99.68 50 99 C48.55294023 95.18312415 47.09049305 91.37233239 45.625 87.5625 C45.2125 86.47388672 44.8 85.38527344 44.375 84.26367188 C43.77558594 82.71196289 43.77558594 82.71196289 43.1640625 81.12890625 C42.79748535 80.17056885 42.4309082 79.21223145 42.05322266 78.22485352 C41.20748957 75.84663187 41.20748957 75.84663187 39 75 C36.86842317 76.0012356 36.86842317 76.0012356 34.53515625 77.52734375 C33.21161133 78.34428711 33.21161133 78.34428711 31.86132812 79.17773438 C30.93771484 79.75845703 30.01410156 80.33917969 29.0625 80.9375 C27.24464918 82.07763769 25.42318354 83.21203805 23.59765625 84.33984375 C22.78820557 84.84894287 21.97875488 85.35804199 21.14477539 85.88256836 C19 87 19 87 16 87 C15.67 85.68 15.34 84.36 15 83 C22.26 78.71 29.52 74.42 37 70 C35.68 67.36 34.36 64.72 33 62 C27.66890986 65.43413782 22.7787208 69.29072877 17.859375 73.28515625 C13.21331705 77 13.21331705 77 11 77 C10.67 75.68 10.34 74.36 10 73 C13.96 69.7 17.92 66.4 22 63 C21.34 61.35 20.68 59.7 20 58 C19.34 58 18.68 58 18 58 C17.7525 58.78375 17.505 59.5675 17.25 60.375 C16 63 16 63 14.25 64.375 C11.08868178 65.25314395 9.12063459 64.99594721 6 64 C3.68680972 61.68680972 3.05565588 59.98156741 2.87109375 56.7265625 C3.19448445 50.3567456 5.18259556 46.04291805 9 41 C10.32 41.33 11.64 41.66 13 42 C12.6390625 42.6290625 12.278125 43.258125 11.90625 43.90625 C8.80209481 49.6316918 7.39737616 53.49166252 8 60 C10.3852733 60.12815365 10.3852733 60.12815365 13 59 C14.67198768 56.47332213 15.85805571 53.80063432 17 51 C17.66 51 18.32 51 19 51 C20.7265625 52.96875 20.7265625 52.96875 22.625 55.5 C23.25664062 56.3353125 23.88828125 57.170625 24.5390625 58.03125 C25.02117187 58.6809375 25.50328125 59.330625 26 60 C26.99 59.34 27.98 58.68 29 58 C27.59181852 53.8648639 25.61559254 51.02129853 22.8125 47.6875 C22.01199219 46.73230469 21.21148437 45.77710938 20.38671875 44.79296875 C14.39247498 37.71374012 14.39247498 37.71374012 8 31 C6.10229694 33.03995513 4.20681055 35.08189835 2.3125 37.125 C1.78205078 37.69476563 1.25160156 38.26453125 0.70507812 38.8515625 C-2.65209206 42.47648245 -5.86903691 46.17778532 -9 50 C-9.99 49.34 -10.98 48.68 -12 48 C-11.690625 47.401875 -11.38125 46.80375 -11.0625 46.1875 C-9.89790296 43.91043228 -9.89790296 43.91043228 -9 41 C-9.78375 40.608125 -10.5675 40.21625 -11.375 39.8125 C-14.44594603 37.69208488 -15.16223547 36.60238746 -16 33 C-15.81577304 29.92955073 -15.50251421 27.80960624 -13.875 25.1875 C-10.93335319 23.32445702 -8.44947304 23.11894735 -5 23 C-2.125 24.1875 -2.125 24.1875 0 26 C0.8125 28.1875 0.8125 28.1875 1 30 C0.01 30.66 -0.98 31.32 -2 32 C-2.66 30.68 -3.32 29.36 -4 28 C-6.41619823 27.74969023 -6.41619823 27.74969023 -9 28 C-11.20896722 30.68549908 -11.20896722 30.68549908 -10.9375 33.0625 C-10.12034951 35.24727583 -10.12034951 35.24727583 -7.5625 36.25 C-5.12508773 37.09363292 -5.12508773 37.09363292 -3 37 C-2.7525 36.443125 -2.505 35.88625 -2.25 35.3125 C-0.78393985 32.60028873 1.02989471 30.36412635 3 28 C1.43895935 23.82421627 -1.63957368 21.47638361 -5 18.75 C-5.5465625 18.29109375 -6.093125 17.8321875 -6.65625 17.359375 C-9.46067719 14.80148332 -9.46067719 14.80148332 -13 14 C-14.48439913 15.79246966 -14.48439913 15.79246966 -15.96875 18.12109375 C-16.53980469 18.97380859 -17.11085938 19.82652344 -17.69921875 20.70507812 C-18.29347656 21.60677734 -18.88773437 22.50847656 -19.5 23.4375 C-20.67300844 25.20973509 -21.84990274 26.97940626 -23.03125 28.74609375 C-23.55267578 29.53685303 -24.07410156 30.3276123 -24.61132812 31.14233398 C-26 33 -26 33 -28 34 C-28.66 33.67 -29.32 33.34 -30 33 C-29.44951507 29.25906577 -28.51911186 26.89720126 -26.27734375 23.86328125 C-25.73916016 23.12142578 -25.20097656 22.37957031 -24.64648438 21.61523438 C-23.80053711 20.47538086 -23.80053711 20.47538086 -22.9375 19.3125 C-21.81750265 17.79077828 -20.7014043 16.2661766 -19.58984375 14.73828125 C-19.09347412 14.06837158 -18.59710449 13.39846191 -18.08569336 12.70825195 C-16.82120283 11.05602172 -16.82120283 11.05602172 -17 9 C-17.66 8.67 -18.32 8.34 -19 8 C-18.67 6.68 -18.34 5.36 -18 4 C-15.525 4.99 -15.525 4.99 -13 6 C-12.7525 5.21625 -12.505 4.4325 -12.25 3.625 C-11 1 -11 1 -9.3125 -0.375 C-5.84325904 -1.31263269 -3.46441837 -0.91168904 0 0 Z M-8.875 4.25 C-10.19108107 5.91124213 -10.19108107 5.91124213 -9.86328125 7.828125 C-7.27734694 14.33391448 1.12587863 19.44461075 7 23 C5.2943461 15.01443855 3.87609716 8.87609716 -2 3 C-4.90718056 2.62728454 -6.41082793 2.60721862 -8.875 4.25 Z " fill="#221E1F" transform="translate(308,32)"/>
<path d="M0 0 C18.75771479 -1.54880214 38.68682121 5.16369482 55 14 C54.33042227 21.17273677 52.70115907 28.09390588 51.04370117 35.09130859 C50.56224559 37.12607519 50.08828416 39.16248341 49.61523438 41.19921875 C48.28215931 46.88395663 46.92085627 52.47812816 45 58 C43.45997544 58.10956696 41.91760237 58.18629371 40.375 58.25 C39.51648438 58.29640625 38.65796875 58.3428125 37.7734375 58.390625 C29.82634657 57.27131642 24.85004896 49.74602994 20.28027344 43.7578125 C12.05785133 32.46844576 0 14.26285169 0 0 Z " fill="#FCEBBA" transform="translate(65,226)"/>
<path d="M0 0 C3.54641457 7.41812097 6.1752107 15.07514966 8.75 22.875 C9.16121094 24.09703125 9.57242188 25.3190625 9.99609375 26.578125 C10.38410156 27.74601562 10.77210938 28.91390625 11.171875 30.1171875 C11.6992627 31.70442627 11.6992627 31.70442627 12.23730469 33.32373047 C13 36 13 36 13 39 C11.13021484 39.03867188 11.13021484 39.03867188 9.22265625 39.078125 C-7.3049476 39.56495172 -21.32629732 42.09631247 -36.12109375 49.609375 C-39 51 -39 51 -41 51 C-41.24782044 45.27115388 -41.42891691 39.54544249 -41.54931641 33.8125 C-41.59950961 31.86435603 -41.66768562 29.91658707 -41.75439453 27.96972656 C-42.45663599 11.79338793 -42.45663599 11.79338793 -38.9206543 7.43994141 C-36.30348665 5.8453983 -33.93061176 4.86926835 -31 4 C-29.54787109 3.27683594 -29.54787109 3.27683594 -28.06640625 2.5390625 C-18.83296143 -0.83164903 -9.68131263 -0.36456826 0 0 Z " fill="#F9F9F9" transform="translate(232,168)"/>
<path d="M0 0 C2.66694948 -0.05455124 5.33275498 -0.09393392 8 -0.125 C8.74378906 -0.14175781 9.48757812 -0.15851563 10.25390625 -0.17578125 C17.8367755 -0.24171924 24.23567004 1.49037969 31.25 4.4375 C32.24515625 4.84871094 33.2403125 5.25992188 34.265625 5.68359375 C35.61914062 6.33521484 35.61914062 6.33521484 37 7 C37.70833984 7.33112793 38.41667969 7.66225586 39.14648438 8.00341797 C42.18972315 11.28155373 41.49140823 14.9592826 41.390625 19.26171875 C41.38496521 20.16751175 41.37930542 21.07330475 41.37347412 22.00654602 C41.35107616 24.90073411 41.30087392 27.7936859 41.25 30.6875 C41.2299394 32.64907067 41.21168786 34.61066073 41.1953125 36.57226562 C41.15120018 41.38198706 41.08214941 46.1907839 41 51 C38.45099625 49.98816953 35.92079336 48.96482364 33.4140625 47.8515625 C17.88486963 41.02219757 3.77494076 39.26667029 -13 39 C-10.80308143 30.23835822 -7.8960957 21.79594071 -4.8125 13.3125 C-4.34401174 12.01381225 -3.8759104 10.71498485 -3.40820312 9.41601562 C-2.27591396 6.27595598 -1.13977817 3.13734732 0 0 Z " fill="#FAFAFA" transform="translate(143,168)"/>
<path d="M0 0 C2.97976672 1.48988336 3.62938943 3.75046765 5.125 6.6875 C5.66382813 7.72261719 6.20265625 8.75773437 6.7578125 9.82421875 C8.11513196 13.2943468 8.62024563 15.3228295 8 19 C7.19175781 19.72574219 6.38351562 20.45148438 5.55078125 21.19921875 C1.74499667 25.37800519 2.22055327 29.34401971 2.1875 34.8125 C2.16236328 35.79154297 2.13722656 36.77058594 2.11132812 37.77929688 C2.05261337 40.18660197 2.0162202 42.59209562 2 45 C3.98 44.505 3.98 44.505 6 44 C5.93039062 43.33613281 5.86078125 42.67226562 5.7890625 41.98828125 C5.34789793 34.79309712 5.34789793 34.79309712 8.3125 31.1875 C12.83702499 28.14944965 19.47829242 24 25 24 C24.5749888 26.56513849 24.13553075 29.12636902 23.6875 31.6875 C23.56955078 32.40873047 23.45160156 33.12996094 23.33007812 33.87304688 C22.57218961 38.12888236 21.72210688 41.5149273 19 45 C16.09050115 47.00737497 13.91503602 47.18829298 10.4375 47 C6.81077903 46.80429162 6.20735406 46.86176396 3 49 C2.49378487 51.02276681 2.49378487 51.02276681 2.48828125 53.3515625 C2.45283203 54.20234375 2.41738281 55.053125 2.38085938 55.9296875 C2.35830078 56.81914062 2.33574219 57.70859375 2.3125 58.625 C2.27833984 59.5221875 2.24417969 60.419375 2.20898438 61.34375 C2.12637598 63.56237538 2.05727281 65.7805994 2 68 C3.98 67.505 3.98 67.505 6 67 C5.505 66.01 5.505 66.01 5 65 C4.58090958 60.28523274 5.10747657 57.75277492 8 54 C10.39958914 52.4358207 12.93423207 51.31390054 15.5625 50.1875 C16.59020508 49.72053711 16.59020508 49.72053711 17.63867188 49.24414062 C22.66456044 47 22.66456044 47 25 47 C24.57351116 49.37744845 24.13422767 51.75134251 23.6875 54.125 C23.56955078 54.79015625 23.45160156 55.4553125 23.33007812 56.140625 C22.49366154 60.51572714 21.26887299 64.16216343 19 68 C15.75864351 69.62067825 12.21002928 69.39697553 8.62890625 69.62109375 C5.77355181 69.84017203 5.77355181 69.84017203 3 72 C2.27617533 74.05925139 2.27617533 74.05925139 2 76 C1.01 76 0.02 76 -1 76 C-1 74.35 -1 72.7 -1 71 C-2.66289062 70.87044922 -2.66289062 70.87044922 -4.359375 70.73828125 C-5.82303166 70.59754503 -7.28656784 70.45555176 -8.75 70.3125 C-9.47960937 70.25900391 -10.20921875 70.20550781 -10.9609375 70.15039062 C-14.47472293 69.78304033 -16.65053861 69.29428327 -19.375 67 C-21.53759787 63.00751162 -22.39618136 59.12105828 -23.25 54.6875 C-23.42273438 53.85154297 -23.59546875 53.01558594 -23.7734375 52.15429688 C-24.19492034 50.10542197 -24.59920244 48.05302155 -25 46 C-22.41124074 47.07162593 -19.82954605 48.1565938 -17.25 49.25 C-16.52039063 49.55035156 -15.79078125 49.85070312 -15.0390625 50.16015625 C-11.00581109 51.88345458 -7.6801032 53.37842465 -5 57 C-4.4609375 59.32421875 -4.4609375 59.32421875 -4.375 61.6875 C-4.31562553 64.00391573 -4.31562553 64.00391573 -4 66 C-3.34 66.33 -2.68 66.66 -2 67 C-1.67 60.73 -1.34 54.46 -1 48 C-6.16999615 47.11518694 -6.16999615 47.11518694 -11.0625 47.1875 C-15.59273106 46.97177471 -16.96969037 46.29768989 -20 43 C-23.21103805 37.08492991 -23.93183104 29.56971174 -25 23 C-22.22528401 24.26287074 -19.45539556 25.53483762 -16.6875 26.8125 C-15.90181641 27.16892578 -15.11613281 27.52535156 -14.30664062 27.89257812 C-13.1706543 28.41948242 -13.1706543 28.41948242 -12.01171875 28.95703125 C-11.31522217 29.27647705 -10.61872559 29.59592285 -9.90112305 29.92504883 C-7.87306834 31.07177091 -6.50128221 32.22286078 -5 34 C-4.55859375 36.2265625 -4.55859375 36.2265625 -4.4375 38.625 C-4.35358878 40.97141842 -4.35358878 40.97141842 -4 43 C-3.34 43.33 -2.68 43.66 -2 44 C-1.85415936 40.77131254 -1.76575894 37.54347635 -1.6875 34.3125 C-1.64560547 33.40048828 -1.60371094 32.48847656 -1.56054688 31.54882812 C-1.37054108 25.83774358 -1.37054108 25.83774358 -4.51953125 21.23046875 C-5.74736328 20.12638672 -5.74736328 20.12638672 -7 19 C-7.95224192 13.83268725 -6.03894751 10.56815814 -3.5 6.125 C-3.16613281 5.53203125 -2.83226562 4.9390625 -2.48828125 4.328125 C-1.67020018 2.87895283 -0.83665257 1.43853019 0 0 Z " fill="#75BF41" transform="translate(267,114)"/>
<path d="M0 0 C-4.49045677 21.58060696 -12.5596144 40.45808827 -26 58 C-26.66 58.99 -27.32 59.98 -28 61 C-31.625 61.1875 -31.625 61.1875 -35 61 C-37.02394077 55.64751411 -39.03575371 50.29068849 -41.03637695 44.92944336 C-41.71891695 43.10560165 -42.40477657 41.28299871 -43.09399414 39.46166992 C-44.08310684 36.84611128 -45.06026341 34.22635524 -46.03515625 31.60546875 C-46.34655045 30.78974899 -46.65794464 29.97402924 -46.97877502 29.1335907 C-47.25914108 28.37302872 -47.53950714 27.61246674 -47.82836914 26.82885742 C-48.07929825 26.16045334 -48.33022736 25.49204926 -48.58876038 24.8033905 C-49 23 -49 23 -48 20 C-45.47827148 18.57714844 -45.47827148 18.57714844 -42.12109375 17.109375 C-41.52139267 16.84362167 -40.92169159 16.57786835 -40.30381775 16.30406189 C-38.35273281 15.44238444 -36.39543676 14.59597825 -34.4375 13.75 C-33.10524498 13.16600142 -31.77337606 12.58112126 -30.44189453 11.99536133 C-27.82185214 10.84445373 -25.19938885 9.69936759 -22.57470703 8.55908203 C-19.58168244 7.25369649 -16.59825002 5.93087881 -13.62109375 4.58984375 C-3.37678639 0 -3.37678639 0 0 0 Z " fill="#FCEBBA" transform="translate(312,214)"/>
<path d="M0 0 C1.47578667 0.14478797 2.95359745 0.27013324 4.43261719 0.37695312 C16.63713843 1.26800894 16.63713843 1.26800894 20.11743164 4.78100586 C21.48055409 7.42414331 22.33930957 9.99302072 23.19482422 12.84033203 C24.07218376 14.95970264 24.96476741 17.07281986 25.87060547 19.18017578 C26.75401994 21.37758748 27.63288403 23.5768337 28.50732422 25.77783203 C29.18891602 27.46102539 29.18891602 27.46102539 29.88427734 29.17822266 C30.31289063 30.25136719 30.74150391 31.32451172 31.18310547 32.43017578 C31.57022705 33.39818115 31.95734863 34.36618652 32.35620117 35.36352539 C33.19482422 37.84033203 33.19482422 37.84033203 33.19482422 40.84033203 C29.00646643 41.18710955 27.15857109 40.50768714 23.90966797 37.88330078 C23.13171875 37.26519531 22.35376953 36.64708984 21.55224609 36.01025391 C20.75367188 35.35605469 19.95509766 34.70185547 19.13232422 34.02783203 C18.32988281 33.38523437 17.52744141 32.74263672 16.70068359 32.08056641 C15.20323538 30.88136514 13.70983653 29.67707668 12.22192383 28.46606445 C10.24370239 26.87953229 8.23179066 25.35041306 6.19482422 23.84033203 C6.52482422 22.19033203 6.85482422 20.54033203 7.19482422 18.84033203 C6.62376953 18.89833984 6.05271484 18.95634766 5.46435547 19.01611328 C-0.05503981 19.32323385 -3.91831464 18.56978525 -8.99267578 16.34033203 C-20.48757784 11.61030786 -30.94294669 13.57656594 -42.41845703 16.93408203 C-47.27637249 18.23400866 -51.89572849 19.13746061 -56.68017578 17.00439453 C-58.36767578 15.96533203 -58.36767578 15.96533203 -60.80517578 13.84033203 C-60.80517578 13.18033203 -60.80517578 12.52033203 -60.80517578 11.84033203 C-58.12169507 10.68423179 -55.43401894 9.54036417 -52.74267578 8.40283203 C-51.61442383 7.91459961 -51.61442383 7.91459961 -50.46337891 7.41650391 C-45.87278988 5.48885397 -41.78717881 4.19665214 -36.80517578 3.84033203 C-36.47517578 4.17033203 -36.14517578 4.50033203 -35.80517578 4.84033203 C-35.49580078 3.91220703 -35.49580078 3.91220703 -35.18017578 2.96533203 C-29.63833638 -5.59932887 -9.00794944 -0.93575961 0 0 Z " fill="#F9E9B8" transform="translate(225.80517578125,238.15966796875)"/>
<path d="M0 0 C1.66454448 0.67194784 3.3307388 1.33985663 5 2 C4.7834375 1.32453125 4.566875 0.6490625 4.34375 -0.046875 C4.0653125 -0.93890625 3.786875 -1.8309375 3.5 -2.75 C3.2215625 -3.63171875 2.943125 -4.5134375 2.65625 -5.421875 C2 -8 2 -8 2 -12 C2.99 -12.33 3.98 -12.66 5 -13 C7.2595487 -8.04387056 7.62719435 -3.23749872 8.14453125 2.13671875 C8.70175741 5.23028829 8.70175741 5.23028829 11.57421875 6.39453125 C12.37472656 6.59433594 13.17523438 6.79414063 14 7 C14 8.32 14 9.64 14 11 C12.35 10.67 10.7 10.34 9 10 C4.91845639 17.83800852 1.41507119 25.85546597 -2 34 C-3.98 33.505 -3.98 33.505 -6 33 C-5.2396066 27.03755017 -2.30016895 21.80532059 0.20507812 16.41796875 C0.56150391 15.63808594 0.91792969 14.85820312 1.28515625 14.0546875 C1.61394775 13.34812012 1.94273926 12.64155273 2.28149414 11.91357422 C3.17575805 9.87257905 3.17575805 9.87257905 3 7 C0.36 5.68 -2.28 4.36 -5 3 C-5.26554687 4.134375 -5.53109375 5.26875 -5.8046875 6.4375 C-6.16142786 7.95834048 -6.51820042 9.47917341 -6.875 11 C-7.04902344 11.74378906 -7.22304687 12.48757812 -7.40234375 13.25390625 C-8.55902782 18.18052359 -9.76213258 23.09313816 -11 28 C-12.32 28 -13.64 28 -15 28 C-14.5547115 22.72684667 -13.91626837 17.98229776 -12 13 C-13.39006515 12.46396181 -14.78742649 11.94682527 -16.1875 11.4375 C-16.96480469 11.14746094 -17.74210937 10.85742188 -18.54296875 10.55859375 C-21.3628632 9.91750487 -23.23136845 10.2574363 -26 11 C-25.71125 11.68707031 -25.4225 12.37414062 -25.125 13.08203125 C-24.75375 13.98308594 -24.3825 14.88414063 -24 15.8125 C-23.62875 16.70582031 -23.2575 17.59914063 -22.875 18.51953125 C-22 21 -22 21 -22 24 C-23.32 24.33 -24.64 24.66 -26 25 C-27.20502099 21.75622826 -28.38588782 18.50417311 -29.5625 15.25 C-29.90474609 14.32960938 -30.24699219 13.40921875 -30.59960938 12.4609375 C-31.07817383 11.12675781 -31.07817383 11.12675781 -31.56640625 9.765625 C-31.86490479 8.94868164 -32.16340332 8.13173828 -32.47094727 7.29003906 C-33.04922939 4.78690737 -32.83176958 3.40128262 -32 1 C-31.01 1 -30.02 1 -29 1 C-28.5978125 2.2065625 -28.5978125 2.2065625 -28.1875 3.4375 C-27.5996875 4.7059375 -27.5996875 4.7059375 -27 6 C-25.515 6.495 -25.515 6.495 -24 7 C-23.34 3.7 -22.68 0.4 -22 -3 C-22.94875 -3.12375 -23.8975 -3.2475 -24.875 -3.375 C-29.62300113 -4.04771474 -34.30488558 -5.03337478 -39 -6 C-39.05534912 -5.42556152 -39.11069824 -4.85112305 -39.16772461 -4.25927734 C-39.4221876 -1.63097381 -39.67981811 0.99701018 -39.9375 3.625 C-40.02451172 4.52863281 -40.11152344 5.43226562 -40.20117188 6.36328125 C-40.65251386 10.94356654 -41.1647042 15.4698372 -42 20 C-43.32 20 -44.64 20 -46 20 C-45.67 15.38 -45.34 10.76 -45 6 C-49.455 5.01 -49.455 5.01 -54 4 C-54 5.65 -54 7.3 -54 9 C-55.32 9 -56.64 9 -58 9 C-60.56771603 5.69865082 -61 4.27125508 -61 0 C-59.68 0 -58.36 0 -57 0 C-56.67 -2.97 -56.34 -5.94 -56 -9 C-60.62 -9 -65.24 -9 -70 -9 C-69.34 -0.09 -68.68 8.82 -68 18 C-69.32 18 -70.64 18 -72 18 C-73.23759823 14.28720531 -73.35608897 10.68693654 -73.5625 6.8125 C-73.60568359 6.06291016 -73.64886719 5.31332031 -73.69335938 4.54101562 C-73.79922685 2.69421625 -73.9000976 0.84713166 -74 -1 C-79.94 -0.505 -79.94 -0.505 -86 0 C-85.56509678 5.43629023 -84.3898616 8.7128221 -81 13 C-80.01 13.66 -79.02 14.32 -78 15 C-78.66 16.32 -79.32 17.64 -80 19 C-86.11581742 15.87097714 -88.83025905 11.47936403 -91 5 C-91.30782336 2.09690732 -91.00490089 0.83736721 -90 -2 C-86.69420021 -4.32715976 -83.70023167 -4.2108746 -79.75 -4.125 C-78.67234375 -4.10695313 -77.5946875 -4.08890625 -76.484375 -4.0703125 C-75.25460938 -4.03550781 -75.25460938 -4.03550781 -74 -4 C-74 -5.65 -74 -7.3 -74 -9 C-81.26 -8.34 -88.52 -7.68 -96 -7 C-96 -8.32 -96 -9.64 -96 -11 C-64.67854348 -16.53781195 -29.23794744 -13.02624506 0 0 Z M-52 -8 C-52.33 -5.03 -52.66 -2.06 -53 1 C-50.03 1.33 -47.06 1.66 -44 2 C-43.67 -0.97 -43.34 -3.94 -43 -7 C-45.97 -7.33 -48.94 -7.66 -52 -8 Z M-18 -1 C-18.66 1.64 -19.32 4.28 -20 7 C-16.62902617 8.49821059 -14.79557881 9 -11 9 C-9.74335022 6.09399739 -9 4.20395416 -9 1 C-13.455 0.01 -13.455 0.01 -18 -1 Z " fill="#221D1E" transform="translate(257,16)"/>
<path d="M0 0 C48.51 0.495 48.51 0.495 98 1 C97.34 1.33 96.68 1.66 96 2 C96 3.98 96 5.96 96 8 C94.27716797 8.03867188 94.27716797 8.03867188 92.51953125 8.078125 C78.7381823 8.52340524 67.71855151 11.11158511 55.55859375 17.92578125 C53 19 53 19 50.96875 18.8125 C48.62461865 17.84508071 46.34392871 16.79562252 44.0625 15.6875 C30.37049085 9.49820809 18.84874056 8.45246454 4 9 C4 9.99 4 10.98 4 12 C3.01 12 2.02 12 1 12 C0.81824219 12.68964844 0.63648438 13.37929687 0.44921875 14.08984375 C-1.16834166 20.13703115 -2.94180675 26.08816832 -5 32 C-5.33 32 -5.66 32 -6 32 C-6.11681812 28.45861382 -6.187455 24.9177276 -6.25 21.375 C-6.28351563 20.37597656 -6.31703125 19.37695312 -6.3515625 18.34765625 C-6.43202474 12.27275688 -6.0240344 8.84374511 -2 4 C-1.34 2.68 -0.68 1.36 0 0 Z " fill="#F4DD63" transform="translate(136,153)"/>
<path d="M0 0 C2.57318919 -0.28654687 4.90497099 -0.37852887 7.47900391 -0.34057617 C8.6352401 -0.34123329 8.6352401 -0.34123329 9.81483459 -0.34190369 C12.36899937 -0.3398095 14.92251205 -0.31644941 17.4765625 -0.29296875 C19.24489992 -0.28737502 21.01324197 -0.28310387 22.78158569 -0.28010559 C27.44076322 -0.26863921 32.09966114 -0.23915675 36.75872803 -0.20599365 C41.51098854 -0.1753313 46.26329413 -0.16160847 51.015625 -0.14648438 C60.34387299 -0.11428866 69.67191327 -0.06307078 79 0 C79.83819158 1.62249941 80.6704116 3.24808497 81.5 4.875 C82.19609375 6.23238281 82.19609375 6.23238281 82.90625 7.6171875 C84 10 84 10 84 12 C54.63 12 25.26 12 -5 12 C-2 3 -2 3 0 0 Z " fill="#F2F7FB" transform="translate(146,140)"/>
<path d="M0 0 C0.66 0.66 1.32 1.32 2 2 C1.90528007 8.33834217 -0.59294146 11.95385293 -4.25 16.8125 C-4.77561523 17.53300537 -5.30123047 18.25351074 -5.84277344 18.99584961 C-6.9641344 20.53169123 -8.09092791 22.06357868 -9.22265625 23.59179688 C-11.67410578 26.91337629 -14.08123068 30.26619454 -16.49121094 33.61791992 C-18.98554383 37.08484874 -21.49214427 40.5428464 -24 44 C-28.66493392 42.89357337 -33.06472615 41.72303077 -37.5 39.875 C-38.3559375 39.52179688 -39.211875 39.16859375 -40.09375 38.8046875 C-40.7228125 38.53914063 -41.351875 38.27359375 -42 38 C-40.58261511 34.74792908 -38.87473588 32.68638933 -36.3125 30.25 C-33.67915859 27.6826099 -31.14878797 25.10028061 -28.75 22.3125 C-25.53784434 18.59082999 -22.25536378 14.93982034 -18.9375 11.3125 C-18.44282227 10.7656958 -17.94814453 10.2188916 -17.43847656 9.65551758 C-7.62874672 -1.02694667 -7.62874672 -1.02694667 0 0 Z " fill="#FAE9B8" transform="translate(177,272)"/>
<path d="M0 0 C0.59119629 0.21422607 1.18239258 0.42845215 1.79150391 0.64916992 C2.13943968 6.11176161 1.21011496 9.83847063 -1.33349609 14.58666992 C-1.67533936 15.24546143 -2.01718262 15.90425293 -2.36938477 16.58300781 C-5.932424 23.33439099 -9.72240868 29.96589602 -13.52099609 36.58666992 C-14.13152832 37.65973389 -14.74206055 38.73279785 -15.37109375 39.83837891 C-15.95294434 40.83683838 -16.53479492 41.83529785 -17.13427734 42.86401367 C-17.65417236 43.76240967 -18.17406738 44.66080566 -18.7097168 45.58642578 C-20.20849609 47.64916992 -20.20849609 47.64916992 -23.20849609 48.64916992 C-25.40454071 48.43096421 -27.59292723 48.12947501 -29.77099609 47.77416992 C-30.92728516 47.59112305 -32.08357422 47.40807617 -33.27490234 47.21948242 C-36.20849609 46.64916992 -36.20849609 46.64916992 -38.20849609 45.64916992 C-36.92372405 42.92182717 -35.5149238 40.58276908 -33.66162109 38.20776367 C-32.89906006 37.22223511 -32.89906006 37.22223511 -32.12109375 36.21679688 C-31.57243652 35.51385498 -31.0237793 34.81091309 -30.45849609 34.08666992 C-26.72985691 29.27818904 -23.04115508 24.4521354 -19.48193359 19.51635742 C-18.87188477 18.67274658 -18.26183594 17.82913574 -17.63330078 16.95996094 C-16.46285913 15.3352825 -15.29906176 13.70578959 -14.14306641 12.07080078 C-4.86215948 -0.77237709 -4.86215948 -0.77237709 0 0 Z " fill="#FAE9B8" transform="translate(194.20849609375,271.350830078125)"/>
<path d="M0 0 C0 3.3 0 6.6 0 10 C-0.98097656 10.08636719 -1.96195312 10.17273438 -2.97265625 10.26171875 C-11.73256075 11.13759985 -19.5214517 12.85886156 -27.79296875 15.87890625 C-38.29057582 19.54859349 -51.37883657 19.19832136 -62 16 C-65.83850194 13.13391855 -66.04309979 9.49007023 -67 5 C-66.36578125 5.0721875 -65.7315625 5.144375 -65.078125 5.21875 C-58.30096935 5.89272128 -51.55583045 6.1372168 -44.75 6.1875 C-43.91114258 6.20039063 -43.07228516 6.21328125 -42.20800781 6.2265625 C-36.82638857 6.23506091 -32.13886998 5.57516429 -27 4 C-25.96697754 3.68663696 -25.96697754 3.68663696 -24.91308594 3.36694336 C-22.05516197 2.48750661 -19.19990006 1.6019257 -16.35546875 0.6796875 C-11.17944102 -0.91002486 -5.09292216 -2.54646108 0 0 Z " fill="#F8C804" transform="translate(314,185)"/>
<path d="M0 0 C-0.33 3.3 -0.66 6.6 -1 10 C-2.258125 10.20625 -3.51625 10.4125 -4.8125 10.625 C-8.40448947 11.31304305 -11.78978948 12.23903682 -15.2265625 13.46875 C-26.78829946 17.57279997 -36.76164551 18.9737409 -49 18 C-50.09183594 17.92652344 -51.18367188 17.85304687 -52.30859375 17.77734375 C-58.17819452 17.03618952 -58.17819452 17.03618952 -60.2578125 14.4140625 C-61.58521641 11.57987577 -62 9.11346806 -62 6 C-61.23558594 6.0721875 -60.47117188 6.144375 -59.68359375 6.21875 C-56.12453166 6.52711639 -52.56498 6.770119 -49 7 C-47.83339844 7.09152344 -46.66679687 7.18304688 -45.46484375 7.27734375 C-35.84330933 7.7065961 -28.13035602 5.5713213 -19.1171875 2.41015625 C-12.55791446 0.11334837 -6.92566793 -0.09234224 0 0 Z " fill="#FAC804" transform="translate(314,198)"/>
<path d="M0 0 C1.39482079 -0.08204828 2.79108728 -0.13966204 4.1875 -0.1875 C4.96480469 -0.22230469 5.74210937 -0.25710937 6.54296875 -0.29296875 C9.60509988 0.07215022 11.47057217 1.28825577 14 3 C10.5380793 16.87365647 6.74944652 30.50955083 2 44 C-2.29 43.67 -6.58 43.34 -11 43 C-8.82939457 32.77261794 -6.4484402 22.61822428 -3.8125 12.5 C-3.55065918 11.49122803 -3.28881836 10.48245605 -3.01904297 9.44311523 C-1.1290701 2.2581402 -1.1290701 2.2581402 0 0 Z " fill="#F9E8B7" transform="translate(123,242)"/>
<path d="M0 0 C11.92762145 2.27331414 22.80239059 2.16511617 34.62890625 -0.84375 C37.76373686 -1.50288835 40.55713202 -1.61523133 43.75 -1.5 C43.09 1.47 42.43 4.44 41.75 7.5 C27.28751414 12.21557035 14.44000918 12.78216805 -0.40600586 9.57470703 C-7.07529286 8.18321897 -13.4570981 8.21342445 -20.25 8.5 C-20.58 5.53 -20.91 2.56 -21.25 -0.5 C-15.02148324 -3.61425838 -6.54998425 -1.28277306 0 0 Z " fill="#FAC904" transform="translate(81.25,201.5)"/>
<path d="M0 0 C4.32173696 0.02445113 8.12243029 0.71589665 12.3125 1.75 C23.50412718 4.32517267 35.3516768 4.28439379 46.55078125 1.6875 C49.01773851 1.21029929 51.30585557 1.17901538 53.8125 1.25 C53.8125 1.91 53.8125 2.57 53.8125 3.25 C54.8025 3.25 55.7925 3.25 56.8125 3.25 C56.4825 5.23 56.1525 7.21 55.8125 9.25 C54.39648286 9.73108275 52.97965563 10.20978141 51.5625 10.6875 C50.77359375 10.95433594 49.9846875 11.22117188 49.171875 11.49609375 C43.06824504 13.44642584 37.44803845 13.43367174 31.0625 13.4375 C30.00289062 13.44974609 28.94328125 13.46199219 27.8515625 13.47460938 C21.75004184 13.48596456 16.67668565 12.86326446 10.8125 11.25 C8.13934611 10.9082579 5.50938085 10.76947576 2.8125 10.625 C2.13316406 10.58632812 1.45382813 10.54765625 0.75390625 10.5078125 C-0.89285817 10.41503704 -2.54013955 10.33151002 -4.1875 10.25 C-4.38162181 8.77168779 -4.56762131 7.29230684 -4.75 5.8125 C-4.85441406 4.98878906 -4.95882812 4.16507813 -5.06640625 3.31640625 C-5.10636719 2.63449219 -5.14632812 1.95257813 -5.1875 1.25 C-3.63056413 -0.30693587 -2.16884388 0.04245698 0 0 Z " fill="#F6C505" transform="translate(67.1875,211.75)"/>
<path d="M0 0 C1.85959883 5.05074347 3.71076398 10.10446745 5.55419922 15.16113281 C6.18242539 16.88072764 6.81294339 18.599487 7.44580078 20.31738281 C8.35533558 22.78754797 9.25657188 25.26060558 10.15625 27.734375 C10.44060913 28.50118591 10.72496826 29.26799683 11.01794434 30.05804443 C12.29839231 33.602414 13 36.18760599 13 40 C9.04 40.66 5.08 41.32 1 42 C-0.77287632 37.83419215 -2.54336445 33.66739623 -4.3125 29.5 C-4.81201172 28.32695312 -5.31152344 27.15390625 -5.82617188 25.9453125 C-13 9.03218129 -13 9.03218129 -13 5 C-11.21046815 4.16209211 -9.41830305 3.32980604 -7.625 2.5 C-6.62726563 2.0359375 -5.62953125 1.571875 -4.6015625 1.09375 C-2 0 -2 0 0 0 Z " fill="#F9E8B8" transform="translate(261,236)"/>
<path d="M0 0 C0.99 0.33 1.98 0.66 3 1 C2.52093528 7.09394133 1.15197553 11.57325261 -1.59765625 17 C-1.95137802 17.7211499 -2.30509979 18.4422998 -2.66954041 19.18530273 C-3.78959191 21.46246621 -4.92567483 23.73117182 -6.0625 26 C-6.82985485 27.55285278 -7.59614156 29.10623388 -8.36132812 30.66015625 C-10.22859664 34.44632187 -12.11027511 38.22499588 -14 42 C-18.95 42 -23.9 42 -29 42 C-27.35859093 38.71718185 -25.65147521 35.85505575 -23.62109375 32.81640625 C-22.95094238 31.8116626 -22.28079102 30.80691895 -21.59033203 29.77172852 C-20.87989746 28.71268311 -20.16946289 27.6536377 -19.4375 26.5625 C-18.71675293 25.48605225 -17.99600586 24.40960449 -17.25341797 23.30053711 C-15.17274837 20.19778009 -13.08750572 17.09816079 -11 14 C-10.47196777 13.21496094 -9.94393555 12.42992187 -9.39990234 11.62109375 C-8.14761802 9.76403054 -6.88878472 7.91174844 -5.625 6.0625 C-4.95726562 5.08410156 -4.28953125 4.10570312 -3.6015625 3.09765625 C-2 1 -2 1 0 0 Z " fill="#F6E6B6" transform="translate(205,279)"/>
<path d="M0 0 C27.72 0 55.44 0 84 0 C90 14 90 14 90 16 C57.99 16 25.98 16 -7 16 C-6 11 -6 11 0 0 Z M2 2 C1.16180842 3.62249941 0.3295884 5.24808497 -0.5 6.875 C-0.9640625 7.77992188 -1.428125 8.68484375 -1.90625 9.6171875 C-3.13905589 11.86596859 -3.13905589 11.86596859 -3 14 C26.37 14 55.74 14 86 14 C83.68702878 5.74549932 83.68702878 5.74549932 81 2 C78.42681081 1.71345313 76.09502901 1.62147113 73.52099609 1.65942383 C72.75017197 1.65898575 71.97934784 1.65854767 71.18516541 1.65809631 C68.63100063 1.6601905 66.07748795 1.68355059 63.5234375 1.70703125 C61.75510008 1.71262498 59.98675803 1.71689613 58.21841431 1.71989441 C53.55923678 1.73136079 48.90033886 1.76084325 44.24127197 1.79400635 C39.48901146 1.8246687 34.73670587 1.83839153 29.984375 1.85351562 C20.65612701 1.88571134 11.32808673 1.93692922 2 2 Z " fill="#0267B2" transform="translate(144,138)"/>
<path d="M0 0 C9.24 0 18.48 0 28 0 C28 1.65 28 3.3 28 5 C29.65 5 31.3 5 33 5 C33 6.65 33 8.3 33 10 C40.92 10 48.84 10 57 10 C57 10.33 57 10.66 57 11 C29.61 11 2.22 11 -26 11 C-26 10.67 -26 10.34 -26 10 C-18.74 10 -11.48 10 -4 10 C-4 8.35 -4 6.7 -4 5 C-2.68 5 -1.36 5 0 5 C0 3.35 0 1.7 0 0 Z " fill="#44858C" transform="translate(171,127)"/>
<path d="M0 0 C22.44 0 44.88 0 68 0 C68 0.99 68 1.98 68 3 C64.34403995 4.04257416 60.67682743 5.03365433 57 6 C56.22140625 6.21269531 55.4428125 6.42539063 54.640625 6.64453125 C42.88762066 9.46119953 31.17863262 8.54349389 19.58203125 5.66796875 C13.09694004 4.45864422 6.56925018 4.76964967 0 5 C0 3.35 0 1.7 0 0 Z " fill="#F4C604" transform="translate(59,193)"/>
<path d="M0 0 C2.07380645 0.65657192 4.05651247 1.43502562 6.06640625 2.265625 C8.6606131 3.25089952 11.25509144 3.65688643 14 4 C14 4.99 14 5.98 14 7 C13.01 7 12.02 7 11 7 C11.66 12.28 12.32 17.56 13 23 C11.68 22.67 10.36 22.34 9 22 C8.67 21.34 8.34 20.68 8 20 C6.329375 20.061875 6.329375 20.061875 4.625 20.125 C1 20 1 20 -1 18 C-1.36487512 15.15397406 -1.40199375 13.6135694 0.1875 11.1875 C2.55982525 9.63321794 4.22041345 9.77462812 7 10 C7 10.66 7 11.32 7 12 C5.68 12.33 4.36 12.66 3 13 C3 14.32 3 15.64 3 17 C4.65 17 6.3 17 8 17 C8 14.03 8 11.06 8 8 C7.32453125 8.144375 6.6490625 8.28875 5.953125 8.4375 C5.06109375 8.623125 4.1690625 8.80875 3.25 9 C1.92742187 9.2784375 1.92742187 9.2784375 0.578125 9.5625 C-2 10 -2 10 -6 10 C-5.855625 10.73605469 -5.71125 11.47210938 -5.5625 12.23046875 C-5.376875 13.20628906 -5.19125 14.18210938 -5 15.1875 C-4.814375 16.15042969 -4.62875 17.11335938 -4.4375 18.10546875 C-4.03122388 20.7934206 -3.92066428 23.28771019 -4 26 C-4.99 26 -5.98 26 -7 26 C-8.46670113 20.77487721 -9.22577402 16.4185766 -9 11 C-10.32 11 -11.64 11 -13 11 C-12.57576756 9.53775201 -12.13509755 8.08026588 -11.6875 6.625 C-11.44386719 5.81289062 -11.20023438 5.00078125 -10.94921875 4.1640625 C-8.75494706 -0.83851577 -4.78593038 -0.39228938 0 0 Z " fill="#343132" transform="translate(214,177)"/>
<path d="M0 0 C0.33 0 0.66 0 1 0 C1.05787784 3.62493334 1.0935542 7.24974857 1.125 10.875 C1.14175781 11.90753906 1.15851563 12.94007812 1.17578125 14.00390625 C1.18222656 14.99003906 1.18867188 15.97617188 1.1953125 16.9921875 C1.20578613 17.90339355 1.21625977 18.81459961 1.22705078 19.75341797 C1 22 1 22 -1 24 C-4.1243518 24.47188458 -7.28149939 24.37035541 -10.4375 24.375 C-11.74557617 24.41173828 -11.74557617 24.41173828 -13.08007812 24.44921875 C-19.46063909 24.47864486 -19.46063909 24.47864486 -22.08203125 22.15234375 C-24.15845058 17.2838031 -22.81078521 12.06740757 -22 7 C-20.02 6.34 -18.04 5.68 -16 5 C-16.268125 6.03125 -16.53625 7.0625 -16.8125 8.125 C-17.02632364 12.31261341 -17.02632364 12.31261341 -14.8125 15.4375 C-12.14133708 18.44899333 -12.14133708 18.44899333 -8 18 C-7.67 16.35 -7.34 14.7 -7 13 C-6.01 12.67 -5.02 12.34 -4 12 C-4.19471111 10.05000871 -4.19471111 10.05000871 -5 8 C-6.9837767 6.71563266 -6.9837767 6.71563266 -9 6 C-9 4.68 -9 3.36 -9 2 C-7.35 2 -5.7 2 -4 2 C-3.67 3.65 -3.34 5.3 -3 7 C-2.34 7 -1.68 7 -1 7 C-1.020625 6.030625 -1.04125 5.06125 -1.0625 4.0625 C-1 1 -1 1 0 0 Z " fill="#323133" transform="translate(196,86)"/>
<path d="M0 0 C0.83853516 -0.00386719 1.67707031 -0.00773437 2.54101562 -0.01171875 C3.8490918 0.00568359 3.8490918 0.00568359 5.18359375 0.0234375 C6.4974707 0.00603516 6.4974707 0.00603516 7.83789062 -0.01171875 C8.67513672 -0.00785156 9.51238281 -0.00398438 10.375 0 C11.52464233 0.00507568 11.52464233 0.00507568 12.69750977 0.01025391 C14.62109375 0.3984375 14.62109375 0.3984375 16.62109375 3.3984375 C15.74609375 7.0859375 15.74609375 7.0859375 14.62109375 10.3984375 C13.96109375 10.3984375 13.30109375 10.3984375 12.62109375 10.3984375 C12.29109375 8.7484375 11.96109375 7.0984375 11.62109375 5.3984375 C9.97109375 5.3984375 8.32109375 5.3984375 6.62109375 5.3984375 C6.74287063 7.31310117 6.74287063 7.31310117 7.62109375 9.3984375 C10.10042572 11.16992122 10.10042572 11.16992122 12.62109375 12.3984375 C12.30859375 14.3359375 12.30859375 14.3359375 11.62109375 16.3984375 C10.63109375 16.7284375 9.64109375 17.0584375 8.62109375 17.3984375 C7.88785579 19.41352108 7.88785579 19.41352108 7.62109375 21.3984375 C6.30109375 21.7284375 4.98109375 22.0584375 3.62109375 22.3984375 C1.42518831 20.18980218 -0.63128186 17.9823484 -2.37890625 15.3984375 C-2.31322648 12.44284795 -1.67847487 10.99757474 -0.37890625 8.3984375 C-1.36890625 9.0584375 -2.35890625 9.7184375 -3.37890625 10.3984375 C-5.56640625 10.0234375 -5.56640625 10.0234375 -7.37890625 9.3984375 C-7.74582496 3.89465688 -7.74582496 3.89465688 -6.14086914 1.72412109 C-3.94173533 0.06951439 -2.73202304 0.01204419 0 0 Z " fill="#343133" transform="translate(180.37890625,82.6015625)"/>
<path d="M0 0 C16.53828772 -0.84570789 39.24183972 2.50589707 52 14 C52 15.32 52 16.64 52 18 C48.01078748 16.72321664 44.20418769 15.25557059 40.375 13.5625 C29.28166445 8.89089658 18.01415673 7.06222242 6.0625 6.4375 C5.28326172 6.39431641 4.50402344 6.35113281 3.70117188 6.30664062 C1.80092883 6.20171923 -0.09951669 6.1004755 -2 6 C-1.34 4.02 -0.68 2.04 0 0 Z " fill="#9D9FA1" transform="translate(132,213)"/>
<path d="M0 0 C1.31484375 -0.02578125 2.6296875 -0.0515625 3.984375 -0.078125 C5.60085937 0.08429688 5.60085937 0.08429688 7.25 0.25 C9.25 3.25 9.25 3.25 9.25 6.25 C8.04085937 6.28738281 6.83171875 6.32476562 5.5859375 6.36328125 C-10.61863134 6.96825182 -25.37755633 9.45442774 -40 16.90625 C-42.75 18.25 -42.75 18.25 -44.75 18.25 C-44.75 16.93 -44.75 15.61 -44.75 14.25 C-30.35914505 6.09634369 -16.87644703 0.20011597 0 0 Z " fill="#9D9FA2" transform="translate(235.75,212.75)"/>
<path d="M0 0 C0.78375 0.04125 1.5675 0.0825 2.375 0.125 C3.08822057 9.06403119 1.91104812 16.27955339 -2.625 24.125 C-6.04594242 26.40562828 -7.30687222 26.34425007 -11.3125 26.25 C-12.80330078 26.22292969 -12.80330078 26.22292969 -14.32421875 26.1953125 C-15.08347656 26.17210937 -15.84273437 26.14890625 -16.625 26.125 C-15.96384213 22.88184668 -14.78496147 20.32342376 -13.19140625 17.4296875 C-12.70736328 16.54925781 -12.22332031 15.66882813 -11.72460938 14.76171875 C-11.21736328 13.85035156 -10.71011719 12.93898438 -10.1875 12 C-9.68412109 11.08089844 -9.18074219 10.16179687 -8.66210938 9.21484375 C-3.66402126 0.1744772 -3.66402126 0.1744772 0 0 Z " fill="#F8E7B7" transform="translate(211.625,293.875)"/>
<path d="M0 0 C2.60910717 2.09081951 3.43377145 3.7158744 4 7 C5.32 6.34 6.64 5.68 8 5 C6.41246461 10.02557215 3.39845719 13.66920365 0.1875 17.75 C-0.98492485 19.25478009 -2.15678252 20.76000223 -3.328125 22.265625 C-3.93205078 23.03970703 -4.53597656 23.81378906 -5.15820312 24.61132812 C-7.00498892 27.00647025 -8.81202265 29.42697122 -10.609375 31.859375 C-11.18840576 32.63700195 -11.76743652 33.41462891 -12.36401367 34.21582031 C-13.47858321 35.7147297 -14.58579383 37.21914511 -15.68481445 38.72949219 C-16.19230225 39.40657227 -16.69979004 40.08365234 -17.22265625 40.78125 C-17.66359619 41.38001953 -18.10453613 41.97878906 -18.55883789 42.59570312 C-20.29768403 44.2900692 -21.63449471 44.61296906 -24 45 C-22.42279751 40.08895033 -19.55399114 36.51768012 -16.4375 32.5 C-15.35528655 31.07534504 -14.2745758 29.64954743 -13.1953125 28.22265625 C-12.3894873 27.15942139 -12.3894873 27.15942139 -11.56738281 26.07470703 C-9.28327903 23.05129364 -7.02253008 20.01551081 -4.8125 16.9375 C-4.09707031 15.95652344 -3.38164062 14.97554688 -2.64453125 13.96484375 C-0.76133104 10.56971557 -0.24073141 7.85642274 0 4 C-1.13307539 2.67228145 -1.13307539 2.67228145 -4.0625 2.5 C-10.8684894 3.36425262 -14.41775907 8.22656003 -18.84765625 13.13671875 C-19.3384668 13.68038086 -19.82927734 14.22404297 -20.33496094 14.78417969 C-21.31071021 15.87601282 -22.27648782 16.97684991 -23.23144531 18.08691406 C-24.42803024 19.4461584 -25.70911524 20.7299696 -27 22 C-27.99 22 -28.98 22 -30 22 C-28.66000502 18.993182 -27.20154709 17.00237391 -24.8125 14.75 C-22.16533013 12.19638915 -19.74076573 9.56614126 -17.375 6.75 C-12.35885784 1.02360762 -7.74815562 -1.47998478 0 0 Z " fill="#312C2A" transform="translate(178,270)"/>
<path d="M0 0 C7.17808061 -0.2945413 13.81131169 -0.23200129 20.8125 1.5 C32.1611239 4.17475984 43.43295209 4.09673594 54.58203125 0.55859375 C57.1954321 -0.04514829 58.4980898 0.13912767 61 1 C61.7425 1.185625 62.485 1.37125 63.25 1.5625 C63.8275 1.706875 64.405 1.85125 65 2 C64.67 2.66 64.34 3.32 64 4 C61.88439701 4.27298103 59.76583514 4.53105985 57.640625 4.71484375 C54.9942327 5.0006228 52.47656395 5.50557838 49.875 6.0625 C39.03054702 8.05064971 28.85433688 7.19264442 18.16381836 5.07421875 C12.07547256 3.90151272 6.1984029 3.67753973 0 4 C0 2.68 0 1.36 0 0 Z " fill="#362E1D" transform="translate(61,197)"/>
<path d="M0 0 C12.66970387 1.92710706 12.66970387 1.92710706 18 4 C18 4.66 18 5.32 18 6 C16.35 6 14.7 6 13 6 C13 6.99 13 7.98 13 9 C7.25 9.125 7.25 9.125 5 8 C5.33 8.66 5.66 9.32 6 10 C8.3140622 10.73075648 10.64828869 11.40138258 13 12 C13.25 14.3125 13.25 14.3125 13 17 C11 18.8125 11 18.8125 9 20 C9.66 21.32 10.32 22.64 11 24 C8 24 8 24 6.3125 22.625 C5 21 5 21 5 19 C3.68 18.67 2.36 18.34 1 18 C0.67 16.68 0.34 15.36 0 14 C1.32 14 2.64 14 4 14 C4.66 14.66 5.32 15.32 6 16 C6.99 16 7.98 16 9 16 C9.33 15.34 9.66 14.68 10 14 C9.236875 14.0825 8.47375 14.165 7.6875 14.25 C5 14 5 14 3.1875 12.25 C2 10 2 10 2 6 C3.98 5.67 5.96 5.34 8 5 C5.36 4.34 2.72 3.68 0 3 C0 2.01 0 1.02 0 0 Z " fill="#353132" transform="translate(153,180)"/>
<path d="M0 0 C0.99 0 1.98 0 3 0 C3 1.98 3 3.96 3 6 C4.258125 6.0825 5.51625 6.165 6.8125 6.25 C9.64452231 6.6215774 10.77553683 6.82315023 13.0625 8.625 C14.47768737 12.21014134 14.09586349 14.32563419 13 18 C8.67313122 22.52811849 4.40390574 24.8520041 -1.875 25.125 C-2.926875 25.063125 -2.926875 25.063125 -4 25 C-4.33 24.01 -4.66 23.02 -5 22 C-4.16855469 21.76925781 -3.33710938 21.53851563 -2.48046875 21.30078125 C-0.85044922 20.81158203 -0.85044922 20.81158203 0.8125 20.3125 C1.89144531 19.99925781 2.97039063 19.68601563 4.08203125 19.36328125 C7.49264688 17.76983432 8.41660387 16.35013286 10 13 C9.34 12.34 8.68 11.68 8 11 C4.55757704 11.37417641 1.36261052 12.15934737 -2 13 C-1.34 8.71 -0.68 4.42 0 0 Z " fill="#221E1F" transform="translate(17,147)"/>
<path d="M0 0 C0 0.66 0 1.32 0 2 C-2.90600261 3.25664978 -4.79604584 4 -8 4 C-4.62864313 7.48373543 -3.26115933 8.89312209 1.6875 9.3125 C7.55715791 9.28386752 12.96964149 7.52751363 18.546875 5.875 C21.56326631 5.11066555 23.91851964 4.81181799 27 5 C27 5.33 27 5.66 27 6 C29.31 6.33 31.62 6.66 34 7 C34 7.33 34 7.66 34 8 C33.15179688 8.10957031 32.30359375 8.21914062 31.4296875 8.33203125 C23.92008886 9.34706491 16.6301866 10.65490237 9.25390625 12.4140625 C1.99320192 13.72151226 -2.91014314 12.99604091 -9 9 C-11.0625 7 -11.0625 7 -12 5 C-11.55859375 2.875 -11.55859375 2.875 -11 1 C-3.375 -1.125 -3.375 -1.125 0 0 Z " fill="#38332F" transform="translate(173,246)"/>
<path d="M0 0 C4.30289834 1.05181959 8.08855769 2.95114927 12 5 C11 6.9375 11 6.9375 9 9 C6.30075428 9.66549451 3.79368363 9.81680763 1 10 C1.144375 10.73605469 1.28875 11.47210938 1.4375 12.23046875 C1.623125 13.20628906 1.80875 14.18210938 2 15.1875 C2.185625 16.15042969 2.37125 17.11335938 2.5625 18.10546875 C2.96877612 20.7934206 3.07933572 23.28771019 3 26 C2.01 26 1.02 26 0 26 C-1.46670113 20.77487721 -2.22577402 16.4185766 -2 11 C-3.32 11 -4.64 11 -6 11 C-5.57576756 9.53775201 -5.13509755 8.08026588 -4.6875 6.625 C-4.44386719 5.81289062 -4.20023438 5.00078125 -3.94921875 4.1640625 C-3 2 -3 2 0 0 Z " fill="#373334" transform="translate(207,177)"/>
<path d="M0 0 C0.33 0.66 0.66 1.32 1 2 C1.99 1.34 2.98 0.68 4 0 C7.32240324 0.3241369 8.60776303 0.60776303 11 3 C11.1953125 5.1640625 11.1953125 5.1640625 11.125 7.625 C11.10695312 8.44226563 11.08890625 9.25953125 11.0703125 10.1015625 C11.04710937 10.72804688 11.02390625 11.35453125 11 12 C10.01 12.33 9.02 12.66 8 13 C8 9.7 8 6.4 8 3 C4.5441903 3.46112003 2.54099215 4.29662787 0.39599609 7.08544922 C-1.26329604 9.8282555 -2.80504217 12.6084353 -4.3125 15.4375 C-5.1178418 16.88866211 -5.1178418 16.88866211 -5.93945312 18.36914062 C-8.8011978 23.53625008 -8.8011978 23.53625008 -11 29 C-9.02 29 -7.04 29 -5 29 C-5 29.33 -5 29.66 -5 30 C-7.31 30 -9.62 30 -12 30 C-13.14746094 28.36401367 -13.14746094 28.36401367 -14 26 C-13.15722656 23.2668457 -13.15722656 23.2668457 -11.640625 20.17578125 C-10.83238281 18.50999023 -10.83238281 18.50999023 -10.0078125 16.81054688 C-9.13769531 15.07901367 -9.13769531 15.07901367 -8.25 13.3125 C-7.68539062 12.14654297 -7.12078125 10.98058594 -6.5390625 9.77929688 C-2.29640444 1.14820222 -2.29640444 1.14820222 0 0 Z " fill="#342F2C" transform="translate(206,291)"/>
<path d="M0 0 C0.66 0 1.32 0 2 0 C1.37891353 3.15111339 0.31817542 5.32372149 -1.4765625 7.9765625 C-1.97961914 8.72566895 -2.48267578 9.47477539 -3.00097656 10.24658203 C-3.80486816 11.42389893 -3.80486816 11.42389893 -4.625 12.625 C-5.16608398 13.42663574 -5.70716797 14.22827148 -6.26464844 15.05419922 C-10.11541659 20.74518801 -14.00865669 26.40649776 -18 32 C-19.32 31.67 -20.64 31.34 -22 31 C-19.89611319 27.43733466 -17.79184121 23.87489696 -15.6875 20.3125 C-15.09259766 19.30509766 -14.49769531 18.29769531 -13.88476562 17.25976562 C-13.30791016 16.28330078 -12.73105469 15.30683594 -12.13671875 14.30078125 C-11.60780029 13.40528564 -11.07888184 12.50979004 -10.53393555 11.5871582 C-10.02773682 10.733396 -9.52153809 9.87963379 -9 9 C-8.4944458 8.09016357 -7.9888916 7.18032715 -7.46801758 6.24291992 C-5.64866614 3.46321235 -4.07879536 3.0532721 -1 2 C-0.67 1.34 -0.34 0.68 0 0 Z " fill="#312C2A" transform="translate(196,286)"/>
<path d="M0 0 C0.061875 0.598125 0.12375 1.19625 0.1875 1.8125 C1.3236757 4.87143458 3.17330142 5.55041099 6 7 C5.6875 8.9375 5.6875 8.9375 5 11 C4.01 11.33 3.02 11.66 2 12 C1.26676204 14.01508358 1.26676204 14.01508358 1 16 C-0.32 16.33 -1.64 16.66 -3 17 C-8.92571938 11.03992862 -8.92571938 11.03992862 -9.1875 7.375 C-7.11542457 3.23084913 -4.82381003 0 0 0 Z " fill="#CFE3F1" transform="translate(187,88)"/>
<path d="M0 0 C11.88 0 23.76 0 36 0 C36 1.32 36 2.64 36 4 C24.12 4 12.24 4 0 4 C0 2.68 0 1.36 0 0 Z " fill="#0066B3" transform="translate(167,133)"/>
<path d="M0 0 C0.33 0 0.66 0 1 0 C1.10957031 0.67546875 1.21914062 1.3509375 1.33203125 2.046875 C1.49058594 2.93890625 1.64914063 3.8309375 1.8125 4.75 C1.96332031 5.63171875 2.11414063 6.5134375 2.26953125 7.421875 C3.09412428 10.33220332 3.80394551 11.9089742 6 14 C8.82322382 14.62663602 8.82322382 14.62663602 11.9375 14.625 C15.86223848 14.75144758 18.60501638 14.95482915 22 17 C22 18.32 22 19.64 22 21 C15.4 20.34 8.8 19.68 2 19 C-1.12636533 12.47141357 -2.66675846 8.63596737 -0.578125 1.6171875 C-0.29195312 0.81667969 -0.29195312 0.81667969 0 0 Z " fill="#F6D204" transform="translate(244,168)"/>
<path d="M0 0 C3.96 0 7.92 0 12 0 C12 0.66 12 1.32 12 2 C13.3303125 2.4021875 13.3303125 2.4021875 14.6875 2.8125 C17.7909666 3.9250635 20.31110685 5.10195778 23 7 C23 7.66 23 8.32 23 9 C17.06 9 11.12 9 5 9 C5 7.35 5 5.7 5 4 C3.35 4 1.7 4 0 4 C0 2.68 0 1.36 0 0 Z " fill="#FED91A" transform="translate(199,128)"/>
<path d="M0 0 C0 0.66 0 1.32 0 2 C1.32 2 2.64 2 4 2 C2.4169423 6.2742558 -0.50568404 8.26531794 -4 11 C-6.27246186 10.0453859 -8.5429472 9.08648542 -10.8125 8.125 C-11.45509766 7.85558594 -12.09769531 7.58617187 -12.75976562 7.30859375 C-15.71490408 6.05304269 -18.31915767 4.78722822 -21 3 C-18.25071558 2.49576443 -15.50068857 1.99646574 -12.75 1.5 C-11.97269531 1.35691406 -11.19539063 1.21382812 -10.39453125 1.06640625 C-9.64042969 0.93105469 -8.88632813 0.79570312 -8.109375 0.65625 C-7.07248535 0.46772461 -7.07248535 0.46772461 -6.01464844 0.27539062 C-4 0 -4 0 0 0 Z " fill="#EFC502" transform="translate(121,225)"/>
<path d="M0 0 C8.58 0.66 17.16 1.32 26 2 C21.79885555 6.20114445 14.16961074 7.69008251 8.36328125 8.2578125 C6.57346806 8.25138588 4.78434496 8.13994862 3 8 C0 2.25 0 2.25 0 0 Z " fill="#F4C901" transform="translate(252,217)"/>
<path d="M0 0 C0.66 0.66 1.32 1.32 2 2 C-0.66605949 2.79375862 -3.33281167 3.58505071 -6 4.375 C-6.74378906 4.59671875 -7.48757813 4.8184375 -8.25390625 5.046875 C-10.49909513 5.71066997 -12.74911499 6.35582572 -15 7 C-15.65291016 7.19996582 -16.30582031 7.39993164 -16.97851562 7.60595703 C-22.50892813 9.18467408 -27.77655935 9.23314641 -33.5 9.125 C-34.4178125 9.11597656 -35.335625 9.10695312 -36.28125 9.09765625 C-38.52111556 9.07432432 -40.76041183 9.04159235 -43 9 C-43 8.67 -43 8.34 -43 8 C-42.351521 7.90501221 -41.70304199 7.81002441 -41.03491211 7.7121582 C-29.26593684 5.95645007 -17.94980529 4.18479863 -6.828125 -0.14453125 C-3.93481038 -1.01971896 -2.73258523 -1.20012189 0 0 Z " fill="#38311D" transform="translate(302,183)"/>
<path d="M0 0 C8.91 0 17.82 0 27 0 C27 1.32 27 2.64 27 4 C18.09 4 9.18 4 0 4 C0 2.68 0 1.36 0 0 Z " fill="#0066B3" transform="translate(172,128)"/>
<path d="M0 0 C2.74229933 2.74229933 3.59605881 5.97561227 4.85546875 9.5625 C5.12136307 10.30959229 5.38725739 11.05668457 5.66120911 11.82641602 C6.22129265 13.40571328 6.77840371 14.98606739 7.33276367 16.56738281 C8.18533493 18.99383811 9.05201009 21.41493336 9.91992188 23.8359375 C10.46179951 25.36948735 11.00284375 26.90333199 11.54296875 28.4375 C11.80434128 29.16461182 12.06571381 29.89172363 12.33500671 30.64086914 C12.94813558 32.40813769 13.48172028 34.20262657 14 36 C13 38 13 38 11 39 C10.77860352 38.33057373 10.55720703 37.66114746 10.32910156 36.97143555 C9.3043894 33.87623968 8.27720662 30.78186888 7.25 27.6875 C6.90195312 26.63498047 6.55390625 25.58246094 6.1953125 24.49804688 C5.67324219 22.92700195 5.67324219 22.92700195 5.140625 21.32421875 C4.79193359 20.27411621 4.44324219 19.22401367 4.08398438 18.14208984 C2.71245522 14.1665087 1.19160777 10.25453997 -0.37207031 6.35083008 C-1.05750616 3.78470964 -0.8836043 2.47059474 0 0 Z " fill="#3B3631" transform="translate(263,237)"/>
<path d="M0 0 C4.62 0 9.24 0 14 0 C14 2.31 14 4.62 14 7 C9.38 7 4.76 7 0 7 C0 4.69 0 2.38 0 0 Z " fill="#E3BB04" transform="translate(109,149)"/>
<path d="M0 0 C4.29 0 8.58 0 13 0 C13 2.31 13 4.62 13 7 C8.71 7 4.42 7 0 7 C0 4.69 0 2.38 0 0 Z " fill="#EFBF05" transform="translate(84,149)"/>
<path d="M0 0 C0.33 0.66 0.66 1.32 1 2 C1.66 2 2.32 2 3 2 C0 13 -3 24 -6 35 C-6.99 35 -7.98 35 -9 35 C-8.31849198 28.3647622 -6.41526887 22.18519181 -4.5 15.8125 C-3.86400193 13.67334986 -3.22856201 11.53403367 -2.59375 9.39453125 C-2.31208984 8.45456299 -2.03042969 7.51459473 -1.74023438 6.54614258 C-1.10843381 4.37297368 -0.52970653 2.19989707 0 0 Z " fill="#302B29" transform="translate(135,249)"/>
<path d="M0 0 C1.62537454 3.25074909 0.09915582 6.43959677 -0.765625 9.81640625 C-0.95968933 10.58806625 -1.15375366 11.35972626 -1.35369873 12.1547699 C-1.7670749 13.78731266 -2.18427634 15.41889082 -2.60498047 17.04956055 C-3.24740139 19.55237603 -3.8683647 22.05988848 -4.48828125 24.56835938 C-4.89192697 26.15137428 -5.29683275 27.73406853 -5.703125 29.31640625 C-5.88764221 30.07055313 -6.07215942 30.82470001 -6.26226807 31.60169983 C-6.81738281 33.70532227 -6.81738281 33.70532227 -8 37 C-9.485 37.495 -9.485 37.495 -11 38 C-10.75765625 36.90945313 -10.5153125 35.81890625 -10.265625 34.6953125 C-10.10570068 33.97472656 -9.94577637 33.25414062 -9.78100586 32.51171875 C-9.42402655 30.90719932 -9.06543886 29.30303697 -8.70532227 27.69921875 C-7.74889675 23.42882253 -6.8202809 19.15587312 -5.94921875 14.8671875 C-5.77938477 14.0510498 -5.60955078 13.23491211 -5.43457031 12.39404297 C-5.10766329 10.81955856 -4.7903202 9.24305273 -4.48339844 7.66455078 C-3.33729722 2.22486481 -3.33729722 2.22486481 0 0 Z " fill="#2E2A28" transform="translate(122,242)"/>
<path d="M0 0 C2.01428911 3.02143366 3.24388769 5.83660557 4.6015625 9.19921875 C5.09140625 10.40771484 5.58125 11.61621094 6.0859375 12.86132812 C6.59903089 14.13668956 7.11205079 15.41208057 7.625 16.6875 C8.14552603 17.97473368 8.66635594 19.26184453 9.1875 20.54882812 C10.46133116 23.69802183 11.7320334 26.84844149 13 30 C12.01 30.66 11.02 31.32 10 32 C8.39829165 28.2532759 6.8140357 24.49969267 5.24536133 20.73901367 C4.70970818 19.46163713 4.16938772 18.18620709 3.62426758 16.9128418 C2.84002199 15.07863818 2.07408209 13.2366419 1.30859375 11.39453125 C0.84251709 10.28956299 0.37644043 9.18459473 -0.10375977 8.04614258 C-1.04861535 4.83476609 -0.969567 3.16073697 0 0 Z " fill="#35302D" transform="translate(248,244)"/>
<path d="M0 0 C0.33 0 0.66 0 1 0 C1 6.6 1 13.2 1 20 C0.34 20 -0.32 20 -1 20 C-1 18.02 -1 16.04 -1 14 C-1.99 13.67 -2.98 13.34 -4 13 C-4.0825 12.21625 -4.165 11.4325 -4.25 10.625 C-4.72806339 7.85250896 -4.72806339 7.85250896 -7.0625 6.6875 C-7.701875 6.460625 -8.34125 6.23375 -9 6 C-9 4.68 -9 3.36 -9 2 C-7.35 2 -5.7 2 -4 2 C-3.67 3.65 -3.34 5.3 -3 7 C-2.34 7 -1.68 7 -1 7 C-1.020625 6.030625 -1.04125 5.06125 -1.0625 4.0625 C-1 1 -1 1 0 0 Z " fill="#2A2829" transform="translate(196,86)"/>
<path d="M0 0 C2.31 0 4.62 0 7 0 C7.25 2.3125 7.25 2.3125 7 5 C5 6.8125 5 6.8125 3 8 C3.66 9.32 4.32 10.64 5 12 C2 12 2 12 0.3125 10.625 C-1 9 -1 9 -1 7 C-2.32 6.67 -3.64 6.34 -5 6 C-5.33 4.68 -5.66 3.36 -6 2 C-4.68 2 -3.36 2 -2 2 C-1.34 2.66 -0.68 3.32 0 4 C2.08333333 3.83333333 2.08333333 3.83333333 4 3 C4.33 2.34 4.66 1.68 5 1 C3.35 1 1.7 1 0 1 C0 0.67 0 0.34 0 0 Z " fill="#332F30" transform="translate(159,192)"/>
<path d="M0 0 C0 0.99 0 1.98 0 3 C-1.32 3 -2.64 3 -4 3 C-4 4.65 -4 6.3 -4 8 C-8.62 8 -13.24 8 -18 8 C-12.30769231 3.44615385 -12.30769231 3.44615385 -8.4375 1.75 C-7.69371094 1.41484375 -6.94992188 1.0796875 -6.18359375 0.734375 C-4 0 -4 0 0 0 Z " fill="#FBD820" transform="translate(171,129)"/>
<path d="M0 0 C0.99 0.33 1.98 0.66 3 1 C1.02079395 3.35365044 -0.97857965 5.68266831 -3 8 C-3.4340918 8.49806152 -3.86818359 8.99612305 -4.31542969 9.50927734 C-5.76324416 11.16073718 -7.2238881 12.80003432 -8.6875 14.4375 C-9.16292236 14.98180664 -9.63834473 15.52611328 -10.12817383 16.08691406 C-11.35705393 17.44958965 -12.67367389 18.73197394 -14 20 C-14.99 20 -15.98 20 -17 20 C-15.66000502 16.993182 -14.20154709 15.00237391 -11.8125 12.75 C-8.47591933 9.51834325 -5.41258922 6.12045116 -2.3828125 2.6015625 C-1.61429517 1.71147181 -0.83152881 0.83152881 0 0 Z " fill="#39342F" transform="translate(165,272)"/>
<path d="M0 0 C0.33 0 0.66 0 1 0 C1.12117187 0.67546875 1.24234375 1.3509375 1.3671875 2.046875 C1.53476563 2.93890625 1.70234375 3.8309375 1.875 4.75 C2.03742188 5.63171875 2.19984375 6.5134375 2.3671875 7.421875 C2.89930097 10.00013367 2.89930097 10.00013367 4.09375 12.1875 C5 14 5 14 4.625 16.25 C4.41875 16.8275 4.2125 17.405 4 18 C4.99 18.33 5.98 18.66 7 19 C5.35 19 3.7 19 2 19 C-1.16697803 12.73147737 -2.61749417 8.47041647 -0.578125 1.6171875 C-0.29195312 0.81667969 -0.29195312 0.81667969 0 0 Z " fill="#EECF1F" transform="translate(244,168)"/>
<path d="M0 0 C7.59570439 -0.58179863 13.14115041 0.73110147 20 4 C20 4.99 20 5.98 20 7 C19.40574219 6.80664062 18.81148437 6.61328125 18.19921875 6.4140625 C11.86027437 4.42266784 5.55635914 3.05948769 -1 2 C-0.67 1.34 -0.34 0.68 0 0 Z " fill="#2F2A28" transform="translate(200,251)"/>
<path d="M0 0 C2.31 1.98 4.62 3.96 7 6 C6 8 6 8 3.6875 9.1875 C1 10 1 10 -3 9 C-2.01 6.03 -1.02 3.06 0 0 Z " fill="#F2E1B2" transform="translate(215,307)"/>
<path d="M0 0 C0 0.33 0 0.66 0 1 C2.31 1.33 4.62 1.66 7 2 C7 2.33 7 2.66 7 3 C5.58847656 3.19916016 5.58847656 3.19916016 4.1484375 3.40234375 C2.90320313 3.57894531 1.65796875 3.75554687 0.375 3.9375 C-0.85476562 4.11152344 -2.08453125 4.28554687 -3.3515625 4.46484375 C-6.57556184 4.93774301 -9.78812176 5.45151002 -13 6 C-12.67 4.68 -12.34 3.36 -12 2 C-7.8803623 0.70756464 -4.33168317 -0.26252625 0 0 Z " fill="#464039" transform="translate(200,251)"/>
<path d="M0 0 C0.66 0.66 1.32 1.32 2 2 C-0.24623699 2.69969682 -2.49716414 3.38435043 -4.75 4.0625 C-6.00296875 4.44535156 -7.2559375 4.82820312 -8.546875 5.22265625 C-11.6738008 5.92656828 -13.09466046 6.16653785 -16 5 C-14.54987453 2.09974906 -12.68687091 1.91293145 -9.6875 0.8125 C-8.72199219 0.44769531 -7.75648438 0.08289063 -6.76171875 -0.29296875 C-3.92839498 -1.0183317 -2.66515877 -1.11195366 0 0 Z " fill="#362E1D" transform="translate(302,197)"/>
<path d="M0 0 C-1.04494564 3.25094199 -2.59135491 4.56873286 -5.4375 6.25 C-9 8 -9 8 -12 8 C-9.82021749 2.45146271 -6.05820197 -0.69236594 0 0 Z " fill="#166EA3" transform="translate(118,91)"/>
<path d="M0 0 C0.33 0.66 0.66 1.32 1 2 C-1.26999825 2.50377768 -3.54103003 3.00290019 -5.8125 3.5 C-7.70935547 3.91765625 -7.70935547 3.91765625 -9.64453125 4.34375 C-13 5 -13 5 -16 5 C-15.67 4.01 -15.34 3.02 -15 2 C-12.63671875 1.015625 -12.63671875 1.015625 -9.6875 0.25 C-8.72199219 -0.01296875 -7.75648437 -0.2759375 -6.76171875 -0.546875 C-4.04481725 -0.99264668 -2.52803134 -1.04129437 0 0 Z " fill="#2F281E" transform="translate(121,223)"/>
<path d="M0 0 C3.22290201 0.0289309 5.44294723 0.35779815 8.1875 2.1875 C8.1875 2.5175 8.1875 2.8475 8.1875 3.1875 C4.2275 3.8475 0.2675 4.5075 -3.8125 5.1875 C-4.1425 3.8675 -4.4725 2.5475 -4.8125 1.1875 C-3.8125 0.1875 -3.8125 0.1875 0 0 Z " fill="#F1F1F1" transform="translate(210.8125,179.8125)"/>
<path d="M0 0 C1.93938819 2.90908228 2.96774957 5.40862379 4.125 8.6875 C4.47820312 9.68136719 4.83140625 10.67523438 5.1953125 11.69921875 C5.46085938 12.45847656 5.72640625 13.21773438 6 14 C5.01 14.33 4.02 14.66 3 15 C2.29634398 13.4447088 1.61270622 11.88035173 0.9375 10.3125 C0.55464844 9.44238281 0.17179688 8.57226562 -0.22265625 7.67578125 C-1.0935848 4.67786136 -0.85006226 2.96719847 0 0 Z " fill="#3F3A34" transform="translate(248,244)"/>
<path d="M0 0 C0.33 0 0.66 0 1 0 C1 2.97 1 5.94 1 9 C-0.65 9.33 -2.3 9.66 -4 10 C-4.33 8.35 -4.66 6.7 -5 5 C-3.35 4.67 -1.7 4.34 0 4 C0 2.68 0 1.36 0 0 Z " fill="#DCDBDB" transform="translate(221,185)"/>
<path d="M0 0 C1.43343546 2.86687092 0.56303792 4.50563683 -0.25 7.5625 C-0.62898438 9.04943359 -0.62898438 9.04943359 -1.015625 10.56640625 C-1.34046875 11.36949219 -1.6653125 12.17257813 -2 13 C-2.99 13.33 -3.98 13.66 -5 14 C-3.86124402 4.23923445 -3.86124402 4.23923445 -3 2 C-2.01 1.34 -1.02 0.68 0 0 Z " fill="#403A35" transform="translate(122,242)"/>
<path d="M0 0 C2.64 0 5.28 0 8 0 C7.48566406 0.25394531 6.97132813 0.50789062 6.44140625 0.76953125 C4.50163693 1.74717499 2.5746198 2.75011257 0.65234375 3.76171875 C-0.58581851 4.40387532 -1.82410274 5.04579675 -3.0625 5.6875 C-3.99932617 6.18733398 -3.99932617 6.18733398 -4.95507812 6.69726562 C-6.59959187 7.54146105 -8.29815731 8.27831944 -10 9 C-10.99 8.67 -11.98 8.34 -13 8 C-11.21118264 6.99491199 -9.41885304 5.99607264 -7.625 5 C-6.62726563 4.443125 -5.62953125 3.88625 -4.6015625 3.3125 C-2 2 -2 2 0 2 C0 1.34 0 0.68 0 0 Z " fill="#FFD80C" transform="translate(163,128)"/>
<path d="M0 0 C3.1875 0.875 3.1875 0.875 6 2 C6 2.33 6 2.66 6 3 C4.02 3.33 2.04 3.66 0 4 C0 5.32 0 6.64 0 8 C-1.65 8.33 -3.3 8.66 -5 9 C-3.375 2.25 -3.375 2.25 0 0 Z " fill="#4E4B4C" transform="translate(207,177)"/>
<path d="M0 0 C2.31 1.98 4.62 3.96 7 6 C6.34 6.66 5.68 7.32 5 8 C2.375 7.625 2.375 7.625 0 7 C0 4.69 0 2.38 0 0 Z " fill="#B9D2E3" transform="translate(176,100)"/>
<path d="M0 0 C0.99 0.33 1.98 0.66 3 1 C2.09515208 2.15518918 1.1755794 3.29885406 0.25 4.4375 C-0.26046875 5.07558594 -0.7709375 5.71367187 -1.296875 6.37109375 C-3.19667629 8.18810554 -4.43586908 8.60423197 -7 9 C-5.44499019 5.18315774 -2.96404505 2.80804268 0 0 Z " fill="#423C36" transform="translate(165,272)"/>
<path d="M0 0 C0 0.66 0 1.32 0 2 C-1.32 2.33 -2.64 2.66 -4 3 C-4 4.98 -4 6.96 -4 9 C-5.32 8.67 -6.64 8.34 -8 8 C-8.36075949 3.55063291 -8.36075949 3.55063291 -6.8125 1.1875 C-4.44017475 -0.36678206 -2.77958655 -0.22537188 0 0 Z " fill="#2B2829" transform="translate(221,187)"/>
<path d="M0 0 C0.66 0.33 1.32 0.66 2 1 C1.54917531 2.46067199 1.08906463 3.91848032 0.625 5.375 C0.36976563 6.18710938 0.11453125 6.99921875 -0.1484375 7.8359375 C-1 10 -1 10 -3 12 C-3.99 12.33 -4.98 12.66 -6 13 C-4.31326082 8.50202887 -2.18326108 4.27113698 0 0 Z " fill="#1571AE" transform="translate(144,138)"/>
<path d="M0 0 C1.65 0 3.3 0 5 0 C5.12375 0.804375 5.2475 1.60875 5.375 2.4375 C5.684375 3.7059375 5.684375 3.7059375 6 5 C6.66 5.33 7.32 5.66 8 6 C5 7 5 7 2.3125 5.8125 C1.549375 5.214375 0.78625 4.61625 0 4 C0 2.68 0 1.36 0 0 Z " fill="#312F31" transform="translate(187,88)"/>
<path d="M0 0 C1.2065625 0.0309375 1.2065625 0.0309375 2.4375 0.0625 C2.7675 0.7225 3.0975 1.3825 3.4375 2.0625 C-1.3125 6.9375 -1.3125 6.9375 -3.5625 8.0625 C-3.60491723 5.72955225 -3.60342937 3.39547433 -3.5625 1.0625 C-2.5625 0.0625 -2.5625 0.0625 0 0 Z " fill="#D5E2EB" transform="translate(179.5625,84.9375)"/>
<path d="M0 0 C2.0625 2 2.0625 2 3 4 C2.44828125 3.83628906 1.8965625 3.67257812 1.328125 3.50390625 C-1.26614007 2.94239586 -3.59835411 2.90260992 -6.25 2.9375 C-7.58804688 2.95103516 -7.58804688 2.95103516 -8.953125 2.96484375 C-9.62859375 2.97644531 -10.3040625 2.98804688 -11 3 C-11 2.34 -11 1.68 -11 1 C-7.56860227 -0.71569886 -3.75235827 -0.52917873 0 0 Z " fill="#2B2625" transform="translate(178,270)"/>
<path d="M0 0 C2.31 0 4.62 0 7 0 C7.1875 2.375 7.1875 2.375 7 5 C4 7 4 7 1.3125 6.625 C0.549375 6.41875 -0.21375 6.2125 -1 6 C-0.67 5.34 -0.34 4.68 0 4 C1.33333333 3.66666667 2.66666667 3.33333333 4 3 C4.33 2.34 4.66 1.68 5 1 C3.35 1 1.7 1 0 1 C0 0.67 0 0.34 0 0 Z " fill="#2D292A" transform="translate(159,192)"/>
<path d="M0 0 C2.375 -0.125 2.375 -0.125 5 0 C7 2 7 2 7.125 5.125 C7.08375 6.07375 7.0425 7.0225 7 8 C6.34 8 5.68 8 5 8 C4.67 6.35 4.34 4.7 4 3 C2.68 2.67 1.36 2.34 0 2 C0 1.34 0 0.68 0 0 Z " fill="#CAD6DE" transform="translate(188,85)"/>
<path d="M0 0 C4.71403788 0.47939368 8.66579301 0.96834048 13 3 C10.49923002 4.62433191 9.41017471 5.07333427 6.421875 4.5390625 C5.54015625 4.23742187 4.6584375 3.93578125 3.75 3.625 C2.85796875 3.32851562 1.9659375 3.03203125 1.046875 2.7265625 C0.37140625 2.48679688 -0.3040625 2.24703125 -1 2 C-0.67 1.34 -0.34 0.68 0 0 Z " fill="#312D2E" transform="translate(209,177)"/>
<path d="M0 0 C0.66 0 1.32 0 2 0 C2.125 2.875 2.125 2.875 2 6 C1.34 6.66 0.68 7.32 0 8 C-2.625 7.625 -2.625 7.625 -5 7 C-4.0409375 6.1028125 -4.0409375 6.1028125 -3.0625 5.1875 C-0.79689611 3.09189663 -0.79689611 3.09189663 0 0 Z " fill="#B7D0E1" transform="translate(193,100)"/>
<path d="M0 0 C0.99 0 1.98 0 3 0 C3 2.97 3 5.94 3 9 C2.01 9.33 1.02 9.66 0 10 C0 6.7 0 3.4 0 0 Z " fill="#453F38" transform="translate(214,294)"/>
<path d="M0 0 C0.33 0 0.66 0 1 0 C0.39174965 4.34464536 -0.26167392 8.67551867 -1 13 C-2.32 12.67 -3.64 12.34 -5 12 C-4.40138258 9.64828869 -3.73075648 7.3140622 -3 5 C-2.34 4.67 -1.68 4.34 -1 4 C-0.34786708 1.97536745 -0.34786708 1.97536745 0 0 Z " fill="#4C463D" transform="translate(210,280)"/>
<path d="M0 0 C0.33 0 0.66 0 1 0 C1.33 3.3 1.66 6.6 2 10 C1.01 10 0.02 10 -1 10 C-1.33 7.69 -1.66 5.38 -2 3 C-1.34 3 -0.68 3 0 3 C0 2.01 0 1.02 0 0 Z " fill="#464344" transform="translate(208,193)"/>
<path d="M0 0 C5.94 0.99 5.94 0.99 12 2 C11.01 3.485 11.01 3.485 10 5 C6.7 4.34 3.4 3.68 0 3 C0 2.01 0 1.02 0 0 Z " fill="#4B4748" transform="translate(153,180)"/>
<path d="M0 0 C-1.450954 3.82524236 -3.38181932 5.19090966 -7 7 C-7.66 7 -8.32 7 -9 7 C-7.4576387 2.93377477 -4.5679954 0 0 0 Z " fill="#1C719F" transform="translate(123,94)"/>
<path d="M0 0 C2.45823172 3.68734758 3.01242616 6.69699971 4 11 C3.01 11.33 2.02 11.66 1 12 C0.63762737 10.37681021 0.28534843 8.7513642 -0.0625 7.125 C-0.25972656 6.22007812 -0.45695312 5.31515625 -0.66015625 4.3828125 C-1 2 -1 2 0 0 Z " fill="#433D36" transform="translate(273,264)"/>
<path d="M0 0 C-0.33 2.64 -0.66 5.28 -1 8 C-2.32 7.67 -3.64 7.34 -5 7 C-5.33 5.35 -5.66 3.7 -6 2 C-2.25 0 -2.25 0 0 0 Z " fill="#2E2B2D" transform="translate(180,91)"/>
<path d="M0 0 C0.66 0 1.32 0 2 0 C1.25 7.625 1.25 7.625 -1 11 C-1.66 11 -2.32 11 -3 11 C-2.01 7.37 -1.02 3.74 0 0 Z " fill="#352F2C" transform="translate(197,273)"/>
<path d="M0 0 C0.66 0.33 1.32 0.66 2 1 C0.92598892 3.91517292 0.22189824 5.77810176 -2 8 C-2.66 7.67 -3.32 7.34 -4 7 C-3.39816251 4.97954558 -2.72693904 2.97888961 -2 1 C-1.34 0.67 -0.68 0.34 0 0 Z " fill="#514A41" transform="translate(195,283)"/>
<path d="M0 0 C0.33 0.66 0.66 1.32 1 2 C1.66 2 2.32 2 3 2 C2.34 4.97 1.68 7.94 1 11 C0.67 10.34 0.34 9.68 0 9 C-0.66 9 -1.32 9 -2 9 C-1.34 6.03 -0.68 3.06 0 0 Z " fill="#514A40" transform="translate(135,249)"/>
<path d="M0 0 C0.33 0 0.66 0 1 0 C1 2.97 1 5.94 1 9 C0.01 8.67 -0.98 8.34 -2 8 C-2.125 5.125 -2.125 5.125 -2 2 C-1.34 1.34 -0.68 0.68 0 0 Z " fill="#454547" transform="translate(175,84)"/>
<path d="M0 0 C1.67542976 0.28604898 3.34385343 0.61781233 5 1 C5 2.98 5 4.96 5 7 C4.01 7.495 4.01 7.495 3 8 C2.896875 7.21625 2.79375 6.4325 2.6875 5.625 C2.22404978 2.66954819 2.22404978 2.66954819 -1 1 C-0.67 0.67 -0.34 0.34 0 0 Z " fill="#322D2B" transform="translate(205,277)"/>
<path d="M0 0 C1.60031344 3.20062687 0.03173691 5.72271806 -1 9 C-1.99 9 -2.98 9 -4 9 C-3.6875 5.625 -3.6875 5.625 -3 2 C-2.01 1.34 -1.02 0.68 0 0 Z " fill="#4B443C" transform="translate(130,275)"/>
<path d="M0 0 C2 0.6875 2 0.6875 4 2.6875 C1.03 3.3475 -1.94 4.0075 -5 4.6875 C-4.67 3.3675 -4.34 2.0475 -4 0.6875 C-2 -0.3125 -2 -0.3125 0 0 Z " fill="#3B311D" transform="translate(300,182.3125)"/>
<path d="M0 0 C1.2077558 3.62326739 0.54311128 4.64146369 -1 8 C-1.99 8 -2.98 8 -4 8 C-3.40138258 5.64828869 -2.73075648 3.3140622 -2 1 C-1.34 0.67 -0.68 0.34 0 0 Z " fill="#3E3833" transform="translate(214,307)"/>
<path d="M0 0 C0.99 0.33 1.98 0.66 3 1 C4.1875 4.0625 4.1875 4.0625 5 7 C4.01 7.33 3.02 7.66 2 8 C0.74335022 5.09399739 0 3.20395416 0 0 Z " fill="#3D3832" transform="translate(256,268)"/>
<path d="M0 0 C1.875 0.25 1.875 0.25 4 1 C5.25 3.0625 5.25 3.0625 6 5 C3 5 3 5 1.3125 3.625 C0 2 0 2 0 0 Z " fill="#383536" transform="translate(158,199)"/>
<path d="M0 0 C2.66666667 0.66666667 5.33333333 1.33333333 8 2 C7.67 2.66 7.34 3.32 7 4 C4.36 4 1.72 4 -1 4 C-0.67 2.68 -0.34 1.36 0 0 Z " fill="#4C411A" transform="translate(118,197)"/>
<path d="M0 0 C-0.66 1.32 -1.32 2.64 -2 4 C-4.02045442 3.39816251 -6.02111039 2.72693904 -8 2 C-8.33 1.34 -8.66 0.68 -9 0 C-5.93109813 -1.53445094 -3.29905734 -0.54984289 0 0 Z " fill="#484546" transform="translate(165,191)"/>
<path d="M0 0 C1.98 0 3.96 0 6 0 C5.67 0.66 5.34 1.32 5 2 C4.34 2 3.68 2 3 2 C3 2.99 3 3.98 3 5 C2.01 4.67 1.02 4.34 0 4 C0 2.68 0 1.36 0 0 Z " fill="#2A2627" transform="translate(155,186)"/>
<path d="M0 0 C1.65 0 3.3 0 5 0 C5 0.99 5 1.98 5 3 C4.01 3 3.02 3 2 3 C1.67 4.32 1.34 5.64 1 7 C0.67 4.69 0.34 2.38 0 0 Z " fill="#5A5758" transform="translate(223,181)"/>
<path d="M0 0 C0.66 0 1.32 0 2 0 C1.67 2.31 1.34 4.62 1 7 C0.01 7 -0.98 7 -2 7 C-1.34 4.69 -0.68 2.38 0 0 Z " fill="#3A3430" transform="translate(133,258)"/>
<path d="M0 0 C0.66 0.33 1.32 0.66 2 1 C1.01 2.98 0.02 4.96 -1 7 C-1.99 7 -2.98 7 -4 7 C-2.68 4.69 -1.36 2.38 0 0 Z " fill="#FDD710" transform="translate(136,150)"/>
<path d="M0 0 C2.97 0.99 5.94 1.98 9 3 C9 3.33 9 3.66 9 4 C6.69 4 4.38 4 2 4 C1.34 2.68 0.68 1.36 0 0 Z " fill="#2A282A" transform="translate(174,106)"/>
<path d="M0 0 C0.99 0 1.98 0 3 0 C3 1.98 3 3.96 3 6 C2.01 6 1.02 6 0 6 C0 4.02 0 2.04 0 0 Z " fill="#47494E" transform="translate(173,100)"/>
<path d="M0 0 C0.33 0.66 0.66 1.32 1 2 C1.66 2.33 2.32 2.66 3 3 C2.6875 4.9375 2.6875 4.9375 2 7 C1.01 7.33 0.02 7.66 -1 8 C-0.67 5.36 -0.34 2.72 0 0 Z " fill="#4B443C" transform="translate(118,248)"/>
<path d="M0 0 C2.31 0.66 4.62 1.32 7 2 C6.67 2.99 6.34 3.98 6 5 C4.125 4.75 4.125 4.75 2 4 C0.75 1.9375 0.75 1.9375 0 0 Z " fill="#E8E8E8" transform="translate(156,192)"/>
</svg>
