<?xml version="1.0" encoding="UTF-8"?>
<svg version="1.1" xmlns="http://www.w3.org/2000/svg" width="200" height="200">
<path d="M0 0 C66 0 132 0 200 0 C200 66 200 132 200 200 C134 200 68 200 0 200 C0 134 0 68 0 0 Z " fill="#FDFEFE" transform="translate(0,0)"/>
<path d="M0 0 C0 1.65 0 3.3 0 5 C-0.99 5.33 -1.98 5.66 -3 6 C-2.505 9.465 -2.505 9.465 -2 13 C-0.35 13.33 1.3 13.66 3 14 C3 14.99 3 15.98 3 17 C1.02 17 -0.96 17 -3 17 C-3 16.34 -3 15.68 -3 15 C-4.32 15.33 -5.64 15.66 -7 16 C-4.80750787 20.17162093 -2.31399375 22.65678574 1.375 25.5625 C2.31085938 26.30628906 3.24671875 27.05007812 4.2109375 27.81640625 C6.07824613 29.27834676 7.95871079 30.72362965 9.8515625 32.15234375 C10.91503906 33.06693359 10.91503906 33.06693359 12 34 C12 34.66 12 35.32 12 36 C-3.345 36.495 -3.345 36.495 -19 37 C-19.495 37.99 -19.495 37.99 -20 39 C-21.485 39.495 -21.485 39.495 -23 40 C-23 40.66 -23 41.32 -23 42 C-11.78 42.33 -0.56 42.66 11 43 C9.87471919 50.87696568 9.87471919 50.87696568 8.29296875 53.9375 C7.95330078 54.60523438 7.61363281 55.27296875 7.26367188 55.9609375 C6.7309668 56.97027344 6.7309668 56.97027344 6.1875 58 C5.84396484 58.67289063 5.50042969 59.34578125 5.14648438 60.0390625 C3.44245582 63.35120805 1.66630977 66.6097996 -0.1953125 69.8359375 C-1.73664572 72.53827496 -2.86292302 75.11940498 -4 78 C-4.474375 78.70125 -4.94875 79.4025 -5.4375 80.125 C-7.43562415 83.80154844 -8.23215042 87.5092807 -9.15625 91.57421875 C-10 94 -10 94 -13 96 C-15.12109375 96.44921875 -15.12109375 96.44921875 -17.4375 96.6875 C-18.19933594 96.77386719 -18.96117188 96.86023438 -19.74609375 96.94921875 C-22.03211792 97.00072363 -23.82096985 96.66016176 -26 96 C-26 97.65 -26 99.3 -26 101 C-20.06 101 -14.12 101 -8 101 C-8.33 101.66 -8.66 102.32 -9 103 C-10.98 102.505 -10.98 102.505 -13 102 C-13 106.29 -13 110.58 -13 115 C-12.34 115.33 -11.68 115.66 -11 116 C-12.98 116 -14.96 116 -17 116 C-16.67 111.38 -16.34 106.76 -16 102 C-21.04037134 102.19357466 -21.04037134 102.19357466 -24.9375 105.0625 C-26.33579156 108.92836491 -26.20837644 111.90193009 -26 116 C-27.45635371 116.22174933 -28.91522956 116.42698698 -30.375 116.625 C-31.59316406 116.79902344 -31.59316406 116.79902344 -32.8359375 116.9765625 C-33.55007812 116.98429687 -34.26421875 116.99203125 -35 117 C-35.99 116.01 -35.99 116.01 -37 115 C-37.99 115.495 -37.99 115.495 -39 116 C-42.7853548 116.29452482 -46.57952512 116.27795381 -50.375 116.3125 C-51.95667969 116.35600586 -51.95667969 116.35600586 -53.5703125 116.40039062 C-54.58609375 116.40876953 -55.601875 116.41714844 -56.6484375 116.42578125 C-57.57833496 116.44036377 -58.50823242 116.45494629 -59.46630859 116.4699707 C-62.7880787 115.85382044 -63.9552867 114.6416519 -66 112 C-66.54861638 108.15968535 -66.54211763 105.96102671 -64.625 102.5625 C-60.58260252 100.15631102 -56.59120485 100.68457371 -52 101 C-52.33 100.34 -52.66 99.68 -53 99 C-49.7 99.33 -46.4 99.66 -43 100 C-45.08899822 95.82200357 -46.05544612 95.07608099 -50 93 C-49.67 92.195625 -49.34 91.39125 -49 90.5625 C-47.79282865 86.26195205 -47.82278647 82.43033819 -48 78 C-48.99 78 -49.98 78 -51 78 C-51.268125 78.86625 -51.53625 79.7325 -51.8125 80.625 C-52.97111987 83.91791964 -54.38209839 86.91127875 -56 90 C-60.73468913 89.51792256 -63.08744634 87.58939996 -66.625 84.5 C-67.68703925 83.5854022 -68.74954946 82.67135103 -69.8125 81.7578125 C-70.61107422 81.06413574 -70.61107422 81.06413574 -71.42578125 80.35644531 C-73.79019499 78.31911859 -76.20615929 76.34717978 -78.625 74.375 C-79.51316406 73.65054688 -80.40132812 72.92609375 -81.31640625 72.1796875 C-84.06220492 69.94947548 -86.80874667 67.72038647 -89.5625 65.5 C-90.36816406 64.8503125 -91.17382812 64.200625 -92.00390625 63.53125 C-93.92066503 61.96068062 -93.92066503 61.96068062 -96 61 C-96.83754948 53.94900205 -93.97863114 49.31280125 -90.625 43.25 C-90.08568848 42.24735107 -89.54637695 41.24470215 -88.99072266 40.21166992 C-87.88009415 38.14714037 -86.76401656 36.08553315 -85.64257812 34.02685547 C-83.17467091 29.47912751 -80.77638987 24.89558003 -78.375 20.3125 C-77.23540181 18.15246566 -76.0953281 15.99268441 -74.95458984 13.83325195 C-74.27455584 12.52727361 -73.65002281 11.19176285 -73.06494141 9.84057617 C-71.41927915 6.99631946 -69.0588142 6.82842885 -66 6 C-65.34 5.67 -64.68 5.34 -64 5 C-63.67 4.01 -63.34 3.02 -63 2 C-51.12 2 -39.24 2 -27 2 C-27 2.66 -27 3.32 -27 4 C-25.35 4.66 -23.7 5.32 -22 6 C-22.33 6.5775 -22.66 7.155 -23 7.75 C-24.27075898 10.19883862 -24.27075898 10.19883862 -24 14 C-21.07120629 13.37240135 -18.63904371 12.41377341 -16 11 C-14.68 11.99 -13.36 12.98 -12 14 C-11.9175 13.38125 -11.835 12.7625 -11.75 12.125 C-11 10 -11 10 -8.9375 8.75 C-8.298125 8.5025 -7.65875 8.255 -7 8 C-7.99 7.67 -8.98 7.34 -10 7 C-10.495 4.03 -10.495 4.03 -11 1 C-7.32589215 -0.17571451 -3.83070817 -0.07366746 0 0 Z " fill="#EDF5F7" transform="translate(131,42)"/>
<path d="M0 0 C4.31028518 0.52692973 7.18356052 3.23544385 10.4375 5.875 C11.04787109 6.36170166 11.65824219 6.84840332 12.28710938 7.34985352 C17.12760047 11.23259038 21.87799668 15.22241716 26.56030273 19.29443359 C29.8785942 22.15594091 33.32023855 24.62545308 37 27 C38.875 28.375 38.875 28.375 40 30 C40.64926861 35.44574043 38.74128403 39.08523819 36.125 43.6875 C35.29887216 45.19237527 34.47337552 46.69759717 33.6484375 48.203125 C33.21499023 48.98494141 32.78154297 49.76675781 32.33496094 50.57226562 C30.08458462 54.66475686 27.91954333 58.80175679 25.75 62.9375 C25.32879883 63.73736328 24.90759766 64.53722656 24.47363281 65.36132812 C21.57603049 70.87159805 18.73247815 76.40561053 16 82 C11.26531087 81.51792256 8.91255366 79.58939996 5.375 76.5 C4.31296075 75.5854022 3.25045054 74.67135103 2.1875 73.7578125 C1.38892578 73.06413574 1.38892578 73.06413574 0.57421875 72.35644531 C-1.79019499 70.31911859 -4.20615929 68.34717978 -6.625 66.375 C-7.51316406 65.65054688 -8.40132812 64.92609375 -9.31640625 64.1796875 C-12.06220492 61.94947548 -14.80874667 59.72038647 -17.5625 57.5 C-18.36816406 56.8503125 -19.17382812 56.200625 -20.00390625 55.53125 C-21.92066503 53.96068062 -21.92066503 53.96068062 -24 53 C-24.83754948 45.94900205 -21.97863114 41.31280125 -18.625 35.25 C-18.08568848 34.24735107 -17.54637695 33.24470215 -16.99072266 32.21166992 C-15.88009415 30.14714037 -14.76401656 28.08553315 -13.64257812 26.02685547 C-11.17467091 21.47912751 -8.77638987 16.89558003 -6.375 12.3125 C-5.23540181 10.15246566 -4.0953281 7.99268441 -2.95458984 5.83325195 C-1.94765272 3.89946913 -0.96994072 1.95256569 0 0 Z " fill="#05579A" transform="translate(59,50)"/>
<path d="M0 0 C1.38594529 0.00031696 2.77191535 0.01163319 4.15771484 0.03173828 C4.88735443 0.03456818 5.61699402 0.03739807 6.3687439 0.04031372 C8.70221262 0.05152076 11.03529937 0.07662568 13.36865234 0.10205078 C14.94937597 0.11207993 16.53010561 0.1212059 18.11083984 0.12939453 C21.98859149 0.15146173 25.86605712 0.18599463 29.74365234 0.22705078 C28.84440034 7.66667254 28.84440034 7.66667254 27.03662109 11.16455078 C26.69695312 11.83228516 26.35728516 12.50001953 26.00732422 13.18798828 C25.6521875 13.86087891 25.29705078 14.53376953 24.93115234 15.22705078 C24.58761719 15.89994141 24.24408203 16.57283203 23.89013672 17.26611328 C22.20951527 20.53276211 20.45855797 23.74180914 18.60693359 26.91455078 C17.05561143 29.67245685 15.89565318 32.29643778 14.74365234 35.22705078 C13.79797198 36.91294336 12.81766018 38.57981156 11.80615234 40.22705078 C11.30212891 41.05205078 10.79810547 41.87705078 10.27880859 42.72705078 C9.77220703 43.55205078 9.26560547 44.37705078 8.74365234 45.22705078 C8.20611328 46.13455078 7.66857422 47.04205078 7.11474609 47.97705078 C5.74365234 50.22705078 5.74365234 50.22705078 4.74365234 51.22705078 C2.29534808 51.31548871 -0.12455364 51.3423383 -2.57275391 51.32470703 C-3.30380844 51.32329208 -4.03486298 51.32187714 -4.78807068 51.32041931 C-7.13170398 51.31480486 -9.47524305 51.30225 -11.81884766 51.28955078 C-13.40413274 51.28453764 -14.98941931 51.27997441 -16.57470703 51.27587891 C-20.46862376 51.26483075 -24.36246971 51.2475565 -28.25634766 51.22705078 C-29.25634766 48.22705078 -29.25634766 48.22705078 -27.63134766 44.66455078 C-26.84240377 43.18393007 -26.05054466 41.7048604 -25.25634766 40.22705078 C-24.46058369 38.62491267 -23.66905894 37.0206634 -22.88134766 35.41455078 C-20.690594 31.03304348 -18.37258526 26.73460644 -16.00634766 22.44580078 C-14.62993406 19.91418291 -13.27919376 17.37405213 -11.94384766 14.82080078 C-11.54133789 14.0526001 -11.13882813 13.28439941 -10.72412109 12.49291992 C-9.92228627 10.95982075 -9.12337892 9.42518633 -8.32763672 7.88891602 C-7.95864258 7.18452393 -7.58964844 6.48013184 -7.20947266 5.75439453 C-6.71688965 4.80681274 -6.71688965 4.80681274 -6.21435547 3.84008789 C-4.38673325 0.76284528 -3.65007388 0.25450358 0 0 Z " fill="#1CBB9B" transform="translate(112.25634765625,84.77294921875)"/>
<path d="M0 0 C0 1.65 0 3.3 0 5 C-0.99 5.33 -1.98 5.66 -3 6 C-2.505 9.465 -2.505 9.465 -2 13 C0.475 13.495 0.475 13.495 3 14 C3 14.99 3 15.98 3 17 C1.02 17 -0.96 17 -3 17 C-3 16.34 -3 15.68 -3 15 C-4.32 15.33 -5.64 15.66 -7 16 C-4.80750787 20.17162093 -2.31399375 22.65678574 1.375 25.5625 C2.31085938 26.30628906 3.24671875 27.05007812 4.2109375 27.81640625 C6.07824613 29.27834676 7.95871079 30.72362965 9.8515625 32.15234375 C10.91503906 33.06693359 10.91503906 33.06693359 12 34 C12 34.66 12 35.32 12 36 C1.11 36 -9.78 36 -21 36 C-20.34 34.35 -19.68 32.7 -19 31 C-22.87797662 30.56613908 -22.87797662 30.56613908 -24.75 32.5 C-25.1625 32.995 -25.575 33.49 -26 34 C-25.45276317 30.62537285 -24.9451 28.91765 -23 26 C-24.65 25.67 -26.3 25.34 -28 25 C-28.66 26.32 -29.32 27.64 -30 29 C-30.66 29 -31.32 29 -32 29 C-31.690625 28.2575 -31.38125 27.515 -31.0625 26.75 C-29.10983382 21.94606876 -29.10983382 21.94606876 -30 17 C-30.99 17 -31.98 17 -33 17 C-33.309375 17.78375 -33.61875 18.5675 -33.9375 19.375 C-35 22 -35 22 -36 24 C-39.07439392 23.41469872 -40.84358006 22.56617879 -43.171875 20.48828125 C-43.75050293 19.98022949 -44.32913086 19.47217773 -44.92529297 18.94873047 C-45.82852295 18.13879639 -45.82852295 18.13879639 -46.75 17.3125 C-50.69278277 13.83985379 -54.6033844 10.44474526 -58.875 7.375 C-59.90625 6.59125 -60.9375 5.8075 -62 5 C-62 4.34 -62 3.68 -62 3 C-57.10704853 2.92566221 -52.21442817 2.87130973 -47.32104492 2.83520508 C-45.65757519 2.82014886 -43.99414495 2.79969937 -42.33081055 2.77368164 C-39.93528478 2.73715793 -37.54028533 2.72024218 -35.14453125 2.70703125 C-34.03486748 2.68380547 -34.03486748 2.68380547 -32.90278625 2.66011047 C-28.40435377 2.65865504 -25.62306443 3.30369368 -22 6 C-22.33 6.5775 -22.66 7.155 -23 7.75 C-24.27075898 10.19883862 -24.27075898 10.19883862 -24 14 C-21.07120629 13.37240135 -18.63904371 12.41377341 -16 11 C-14.68 11.99 -13.36 12.98 -12 14 C-11.9175 13.38125 -11.835 12.7625 -11.75 12.125 C-11 10 -11 10 -8.9375 8.75 C-8.298125 8.5025 -7.65875 8.255 -7 8 C-7.99 7.67 -8.98 7.34 -10 7 C-10.495 4.03 -10.495 4.03 -11 1 C-7.32589215 -0.17571451 -3.83070817 -0.07366746 0 0 Z " fill="#354047" transform="translate(131,42)"/>
<path d="M0 0 C6.41688675 -0.10349817 12.62694402 0.25492456 19 1 C19 2.65 19 4.3 19 6 C24.94 6 30.88 6 37 6 C36.67 6.66 36.34 7.32 36 8 C34.68 7.67 33.36 7.34 32 7 C32 11.29 32 15.58 32 20 C32.66 20.33 33.32 20.66 34 21 C32.02 21 30.04 21 28 21 C28.33 16.38 28.66 11.76 29 7 C23.95962866 7.19357466 23.95962866 7.19357466 20.0625 10.0625 C18.66420844 13.92836491 18.79162356 16.90193009 19 21 C17.54364629 21.22174933 16.08477044 21.42698698 14.625 21.625 C13.40683594 21.79902344 13.40683594 21.79902344 12.1640625 21.9765625 C11.44992188 21.98429687 10.73578125 21.99203125 10 22 C9.34 21.34 8.68 20.68 8 20 C7.34 20.33 6.68 20.66 6 21 C2.2146452 21.29452482 -1.57952512 21.27795381 -5.375 21.3125 C-6.42945312 21.34150391 -7.48390625 21.37050781 -8.5703125 21.40039062 C-9.58609375 21.40876953 -10.601875 21.41714844 -11.6484375 21.42578125 C-13.04328369 21.44765503 -13.04328369 21.44765503 -14.46630859 21.4699707 C-17.7880787 20.85382044 -18.9552867 19.6416519 -21 17 C-21.54861638 13.15968535 -21.54211763 10.96102671 -19.625 7.5625 C-15.58260252 5.15631102 -11.59120485 5.68457371 -7 6 C-7.33 5.34 -7.66 4.68 -8 4 C-4.7 4.33 -1.4 4.66 2 5 C1.34 3.35 0.68 1.7 0 0 Z " fill="#EFF4F4" transform="translate(86,137)"/>
<path d="M0 0 C4.89295147 -0.07433779 9.78557183 -0.12869027 14.67895508 -0.16479492 C16.34242481 -0.17985114 18.00585505 -0.20030063 19.66918945 -0.22631836 C22.06471522 -0.26284207 24.45971467 -0.27975782 26.85546875 -0.29296875 C27.96513252 -0.31619453 27.96513252 -0.31619453 29.09721375 -0.33988953 C33.59564623 -0.34134496 36.37693557 0.30369368 40 3 C39.690625 3.598125 39.38125 4.19625 39.0625 4.8125 C37.28618632 8.4696164 36.62086065 12.00875294 36 16 C33.69 15.34 31.38 14.68 29 14 C28.690625 14.78375 28.38125 15.5675 28.0625 16.375 C27 19 27 19 26 21 C22.92560608 20.41469872 21.15641994 19.56617879 18.828125 17.48828125 C18.24949707 16.98022949 17.67086914 16.47217773 17.07470703 15.94873047 C16.47255371 15.40877441 15.87040039 14.86881836 15.25 14.3125 C11.30721723 10.83985379 7.3966156 7.44474526 3.125 4.375 C2.09375 3.59125 1.0625 2.8075 0 2 C0 1.34 0 0.68 0 0 Z " fill="#222F3F" transform="translate(69,45)"/>
<path d="M0 0 C0.99 0 1.98 0 3 0 C2.91621094 0.71285156 2.83242187 1.42570313 2.74609375 2.16015625 C2.64425781 3.11792969 2.54242188 4.07570312 2.4375 5.0625 C2.33308594 6.00222656 2.22867188 6.94195312 2.12109375 7.91015625 C1.88096429 11.66741772 1.88096429 11.66741772 3 18 C-2.61 18 -8.22 18 -14 18 C-13.34 16.35 -12.68 14.7 -12 13 C-13.65 13 -15.3 13 -17 13 C-16.67 14.65 -16.34 16.3 -16 18 C-17.65 18 -19.3 18 -21 18 C-19.76123355 12.30694567 -18.43723997 6.64629987 -17 1 C-14.03 1.495 -14.03 1.495 -11 2 C-10.67 3.98 -10.34 5.96 -10 8 C-8.68 8.33 -7.36 8.66 -6 9 C-6.185625 8.21625 -6.37125 7.4325 -6.5625 6.625 C-7 4 -7 4 -6 2 C-2.9375 1.375 -2.9375 1.375 0 1 C0 0.67 0 0.34 0 0 Z " fill="#E5F9F5" transform="translate(165,140)"/>
<path d="M0 0 C2.97 0 5.94 0 9 0 C9 1.98 9 3.96 9 6 C11.41619823 6.25030977 11.41619823 6.25030977 14 6 C14.66 5.01 15.32 4.02 16 3 C17.48206495 3.254496 18.96068615 3.52911762 20.4375 3.8125 C21.67306641 4.03873047 21.67306641 4.03873047 22.93359375 4.26953125 C23.61550781 4.51058594 24.29742187 4.75164063 25 5 C25.33 5.99 25.66 6.98 26 8 C25.01 9.485 25.01 9.485 24 11 C23.34 11 22.68 11 22 11 C22 11.66 22 12.32 22 13 C24.475 13.495 24.475 13.495 27 14 C28 17 28 17 27 20 C25.35 20 23.7 20 22 20 C21.505 17.525 21.505 17.525 21 15 C19.824375 15.2784375 19.824375 15.2784375 18.625 15.5625 C16 16 16 16 14 15 C13.67 15.66 13.34 16.32 13 17 C12.67 15.68 12.34 14.36 12 13 C8.7 13 5.4 13 2 13 C2.33 14.32 2.66 15.64 3 17 C1.68 17 0.36 17 -1 17 C-0.67 15.35 -0.34 13.7 0 12 C0.99 11.67 1.98 11.34 3 11 C3.33 9.35 3.66 7.7 4 6 C2.68 5.67 1.36 5.34 0 5 C0 3.35 0 1.7 0 0 Z " fill="#F5FAF7" transform="translate(139,42)"/>
<path d="M0 0 C-0.99 0.495 -0.99 0.495 -2 1 C-2 2.65 -2 4.3 -2 6 C-2.33 6 -2.66 6 -3 6 C-3 4.35 -3 2.7 -3 1 C-5.97 1 -8.94 1 -12 1 C-12 2.65 -12 4.3 -12 6 C-10.35 6.33 -8.7 6.66 -7 7 C-8.20864187 10.43998071 -9.38557192 12.49924271 -12 15 C-12.33 15.99 -12.66 16.98 -13 18 C-11.68 18 -10.36 18 -9 18 C-8.67 17.01 -8.34 16.02 -8 15 C-6.35 15.33 -4.7 15.66 -3 16 C-2.67 16.99 -2.34 17.98 -2 19 C-0.35 19 1.3 19 3 19 C3 19.99 3 20.98 3 22 C2.21625 21.814375 1.4325 21.62875 0.625 21.4375 C-1.97089775 20.74037734 -1.97089775 20.74037734 -4 22 C-4 21.34 -4 20.68 -4 20 C-5.65 21.32 -7.3 22.64 -9 24 C-9 22.68 -9 21.36 -9 20 C-9.680625 20.20625 -10.36125 20.4125 -11.0625 20.625 C-14.78833331 21.10063829 -17.46992554 20.17669149 -21 19 C-19.68 18.67 -18.36 18.34 -17 18 C-17 17.01 -17 16.02 -17 15 C-17.804375 15.020625 -18.60875 15.04125 -19.4375 15.0625 C-22 15 -22 15 -23 14 C-23.04092937 11.66702567 -23.04241723 9.33294775 -23 7 C-22.34 6.67 -21.68 6.34 -21 6 C-20.6184375 5.00871094 -20.236875 4.01742187 -19.84375 2.99609375 C-18 0 -18 0 -14.53125 -0.83984375 C-13.18854735 -0.90207947 -11.84413874 -0.9336596 -10.5 -0.9375 C-9.82324219 -0.96650391 -9.14648438 -0.99550781 -8.44921875 -1.02539062 C-5.33326643 -1.12679736 -2.97753182 -0.99251061 0 0 Z " fill="#F8FCFC" transform="translate(151,41)"/>
<path d="M0 0 C3.81858717 2.16524961 7.12895893 4.62987731 10.5 7.4375 C13.25450206 9.72389146 15.9928247 11.99454953 18.84375 14.16015625 C19.5553125 14.76730469 20.266875 15.37445313 21 16 C21 16.66 21 17.32 21 18 C10.77 17.67 0.54 17.34 -10 17 C-10 16.67 -10 16.34 -10 16 C-8.02 15.67 -6.04 15.34 -4 15 C-4.66 14.67 -5.32 14.34 -6 14 C-6 12.35 -6 10.7 -6 9 C-5.34 9 -4.68 9 -4 9 C-4 8.34 -4 7.68 -4 7 C-2.35 6.67 -0.7 6.34 1 6 C0.67 4.02 0.34 2.04 0 0 Z " fill="#0E1F2D" transform="translate(122,60)"/>
<path d="M0 0 C2.5 1.0625 2.5 1.0625 4 3 C4.59937882 7.04580703 4.3638406 9.28747882 2.5 12.9375 C-0.54199779 15.44714818 -2.24089496 15.68721267 -6.09375 15.4140625 C-8 15 -8 15 -10.5 13.4375 C-12.58392818 10.05111671 -12.55802097 7.90614682 -12 4 C-9.06221789 -0.77389593 -5.13114796 -0.8411718 0 0 Z " fill="#F0F3F6" transform="translate(137,143)"/>
<path d="M0 0 C11.88 0 23.76 0 36 0 C36 0.33 36 0.66 36 1 C24.45 1 12.9 1 1 1 C4.95710377 4.99536524 4.95710377 4.99536524 9.11328125 8.67578125 C9.9012207 9.32836914 9.9012207 9.32836914 10.70507812 9.99414062 C11.23552734 10.42919922 11.76597656 10.86425781 12.3125 11.3125 C12.86228516 11.76689453 13.41207031 12.22128906 13.97851562 12.68945312 C15.31712216 13.79525852 16.65829231 14.89795939 18 16 C17.34 16.66 16.68 17.32 16 18 C14.68 17.01 13.36 16.02 12 15 C11.67 16.65 11.34 18.3 11 20 C5.27445024 15.74093983 -0.37992202 11.39719064 -6 7 C-5.195625 6.401875 -4.39125 5.80375 -3.5625 5.1875 C-0.77672016 3.19052724 -0.77672016 3.19052724 0 0 Z " fill="#F3F6F5" transform="translate(68,44)"/>
<path d="M0 0 C3.05959888 0.59586284 4.98090817 1.50353727 7.41796875 3.43359375 C8.03220703 3.91763672 8.64644531 4.40167969 9.27929688 4.90039062 C10.22385742 5.66125977 10.22385742 5.66125977 11.1875 6.4375 C11.82880859 6.94087891 12.47011719 7.44425781 13.13085938 7.96289062 C17.86268213 11.72536426 17.86268213 11.72536426 19 14 C17.68 14 16.36 14 15 14 C15 13.34 15 12.68 15 12 C14.319375 12.144375 13.63875 12.28875 12.9375 12.4375 C11.968125 12.623125 10.99875 12.80875 10 13 C8.845 13.2475 7.69 13.495 6.5 13.75 C2.53122377 14.03348402 1.11568197 13.36036513 -2 11 C-2.66 12.32 -3.32 13.64 -4 15 C-4.66 14.67 -5.32 14.34 -6 14 C-4.50829734 9.0276578 -2.39542583 4.58154261 0 0 Z " fill="#075495" transform="translate(59,50)"/>
<path d="M0 0 C0.33 0 0.66 0 1 0 C0.67 4.29 0.34 8.58 0 13 C0.99 13.33 1.98 13.66 3 14 C2.72285156 14.60328125 2.44570312 15.2065625 2.16015625 15.828125 C1.79792969 16.62734375 1.43570313 17.4265625 1.0625 18.25 C0.70285156 19.03890625 0.34320313 19.8278125 -0.02734375 20.640625 C-0.90244663 22.76336452 -1.47203673 24.77310435 -2 27 C2.64467639 27.12359943 7.28839626 27.21433399 11.93432617 27.2746582 C13.51457389 27.2998033 15.09470529 27.33392474 16.67456055 27.37719727 C18.94609232 27.43785708 21.21608744 27.46620678 23.48828125 27.48828125 C24.19463211 27.51408768 24.90098297 27.5398941 25.6287384 27.56648254 C27.87075317 27.62335833 27.87075317 27.62335833 31 27 C32.94635376 24.67605936 32.94635376 24.67605936 34 22 C35.6875 20.1875 35.6875 20.1875 37 19 C36.74445946 20.46109063 36.46999628 21.91888096 36.1875 23.375 C36.03667969 24.18710938 35.88585937 24.99921875 35.73046875 25.8359375 C35 28 35 28 32 30 C24.45057019 31.31061167 17.17595093 30.87724566 9.5625 30.3125 C8.37978516 30.24611328 7.19707031 30.17972656 5.97851562 30.11132812 C4.85251953 30.02947266 3.72652344 29.94761719 2.56640625 29.86328125 C1.03415405 29.75947144 1.03415405 29.75947144 -0.52905273 29.65356445 C-3 29 -3 29 -4.40209961 27.06811523 C-5 25 -5 25 -4.1328125 23.046875 C-3.75898437 22.37140625 -3.38515625 21.6959375 -3 21 C-2.76020238 18.63777768 -2.76020238 18.63777768 -2.875 16.25 C-2.89304687 15.45078125 -2.91109375 14.6515625 -2.9296875 13.828125 C-2.95289062 13.22484375 -2.97609375 12.6215625 -3 12 C-3.66 12 -4.32 12 -5 12 C-3.68938409 7.76570244 -2.05643741 3.92592596 0 0 Z " fill="#E2FEFC" transform="translate(86,108)"/>
<path d="M0 0 C0 1.65 0 3.3 0 5 C-0.99 5.33 -1.98 5.66 -3 6 C-2.67 8.31 -2.34 10.62 -2 13 C-0.35 13.33 1.3 13.66 3 14 C3 14.99 3 15.98 3 17 C1.02 17 -0.96 17 -3 17 C-3 16.34 -3 15.68 -3 15 C-4.98491642 15.26676204 -4.98491642 15.26676204 -7 16 C-7.33 16.99 -7.66 17.98 -8 19 C-9.65 17.35 -11.3 15.7 -13 14 C-11.95125002 11.37812506 -11.35068687 10.20628639 -8.875 8.75 C-8.25625 8.5025 -7.6375 8.255 -7 8 C-7.99 7.67 -8.98 7.34 -10 7 C-10.33 5.02 -10.66 3.04 -11 1 C-7.32589215 -0.17571451 -3.83070817 -0.07366746 0 0 Z " fill="#ADD1D5" transform="translate(131,42)"/>
<path d="M0 0 C1.48206495 0.254496 2.96068615 0.52911762 4.4375 0.8125 C5.67306641 1.03873047 5.67306641 1.03873047 6.93359375 1.26953125 C7.61550781 1.51058594 8.29742187 1.75164063 9 2 C9.33 2.99 9.66 3.98 10 5 C9.01 6.485 9.01 6.485 8 8 C7.34 8 6.68 8 6 8 C6 8.66 6 9.32 6 10 C7.65 10.33 9.3 10.66 11 11 C12 14 12 14 11 17 C9.35 17 7.7 17 6 17 C5.67 15.35 5.34 13.7 5 12 C2.69 11.67 0.38 11.34 -2 11 C-1.85892253 9.54119891 -1.71197585 8.08296449 -1.5625 6.625 C-1.48128906 5.81289063 -1.40007812 5.00078125 -1.31640625 4.1640625 C-1 2 -1 2 0 0 Z " fill="#C6E6E1" transform="translate(155,45)"/>
<path d="M0 0 C2.97 0.495 2.97 0.495 6 1 C6.19335938 1.81984375 6.38671875 2.6396875 6.5859375 3.484375 C6.84632813 4.56203125 7.10671875 5.6396875 7.375 6.75 C7.63023437 7.81734375 7.88546875 8.8846875 8.1484375 9.984375 C8.87533541 12.55852722 9.7026224 14.67600186 11 17 C8.36 17 5.72 17 3 17 C3.66 15.35 4.32 13.7 5 12 C3.35 12 1.7 12 0 12 C0.33 13.65 0.66 15.3 1 17 C-0.65 17 -2.3 17 -4 17 C-2.76123355 11.30694567 -1.43723997 5.64629987 0 0 Z " fill="#DCF4F2" transform="translate(148,141)"/>
<path d="M0 0 C2.64 0 5.28 0 8 0 C8.12375 0.7425 8.2475 1.485 8.375 2.25 C8.85432552 4.96327957 8.85432552 4.96327957 10.125 7 C11.30157945 9.68932446 10.89159574 11.25091314 10 14 C8 15 8 15 1 15 C0.67 10.05 0.34 5.1 0 0 Z " fill="#737A82" transform="translate(84,143)"/>
<path d="M0 0 C0 0.66 0 1.32 0 2 C-3.3 2.33 -6.6 2.66 -10 3 C-9.67 4.98 -9.34 6.96 -9 9 C-7.35 9 -5.7 9 -4 9 C-6.05233685 11.2477975 -7.00667261 12.0022242 -10 13 C-10.33 13.99 -10.66 14.98 -11 16 C-12.98 15.34 -14.96 14.68 -17 14 C-17.4125 14.515625 -17.825 15.03125 -18.25 15.5625 C-18.8275 16.036875 -19.405 16.51125 -20 17 C-22.1875 16.6875 -22.1875 16.6875 -24 16 C-24 12 -24 12 -22 9.75 C-21.34 9.1725 -20.68 8.595 -20 8 C-19.67 8.66 -19.34 9.32 -19 10 C-18.34 9.67 -17.68 9.34 -17 9 C-17 9.66 -17 10.32 -17 11 C-16.34 11 -15.68 11 -15 11 C-15 10.34 -15 9.68 -15 9 C-14.34 9 -13.68 9 -13 9 C-12.34 6.36 -11.68 3.72 -11 1 C-7.26513121 0.4254048 -3.78706732 0 0 0 Z " fill="#E9F5FA" transform="translate(130,40)"/>
<path d="M0 0 C1.65 0 3.3 0 5 0 C5.28875 0.804375 5.5775 1.60875 5.875 2.4375 C6.73262568 5.1326468 6.73262568 5.1326468 9 6 C9.66 4.02 10.32 2.04 11 0 C16.61 0 22.22 0 28 0 C27.67 0.66 27.34 1.32 27 2 C25.68 1.67 24.36 1.34 23 1 C23 5.29 23 9.58 23 14 C23.66 14.33 24.32 14.66 25 15 C23.02 15 21.04 15 19 15 C19.33 10.38 19.66 5.76 20 1 C14.95962866 1.19357466 14.95962866 1.19357466 11.0625 4.0625 C9.66420844 7.92836491 9.79162356 10.90193009 10 15 C8.68 15 7.36 15 6 15 C5.9071875 13.2365625 5.9071875 13.2365625 5.8125 11.4375 C5.23325089 6.51388254 3.08603895 3.79820179 0 0 Z " fill="#383F42" transform="translate(95,143)"/>
<path d="M0 0 C3 1 3 1 5 4 C6.32 4 7.64 4 9 4 C9.33 5.98 9.66 7.96 10 10 C8.35 10.33 6.7 10.66 5 11 C5 11.66 5 12.32 5 13 C2.625 14.0625 2.625 14.0625 0 15 C-2 14 -2 14 -3.125 10.625 C-4 7 -4 7 -4 4 C-2 1.8125 -2 1.8125 0 0 Z " fill="#5E6874" transform="translate(113,56)"/>
<path d="M0 0 C0.33 0 0.66 0 1 0 C1.268125 1.11375 1.53625 2.2275 1.8125 3.375 C2.65809019 7.21840951 2.65809019 7.21840951 6 9 C6 9.99 6 10.98 6 12 C6.61875 12.0825 7.2375 12.165 7.875 12.25 C8.57625 12.4975 9.2775 12.745 10 13 C10.309375 13.66 10.61875 14.32 10.9375 15 C11.288125 15.66 11.63875 16.32 12 17 C13.66500443 17.34153937 15.33178677 17.67449498 17 18 C18.04115841 19.30144802 19.03886134 20.63838689 20 22 C22.88281316 23.92187544 25.88266916 25.49508166 29 27 C29.66 27.33 30.32 27.66 31 28 C30.67 29.65 30.34 31.3 30 33 C24.45752109 28.95033776 19.12409631 24.68143908 13.82421875 20.3203125 C11.03978511 18.03268652 8.24434857 15.76005989 5.4375 13.5 C4.22900391 12.52546875 4.22900391 12.52546875 2.99609375 11.53125 C1.07933497 9.96068062 1.07933497 9.96068062 -1 9 C-1.125 2.25 -1.125 2.25 0 0 Z " fill="#225C89" transform="translate(36,94)"/>
<path d="M0 0 C0.66666667 2.66666667 1.33333333 5.33333333 2 8 C9.92 8 17.84 8 26 8 C26 7.34 26 6.68 26 6 C28.475 6.495 28.475 6.495 31 7 C31.33 5.68 31.66 4.36 32 3 C32.66 3 33.32 3 34 3 C32.25 8.75 32.25 8.75 30 11 C27.49079154 11.17495606 25.09375059 11.23169569 22.5859375 11.1953125 C21.85629791 11.1924826 21.12665833 11.18965271 20.37490845 11.18673706 C18.04143972 11.17553002 15.70835297 11.1504251 13.375 11.125 C11.79427637 11.11497085 10.21354673 11.10584489 8.6328125 11.09765625 C4.75506086 11.07558905 0.87759522 11.04105615 -3 11 C-4 8 -4 8 -3.22265625 5.95703125 C-2.83980469 5.24933594 -2.45695312 4.54164063 -2.0625 3.8125 C-1.68222656 3.09707031 -1.30195312 2.38164063 -0.91015625 1.64453125 C-0.60980469 1.10183594 -0.30945313 0.55914062 0 0 Z " fill="#4ABEA6" transform="translate(87,125)"/>
<path d="M0 0 C1.32 0 2.64 0 4 0 C4 1.65 4 3.3 4 5 C3.01 5.33 2.02 5.66 1 6 C1 7.98 1 9.96 1 12 C0.34 12 -0.32 12 -1 12 C-1.33 14.31 -1.66 16.62 -2 19 C-3.32 19.33 -4.64 19.66 -6 20 C-7.80789124 13.91891127 -5.83657235 8.83137661 -4 3 C-2.68 2.67 -1.36 2.34 0 2 C0 1.34 0 0.68 0 0 Z " fill="#EEF6F8" transform="translate(92,101)"/>
<path d="M0 0 C3.5625 0.25 3.5625 0.25 7 1 C8.52491998 4.04983996 8.23562548 6.6423369 8 10 C6.8125 12 6.8125 12 5 13 C1.65807308 12.75546876 0.39456443 12.39456443 -2 10 C-2.265625 8.125 -2.265625 8.125 -2.25 6 C-2.25515625 5.29875 -2.2603125 4.5975 -2.265625 3.875 C-2 2 -2 2 0 0 Z " fill="#F4F8F8" transform="translate(70,144)"/>
<path d="M0 0 C3.63 0 7.26 0 11 0 C11 0.99 11 1.98 11 3 C11.99 3.33 12.98 3.66 14 4 C14 5.32 14 6.64 14 8 C13.01 8.495 13.01 8.495 12 9 C12.66 9.33 13.32 9.66 14 10 C14.66 9.34 15.32 8.68 16 8 C16 8.99 16 9.98 16 11 C16.66 11 17.32 11 18 11 C18.99 12.485 18.99 12.485 20 14 C19.67 14.99 19.34 15.98 19 17 C18.38253906 16.50371094 17.76507813 16.00742187 17.12890625 15.49609375 C16.28199219 14.81675781 15.43507813 14.13742188 14.5625 13.4375 C13.65886719 12.71175781 12.75523438 11.98601563 11.82421875 11.23828125 C8.46796042 8.57834208 5.05303729 6.00139452 1.6171875 3.4453125 C1.08351563 2.96835937 0.54984375 2.49140625 0 2 C0 1.34 0 0.68 0 0 Z " fill="#2A394C" transform="translate(69,45)"/>
<path d="M0 0 C8.19256018 -0.4726477 8.19256018 -0.4726477 11.5625 1.5 C12.036875 1.995 12.51125 2.49 13 3 C12.25 7.75 12.25 7.75 10 10 C9.01 9.67 8.02 9.34 7 9 C7.66 8.67 8.32 8.34 9 8 C9 6.35 9 4.7 9 3 C8.01 2.67 7.02 2.34 6 2 C6.33 7.28 6.66 12.56 7 18 C5.02 18 3.04 18 1 18 C1.33 12.39 1.66 6.78 2 1 C1.34 0.67 0.68 0.34 0 0 Z " fill="#646A74" transform="translate(34,140)"/>
<path d="M0 0 C0.99 0 1.98 0 3 0 C4.27947184 6.65941972 3.81115003 10.81546992 1 17 C-0.65 17 -2.3 17 -4 17 C-4 16.34 -4 15.68 -4 15 C-4.99 14.67 -5.98 14.34 -7 14 C-6.34 13.34 -5.68 12.68 -5 12 C-4.31974363 10.00458132 -3.65509503 8.00382009 -3 6 C-2.02995879 3.98529902 -1.03755118 1.98077953 0 0 Z " fill="#F1F8FA" transform="translate(80,120)"/>
<path d="M0 0 C2.5 1.0625 2.5 1.0625 4 3 C4.59937882 7.04580703 4.3638406 9.28747882 2.5 12.9375 C-0.54199779 15.44714818 -2.24089496 15.68721267 -6.09375 15.4140625 C-8 15 -8 15 -10.5 13.4375 C-12.58392818 10.05111671 -12.55802097 7.90614682 -12 4 C-9.06221789 -0.77389593 -5.13114796 -0.8411718 0 0 Z M-9 3 C-9.53198858 8.27209037 -9.53198858 8.27209037 -7.8125 13.0625 C-5.95883669 14.22155548 -5.95883669 14.22155548 -3.4375 13.8125 C-0.85558728 13.15372967 -0.85558728 13.15372967 1 11 C1.47899838 6.31683466 1.47899838 6.31683466 -0.1875 2.0625 C-3.63437849 0.04191606 -6.20027511 0.20027511 -9 3 Z " fill="#414549" transform="translate(137,143)"/>
<path d="M0 0 C2.77181534 2.08971313 2.97010469 2.79820666 3.5 6.375 C3 10 3 10 0.9375 12.9375 C-2.74062512 15.52001338 -4.59231863 15.72125695 -9 15 C-11.4375 13.4375 -11.4375 13.4375 -13 11 C-13.55326548 7.12714161 -13.56331202 4.95518126 -11.5625 1.5625 C-7.88159776 -0.68195258 -4.21225944 -0.86106961 0 0 Z M-10 3 C-10.51458797 8.2502744 -10.51458797 8.2502744 -8.875 13.0625 C-6.009198 14.495401 -4.00451848 13.84910305 -1 13 C0.52491998 9.95016004 0.23562548 7.3576631 0 4 C-1.04374022 1.95548981 -1.04374022 1.95548981 -3 1 C-6.48221301 0.57533988 -7.4650931 0.4650931 -10 3 Z " fill="#4A5255" transform="translate(78,143)"/>
<path d="M0 0 C7.75 -0.125 7.75 -0.125 10 1 C10 2.65 10 4.3 10 6 C9.34 6 8.68 6 8 6 C8 4.68 8 3.36 8 2 C6.68 1.67 5.36 1.34 4 1 C4 2.98 4 4.96 4 7 C5.32 7 6.64 7 8 7 C10.625 9.875 10.625 9.875 13 13 C13.66 13.66 14.32 14.32 15 15 C9.96014269 14.55530671 7.62365012 12.28656638 4 9 C4 10.65 4 12.3 4 14 C4.66 14.33 5.32 14.66 6 15 C4.35 15 2.7 15 1 15 C0.67 10.05 0.34 5.1 0 0 Z " fill="#4F575A" transform="translate(50,143)"/>
<path d="M0 0 C11.88 0 23.76 0 36 0 C36 0.33 36 0.66 36 1 C24.45 1 12.9 1 1 1 C1.64644661 5.88214887 1.64644661 5.88214887 4 9 C4 11 4 11 3 14 C0.03 11.69 -2.94 9.38 -6 7 C-5.195625 6.401875 -4.39125 5.80375 -3.5625 5.1875 C-0.77672016 3.19052724 -0.77672016 3.19052724 0 0 Z " fill="#CAD5DB" transform="translate(68,44)"/>
<path d="M0 0 C1.32 0.33 2.64 0.66 4 1 C4 2.32 4 3.64 4 5 C4.66 5 5.32 5 6 5 C6.33 3.68 6.66 2.36 7 1 C7.33 1.66 7.66 2.32 8 3 C9.32 2.34 10.64 1.68 12 1 C12.02698189 2.62490954 12.04638757 4.24994633 12.0625 5.875 C12.07410156 6.77992188 12.08570312 7.68484375 12.09765625 8.6171875 C12 11 12 11 11 13 C8.13302508 11.71480435 6.02392288 10.42870746 4 8 C4 7.34 4 6.68 4 6 C2.68 6 1.36 6 0 6 C0 4.02 0 2.04 0 0 Z " fill="#E6EBEF" transform="translate(54,144)"/>
<path d="M0 0 C2.31 0.33 4.62 0.66 7 1 C6.979375 2.010625 6.95875 3.02125 6.9375 4.0625 C6.99687734 7.80327257 7.39795085 11.31244898 8 15 C6.02 15 4.04 15 2 15 C2 10.38 2 5.76 2 1 C1.34 0.67 0.68 0.34 0 0 Z " fill="#A3D6CA" transform="translate(160,143)"/>
<path d="M0 0 C1.65 0.33 3.3 0.66 5 1 C5.33 1.99 5.66 2.98 6 4 C7.65 4 9.3 4 11 4 C11 4.99 11 5.98 11 7 C10.21625 6.814375 9.4325 6.62875 8.625 6.4375 C6.02910225 5.74037734 6.02910225 5.74037734 4 7 C4 6.34 4 5.68 4 5 C2.35 6.32 0.7 7.64 -1 9 C-1 7.68 -1 6.36 -1 5 C-1.680625 5.20625 -2.36125 5.4125 -3.0625 5.625 C-6.78833331 6.10063829 -9.46992554 5.17669149 -13 4 C-12.360625 3.87625 -11.72125 3.7525 -11.0625 3.625 C-10.0415625 3.315625 -10.0415625 3.315625 -9 3 C-8.67 2.34 -8.34 1.68 -8 1 C-5.69 1.66 -3.38 2.32 -1 3 C-0.67 2.01 -0.34 1.02 0 0 Z " fill="#E8F5F5" transform="translate(143,56)"/>
<path d="M0 0 C1.38594529 0.00031696 2.77191535 0.01163319 4.15771484 0.03173828 C4.88735443 0.03456818 5.61699402 0.03739807 6.3687439 0.04031372 C8.70221262 0.05152076 11.03529937 0.07662568 13.36865234 0.10205078 C14.94937597 0.11207993 16.53010561 0.1212059 18.11083984 0.12939453 C21.98859149 0.15146173 25.86605712 0.18599463 29.74365234 0.22705078 C29.74365234 0.55705078 29.74365234 0.88705078 29.74365234 1.22705078 C19.18365234 1.22705078 8.62365234 1.22705078 -2.25634766 1.22705078 C-3.24634766 4.19705078 -4.23634766 7.16705078 -5.25634766 10.22705078 C-6.24634766 10.55705078 -7.23634766 10.88705078 -8.25634766 11.22705078 C-8.95846659 12.87909534 -9.62606179 14.54628847 -10.25634766 16.22705078 C-10.91634766 16.55705078 -11.57634766 16.88705078 -12.25634766 17.22705078 C-10.51049902 11.03722381 -7.24937537 0.50546702 0 0 Z " fill="#66C3B2" transform="translate(112.25634765625,84.77294921875)"/>
<path d="M0 0 C0.33 0 0.66 0 1 0 C0.67 4.29 0.34 8.58 0 13 C0.99 13.33 1.98 13.66 3 14 C2.38080922 15.46080933 1.75443308 16.91857455 1.125 18.375 C0.77695313 19.18710938 0.42890625 19.99921875 0.0703125 20.8359375 C-1 23 -1 23 -3 25 C-3 20.71 -3 16.42 -3 12 C-3.66 12 -4.32 12 -5 12 C-3.68938409 7.76570244 -2.05643741 3.92592596 0 0 Z " fill="#D6F2F3" transform="translate(86,108)"/>
<path d="M0 0 C3.05959888 0.59586284 4.98090817 1.50353727 7.41796875 3.43359375 C8.03220703 3.91763672 8.64644531 4.40167969 9.27929688 4.90039062 C10.22385742 5.66125977 10.22385742 5.66125977 11.1875 6.4375 C11.82880859 6.94087891 12.47011719 7.44425781 13.13085938 7.96289062 C17.86268213 11.72536426 17.86268213 11.72536426 19 14 C17.68 14 16.36 14 15 14 C15 13.34 15 12.68 15 12 C14.13375 12.20625 13.2675 12.4125 12.375 12.625 C8.63571398 13.04047622 6.45057859 12.39666276 3 11 C3.639375 10.896875 4.27875 10.79375 4.9375 10.6875 C5.9584375 10.3471875 5.9584375 10.3471875 7 10 C7.33 9.01 7.66 8.02 8 7 C7.01 6.67 6.02 6.34 5 6 C5 5.01 5 4.02 5 3 C3.02 3.33 1.04 3.66 -1 4 C-0.67 2.68 -0.34 1.36 0 0 Z " fill="#215C8D" transform="translate(59,50)"/>
<path d="M0 0 C10.56 0 21.12 0 32 0 C31.09252139 5.44487168 30.06135816 8.19976182 27.4375 12.875 C26.47650391 14.60363281 26.47650391 14.60363281 25.49609375 16.3671875 C25.00238281 17.23601562 24.50867188 18.10484375 24 19 C23.67 19 23.34 19 23 19 C23 17.35 23 15.7 23 14 C23.66 13.67 24.32 13.34 25 13 C25.65213292 10.97536745 25.65213292 10.97536745 26 9 C26.66 9 27.32 9 28 9 C28.33 6.69 28.66 4.38 29 2 C19.43 1.67 9.86 1.34 0 1 C0 0.67 0 0.34 0 0 Z " fill="#39AC94" transform="translate(110,86)"/>
<path d="M0 0 C11.55 0 23.1 0 35 0 C34.34 3.96 33.68 7.92 33 12 C32.34 12 31.68 12 31 12 C30.67 13.98 30.34 15.96 30 18 C29.01 18 28.02 18 27 18 C27.9851725 14.817135 29.04562914 11.91056688 30.5625 8.9375 C32.26665275 5.77113932 32.26665275 5.77113932 33 1 C22.11 1 11.22 1 0 1 C0 0.67 0 0.34 0 0 Z " fill="#DBFEFC" transform="translate(109,84)"/>
<path d="M0 0 C1.48206495 0.254496 2.96068615 0.52911762 4.4375 0.8125 C5.67306641 1.03873047 5.67306641 1.03873047 6.93359375 1.26953125 C7.61550781 1.51058594 8.29742187 1.75164063 9 2 C9.33 2.99 9.66 3.98 10 5 C8 8 8 8 5.0625 8.875 C2 9 2 9 0.0625 7.9375 C-1.49954362 5.08906752 -0.74921024 3.06495097 0 0 Z " fill="#D2F2F0" transform="translate(155,45)"/>
<path d="M0 0 C0.85380428 2.96121008 1.13517764 5.6087644 1.125 8.6875 C1.12757813 9.47511719 1.13015625 10.26273438 1.1328125 11.07421875 C1 13 1 13 0 14 C1.32 14.66 2.64 15.32 4 16 C1.625 16.625 1.625 16.625 -1 17 C-4.2605096 13.7394904 -4.05467405 10.10916255 -4.0625 5.6875 C-4.041875 4.470625 -4.02125 3.25375 -4 2 C-2.68 1.34 -1.36 0.68 0 0 Z " fill="#F6FAFA" transform="translate(145,143)"/>
<path d="M0 0 C-3.49666435 7.10147296 -7.0759717 14.12426899 -11 21 C-11.33 21 -11.66 21 -12 21 C-12 18.69 -12 16.38 -12 14 C-11.34 13.67 -10.68 13.34 -10 13 C-8.93455888 9.96035914 -8.07421739 6.88348062 -7.1953125 3.78515625 C-6 1 -6 1 -3.9921875 -0.44140625 C-2 -1 -2 -1 0 0 Z " fill="#155688" transform="translate(96,91)"/>
<path d="M0 0 C0.66 0 1.32 0 2 0 C0.55676531 4.73789165 -1.37226733 8.98858151 -3.625 13.375 C-3.94984375 14.01566406 -4.2746875 14.65632813 -4.609375 15.31640625 C-5.40257407 16.87947501 -6.20077031 18.44000622 -7 20 C-8.32 20 -9.64 20 -11 20 C-11 19.34 -11 18.68 -11 18 C-10.34 18 -9.68 18 -9 18 C-8.87625 16.081875 -8.87625 16.081875 -8.75 14.125 C-8.48046875 11.89453125 -8.48046875 11.89453125 -8 10 C-6.0625 8.8125 -6.0625 8.8125 -4 8 C-2.71745356 5.46229997 -2.71745356 5.46229997 -2 3 C-1.34 3 -0.68 3 0 3 C0 2.01 0 1.02 0 0 Z " fill="#235D8B" transform="translate(82,112)"/>
<path d="M0 0 C0.66 0 1.32 0 2 0 C1.42873204 3.99887575 0.12716428 6.59653716 -2 10 C-2.433125 11.1446875 -2.433125 11.1446875 -2.875 12.3125 C-4.47252119 16.12880063 -6.60009562 19.63009943 -9 23 C-9.33 23 -9.66 23 -10 23 C-10 21.02 -10 19.04 -10 17 C-9.0409375 16.7525 -9.0409375 16.7525 -8.0625 16.5 C-5.83880759 15.218214 -5.83880759 15.218214 -5.51171875 13.0859375 C-5.2724022 11.06424845 -5.13106972 9.03158061 -5 7 C-4.01 7 -3.02 7 -2 7 C-2 5.35 -2 3.7 -2 2 C-1.34 2 -0.68 2 0 2 C0 1.34 0 0.68 0 0 Z " fill="#40B89E" transform="translate(131,105)"/>
<path d="M0 0 C0.66 0.33 1.32 0.66 2 1 C1.43410156 2.00160156 0.86820313 3.00320312 0.28515625 4.03515625 C-0.45630129 5.37728826 -1.19715473 6.71975413 -1.9375 8.0625 C-2.31068359 8.71927734 -2.68386719 9.37605469 -3.06835938 10.05273438 C-5.46773114 14.44077463 -6.59109243 18.00873138 -7 23 C-4.525 23.99 -4.525 23.99 -2 25 C-4 26 -4 26 -6.05859375 25.3828125 C-8 24 -8 24 -8.78515625 21.6796875 C-9.50914895 14.35818388 -8.36470131 10.78097607 -4 5 C-3.65582031 4.28714844 -3.31164063 3.57429688 -2.95703125 2.83984375 C-2 1 -2 1 0 0 Z " fill="#D6EDF6" transform="translate(42,80)"/>
<path d="M0 0 C0 1.65 0 3.3 0 5 C3.95495425 7.61537297 8.16827373 7.44264274 12.75 7.625 C13.54277344 7.66367188 14.33554688 7.70234375 15.15234375 7.7421875 C17.10119416 7.836108 19.05056451 7.91912822 21 8 C21 8.33 21 8.66 21 9 C12.09 9 3.18 9 -6 9 C-3.42857143 0 -3.42857143 0 0 0 Z " fill="#45515C" transform="translate(116,69)"/>
<path d="M0 0 C4 0 4 0 6.234375 1.546875 C8.64707114 4.89902804 8.40125249 7.16618269 8.25 11.25 C8.21390625 12.51328125 8.1778125 13.7765625 8.140625 15.078125 C8.07101563 16.52445313 8.07101563 16.52445313 8 18 C7.34 17.67 6.68 17.34 6 17 C6.33 15.68 6.66 14.36 7 13 C6.01 12.67 5.02 12.34 4 12 C4 11.34 4 10.68 4 10 C3.01 9.67 2.02 9.34 1 9 C1.66 8.34 2.32 7.68 3 7 C2.67028521 3.70285207 2.3773161 2.3773161 0 0 Z " fill="#E8EAEE" transform="translate(43,140)"/>
<path d="M0 0 C0 1.65 0 3.3 0 5 C-3.3 5.66 -6.6 6.32 -10 7 C-10.33 5.02 -10.66 3.04 -11 1 C-7.32589215 -0.17571451 -3.83070817 -0.07366746 0 0 Z " fill="#386382" transform="translate(131,42)"/>
<path d="M0 0 C0.66 0.33 1.32 0.66 2 1 C1.690625 1.495 1.38125 1.99 1.0625 2.5 C-0.22167441 5.15454976 -0.22167441 5.15454976 -0.3125 8.9375 C-0.76407746 13.3629591 -2.62156758 15.10420079 -6 18 C-7.02813611 19.31175986 -8.04084432 20.6369893 -9 22 C-10 19 -10 19 -9.19555664 16.9152832 C-8.77137451 16.13499756 -8.34719238 15.35471191 -7.91015625 14.55078125 C-7.22856445 13.27944336 -7.22856445 13.27944336 -6.53320312 11.98242188 C-6.04787109 11.10134766 -5.56253906 10.22027344 -5.0625 9.3125 C-4.34030273 7.97348633 -4.34030273 7.97348633 -3.60351562 6.60742188 C-2.41123103 4.39992466 -1.20982106 2.19792067 0 0 Z " fill="#1D5A8B" transform="translate(47,73)"/>
<path d="M0 0 C0.66 0 1.32 0 2 0 C2.33 4.29 2.66 8.58 3 13 C3.99 12.67 4.98 12.34 6 12 C6.33 10.35 6.66 8.7 7 7 C7.99 7.33 8.98 7.66 10 8 C9.625 10.4375 9.625 10.4375 9 13 C7 14 7 14 0 14 C0 9.38 0 4.76 0 0 Z " fill="#3B4349" transform="translate(85,144)"/>
<path d="M0 0 C0.33 0 0.66 0 1 0 C1 4.62 1 9.24 1 14 C-1.31 13.67 -3.62 13.34 -6 13 C-5.55090939 11.51800098 -5.09043436 10.03944764 -4.625 8.5625 C-4.36976562 7.73878906 -4.11453125 6.91507813 -3.8515625 6.06640625 C-3 4 -3 4 -1 3 C-0.67 2.01 -0.34 1.02 0 0 Z " fill="#E2E8EB" transform="translate(84,144)"/>
<path d="M0 0 C1.32 0 2.64 0 4 0 C4 1.65 4 3.3 4 5 C2.68 5.33 1.36 5.66 0 6 C0 7.65 0 9.3 0 11 C-1.32 10.67 -2.64 10.34 -4 10 C-3.67 8.68 -3.34 7.36 -3 6 C-2.34 6 -1.68 6 -1 6 C-1.33 4.68 -1.66 3.36 -2 2 C-1.34 2 -0.68 2 0 2 C0 1.34 0 0.68 0 0 Z " fill="#FBFAF9" transform="translate(92,101)"/>
<path d="M0 0 C3 1 3 1 4 3 C4.45602606 9.27035831 4.45602606 9.27035831 2.75 12 C1 13 1 13 -1.1875 12.6875 C-1.785625 12.460625 -2.38375 12.23375 -3 12 C-2.34 12 -1.68 12 -1 12 C-1.33 10.68 -1.66 9.36 -2 8 C-1.34 8 -0.68 8 0 8 C0.2165625 7.071875 0.2165625 7.071875 0.4375 6.125 C1 4 1 4 2 2 C1.34 2 0.68 2 0 2 C0 1.34 0 0.68 0 0 Z " fill="#E3E9EA" transform="translate(74,144)"/>
<path d="M0 0 C2.31 0 4.62 0 7 0 C7 1.32 7 2.64 7 4 C4.36 4.33 1.72 4.66 -1 5 C-0.67 6.32 -0.34 7.64 0 9 C-1.32 9 -2.64 9 -4 9 C-3.67 7.35 -3.34 5.7 -3 4 C-2.01 3.67 -1.02 3.34 0 3 C0 2.01 0 1.02 0 0 Z " fill="#A0A2A6" transform="translate(142,50)"/>
<path d="M0 0 C3.02723859 1.51361929 3.3317123 3.84767178 4.5625 6.9375 C6.17196819 11.01793316 6.17196819 11.01793316 8 15 C6.02 15 4.04 15 2 15 C2.33 13.02 2.66 11.04 3 9 C1.02 9 -0.96 9 -3 9 C-3 8.67 -3 8.34 -3 8 C-1.35 8 0.3 8 2 8 C1.67 7.236875 1.34 6.47375 1 5.6875 C0 3 0 3 0 0 Z " fill="#71B5A7" transform="translate(151,143)"/>
<path d="M0 0 C3.96 0 7.92 0 12 0 C11.67 1.32 11.34 2.64 11 4 C8.69 3.34 6.38 2.68 4 2 C3.34 3.32 2.68 4.64 2 6 C1.01 5.67 0.02 5.34 -1 5 C-0.67 3.35 -0.34 1.7 0 0 Z " fill="#DCF7ED" transform="translate(151,43)"/>
<path d="M0 0 C0.99 0.33 1.98 0.66 3 1 C3.33 1.99 3.66 2.98 4 4 C2.25 6.0625 2.25 6.0625 0 8 C-2.25 7.75 -2.25 7.75 -4 7 C-4 4 -4 4 -2 1.8125 C-1.34 1.214375 -0.68 0.61625 0 0 Z " fill="#E7EEF3" transform="translate(113,56)"/>
<path d="M0 0 C0 1.65 0 3.3 0 5 C0.66 5.33 1.32 5.66 2 6 C-1 8 -1 8 -3 8 C-4.62514468 9.45833358 -4.62514468 9.45833358 -6 11 C-5.45276317 7.62537285 -4.9451 5.91765 -3 3 C-3.66 3 -4.32 3 -5 3 C-5 2.34 -5 1.68 -5 1 C-3 0 -3 0 0 0 Z " fill="#27333C" transform="translate(111,65)"/>
<path d="M0 0 C2.97 0 5.94 0 9 0 C9 1.65 9 3.3 9 5 C6.03 4.67 3.06 4.34 0 4 C0 2.68 0 1.36 0 0 Z " fill="#202B35" transform="translate(139,42)"/>
<path d="M0 0 C0.33 0 0.66 0 1 0 C1 2.31 1 4.62 1 7 C2.65 6.67 4.3 6.34 6 6 C7.23697917 7.49739583 8.47395833 8.99479167 9.7109375 10.4921875 C10.75250992 11.71051161 11.86660097 12.86660097 13 14 C8.61703444 13.51300383 6.96816352 12.16604109 4 9 C3.01 8.67 2.02 8.34 1 8 C1 9.65 1 11.3 1 13 C0.67 13 0.34 13 0 13 C0 8.71 0 4.42 0 0 Z " fill="#323A3D" transform="translate(52,144)"/>
<path d="M0 0 C6.93 0.495 6.93 0.495 14 1 C14 1.33 14 1.66 14 2 C11.36 2 8.72 2 6 2 C5.67 4.31 5.34 6.62 5 9 C2.28404014 5.8459821 1.03153759 4.12615036 0 0 Z " fill="#F1F3F7" transform="translate(78,141)"/>
<path d="M0 0 C3.875 0.875 3.875 0.875 5 2 C5.47058824 8.23529412 5.47058824 8.23529412 3.5 11.4375 C3.005 11.953125 2.51 12.46875 2 13 C1.34 12.67 0.68 12.34 0 12 C0.33 11.34 0.66 10.68 1 10 C1.13357453 6.32670036 1.1671568 3.50147041 0 0 Z " fill="#262E33" transform="translate(76,144)"/>
<path d="M0 0 C1.73543126 2.60314689 2.61121812 3.98694043 3 7 C2.34 7.66 1.68 8.32 1 9 C-1.125 8.625 -1.125 8.625 -3 8 C-3 3.73173127 -2.62386487 3.06117568 0 0 Z " fill="#E8EDF0" transform="translate(109,48)"/>
<path d="M0 0 C3.68754757 0.49831724 5.60490662 1.10067643 8 4 C7.67 4.66 7.34 5.32 7 6 C4.23723823 5.47731534 1.6739124 4.89130413 -1 4 C-0.67 2.68 -0.34 1.36 0 0 Z " fill="#4DAC94" transform="translate(155,45)"/>
<path d="M0 0 C0.33 0 0.66 0 1 0 C1.66 2.31 2.32 4.62 3 7 C5.35367713 7.6878236 5.35367713 7.6878236 8 8 C8.99 7.34 9.98 6.68 11 6 C10.67 7.32 10.34 8.64 10 10 C8.741875 10.04125 7.48375 10.0825 6.1875 10.125 C5.47980469 10.14820313 4.77210938 10.17140625 4.04296875 10.1953125 C2 10 2 10 -1 8 C-0.67 5.36 -0.34 2.72 0 0 Z " fill="#585B5F" transform="translate(127,148)"/>
<path d="M0 0 C0.33 0 0.66 0 1 0 C0.67 3.3 0.34 6.6 0 10 C-0.66 10 -1.32 10 -2 10 C-2.33 11.98 -2.66 13.96 -3 16 C-3.99 16 -4.98 16 -6 16 C-4.27933894 10.55123997 -2.15294651 5.28830549 0 0 Z " fill="#C0F4EE" transform="translate(142,86)"/>
<path d="M0 0 C0.66 0 1.32 0 2 0 C0.35433477 5.68502535 -2.29032784 10.76681636 -5 16 C-5.33 16 -5.66 16 -6 16 C-6.3913152 11.54063718 -5.21759262 9.02208724 -3 5.1875 C-2.443125 4.21167969 -1.88625 3.23585938 -1.3125 2.23046875 C-0.879375 1.49441406 -0.44625 0.75835937 0 0 Z " fill="#D0FBF4" transform="translate(104,88)"/>
<path d="M0 0 C0 1.32 0 2.64 0 4 C-1.98 4.66 -3.96 5.32 -6 6 C-6.33 4.35 -6.66 2.7 -7 1 C-4 0 -4 0 0 0 Z " fill="#4AB09A" transform="translate(127,51)"/>
<path d="M0 0 C1.65 1.32 3.3 2.64 5 4 C4.67 5.32 4.34 6.64 4 8 C5.32 8.66 6.64 9.32 8 10 C5.625 10.625 5.625 10.625 3 11 C0.60236815 8.60236815 0.65719414 7.66726502 0.375 4.375 C0.30023438 3.55773437 0.22546875 2.74046875 0.1484375 1.8984375 C0.09945312 1.27195313 0.05046875 0.64546875 0 0 Z " fill="#E6F5F6" transform="translate(141,149)"/>
<path d="M0 0 C1.32 0.33 2.64 0.66 4 1 C4 2.32 4 3.64 4 5 C4.66 5 5.32 5 6 5 C6.33 3.68 6.66 2.36 7 1 C7 2.65 7 4.3 7 6 C6.34 6 5.68 6 5 6 C4.67 6.66 4.34 7.32 4 8 C4 7.34 4 6.68 4 6 C2.68 6 1.36 6 0 6 C0 4.02 0 2.04 0 0 Z " fill="#CCD5D7" transform="translate(54,144)"/>
<path d="M0 0 C1.32 0.33 2.64 0.66 4 1 C4.08226668 4.04386724 3.97608217 6.07175348 3 9 C2.01 9.33 1.02 9.66 0 10 C0 6.7 0 3.4 0 0 Z " fill="#E4EDEE" transform="translate(40,142)"/>
<path d="M0 0 C2.375 -0.1875 2.375 -0.1875 5 0 C5.66 0.99 6.32 1.98 7 3 C5.02 3.99 3.04 4.98 1 6 C1 5.34 1 4.68 1 4 C0.01 4 -0.98 4 -2 4 C-1.34 2.68 -0.68 1.36 0 0 Z " fill="#EDF0F3" transform="translate(130,144)"/>
<path d="M0 0 C0 3.72207387 -1.17964568 5.46395589 -3 8.6875 C-3.8353125 10.17830078 -3.8353125 10.17830078 -4.6875 11.69921875 C-5.3371875 12.83810547 -5.3371875 12.83810547 -6 14 C-7.125 10.25 -7.125 10.25 -6 8 C-5.34 8 -4.68 8 -4 8 C-4 6.02 -4 4.04 -4 2 C-2.68 1.34 -1.36 0.68 0 0 Z " fill="#C7F8F0" transform="translate(97,105)"/>
<path d="M0 0 C0.33 0.99 0.66 1.98 1 3 C1.66 3 2.32 3 3 3 C3.99 4.485 3.99 4.485 5 6 C4.67 6.99 4.34 7.98 4 9 C1.03 6.69 -1.94 4.38 -5 2 C-4.01 2 -3.02 2 -2 2 C-1.34 1.34 -0.68 0.68 0 0 Z " fill="#3E4753" transform="translate(84,53)"/>
<path d="M0 0 C0.66 0.66 1.32 1.32 2 2 C-0.31 6.29 -2.62 10.58 -5 15 C-5.33 15 -5.66 15 -6 15 C-6 13.35 -6 11.7 -6 10 C-5.34 9.67 -4.68 9.34 -4 9 C-3.34786708 6.97536745 -3.34786708 6.97536745 -3 5 C-2.34 5 -1.68 5 -1 5 C-0.67 3.35 -0.34 1.7 0 0 Z " fill="#3EB49D" transform="translate(139,90)"/>
<path d="M0 0 C2.64 0 5.28 0 8 0 C7.67 2.31 7.34 4.62 7 7 C5.82780457 6.21654285 4.66236332 5.42297164 3.5 4.625 C2.8503125 4.18414062 2.200625 3.74328125 1.53125 3.2890625 C1.0259375 2.86367188 0.520625 2.43828125 0 2 C0 1.34 0 0.68 0 0 Z " fill="#3E4752" transform="translate(69,45)"/>
<path d="M0 0 C0.66 0.33 1.32 0.66 2 1 C0.68 3.64 -0.64 6.28 -2 9 C-2.99 8.01 -3.98 7.02 -5 6 C-4.9375 3.9375 -4.9375 3.9375 -4 2 C-2.0625 0.6875 -2.0625 0.6875 0 0 Z " fill="#225B89" transform="translate(94,90)"/>
<path d="M0 0 C0 0.66 0 1.32 0 2 C0.99 2.33 1.98 2.66 3 3 C1.68 4.32 0.36 5.64 -1 7 C-2.5 5.6875 -2.5 5.6875 -4 4 C-4 3.01 -4 2.02 -4 1 C-2 0 -2 0 0 0 Z " fill="#F3F8FA" transform="translate(128,57)"/>
<path d="M0 0 C0.78375 0.474375 1.5675 0.94875 2.375 1.4375 C3.88948678 2.33898023 5.4235897 3.21179485 7 4 C6.01 4.33 5.02 4.66 4 5 C4 5.66 4 6.32 4 7 C2.35 6.67 0.7 6.34 -1 6 C-1.33 5.01 -1.66 4.02 -2 3 C-1.34 2.01 -0.68 1.02 0 0 Z " fill="#F9FDFC" transform="translate(80,58)"/>
<path d="M0 0 C2.31 0 4.62 0 7 0 C7 1.65 7 3.3 7 5 C6.01 5 5.02 5 4 5 C4.66 3.68 5.32 2.36 6 1 C4.35 1 2.7 1 1 1 C1.33 2.65 1.66 4.3 2 6 C0.35 6 -1.3 6 -3 6 C-2.01 4.02 -1.02 2.04 0 0 Z " fill="#ACD9D0" transform="translate(147,152)"/>
<path d="M0 0 C1.98 0.99 1.98 0.99 4 2 C4.3367697 6.93928888 4.16130459 7.78492722 1 12 C0.67 8.04 0.34 4.08 0 0 Z " fill="#225B87" transform="translate(95,78)"/>
<path d="M0 0 C0.99 0 1.98 0 3 0 C3.1875 3.3125 3.1875 3.3125 3 7 C2.01 7.99 1.02 8.98 0 10 C0 6.7 0 3.4 0 0 Z " fill="#22252A" transform="translate(138,146)"/>
<path d="M0 0 C0.33 0 0.66 0 1 0 C1 4.62 1 9.24 1 14 C-0.32 13.67 -1.64 13.34 -3 13 C-3.33 12.34 -3.66 11.68 -4 11 C-3.01 11 -2.02 11 -1 11 C-0.67 7.37 -0.34 3.74 0 0 Z " fill="#D3F5F1" transform="translate(161,144)"/>
<path d="M0 0 C0.66 0.66 1.32 1.32 2 2 C1.34 2 0.68 2 0 2 C0 3.32 0 4.64 0 6 C-0.66 6 -1.32 6 -2 6 C-2.33 6.66 -2.66 7.32 -3 8 C-4.32 6.35 -5.64 4.7 -7 3 C-5.68 3.33 -4.36 3.66 -3 4 C-3 3.34 -3 2.68 -3 2 C-2.01 1.34 -1.02 0.68 0 0 Z " fill="#E1EEF3" transform="translate(87,61)"/>
<path d="M0 0 C-2.05233685 2.2477975 -3.00667261 3.0022242 -6 4 C-6.33 4.99 -6.66 5.98 -7 7 C-7.99 6.67 -8.98 6.34 -10 6 C-9.1875 3.5625 -9.1875 3.5625 -8 1 C-5.07175348 0.02391783 -3.04386724 -0.08226668 0 0 Z " fill="#D9F5F6" transform="translate(126,49)"/>
<path d="M0 0 C1.98 0.495 1.98 0.495 4 1 C4.6875 3.3125 4.6875 3.3125 5 6 C3.5625 7.8125 3.5625 7.8125 2 9 C1.01 8.67 0.02 8.34 -1 8 C-0.34 7.67 0.32 7.34 1 7 C1.15149298 3.37114676 1.15149298 3.37114676 0 0 Z " fill="#34393C" transform="translate(42,141)"/>
<path d="M0 0 C5.53846154 0.49230769 5.53846154 0.49230769 7.875 3.0625 C8.431875 4.0215625 8.431875 4.0215625 9 5 C7.35 5.33 5.7 5.66 4 6 C4 5.01 4 4.02 4 3 C2.68 2.67 1.36 2.34 0 2 C0 1.34 0 0.68 0 0 Z " fill="#E7F7FB" transform="translate(35,105)"/>
<path d="M0 0 C0.99 0 1.98 0 3 0 C3 0.66 3 1.32 3 2 C4.65 2 6.3 2 8 2 C8 2.99 8 3.98 8 5 C7.21625 4.814375 6.4325 4.62875 5.625 4.4375 C3.02910225 3.74037734 3.02910225 3.74037734 1 5 C0.67 3.35 0.34 1.7 0 0 Z " fill="#AEC6C3" transform="translate(146,58)"/>
<path d="M0 0 C0.99 0.495 0.99 0.495 2 1 C2 1.33 2 1.66 2 2 C3.98 2 5.96 2 8 2 C8 2.66 8 3.32 8 4 C5.69 4.66 3.38 5.32 1 6 C0.67 4.02 0.34 2.04 0 0 Z " fill="#286087" transform="translate(120,43)"/>
<path d="M0 0 C1.98 0.99 1.98 0.99 4 2 C3.67 3.65 3.34 5.3 3 7 C2.01 7 1.02 7 0 7 C0 4.69 0 2.38 0 0 Z " fill="#DEE8EB" transform="translate(88,150)"/>
<path d="M0 0 C0.66 0 1.32 0 2 0 C0.50079488 3.11373372 -1.08152136 6.12228205 -3 9 C-3.66 9 -4.32 9 -5 9 C-5.33 10.32 -5.66 11.64 -6 13 C-6.35483266 9.1855489 -6.3204633 7.47001284 -4.125 4.25 C-2.76944977 2.81471152 -1.3959888 1.3959888 0 0 Z " fill="#0C5390" transform="translate(43,87)"/>
<path d="M0 0 C1.17219543 0.78345715 2.33763668 1.57702836 3.5 2.375 C4.47453125 3.03628906 4.47453125 3.03628906 5.46875 3.7109375 C5.9740625 4.13632813 6.479375 4.56171875 7 5 C7 5.66 7 6.32 7 7 C5.35 7 3.7 7 2 7 C1.34 4.69 0.68 2.38 0 0 Z " fill="#272F35" transform="translate(136,71)"/>
<path d="M0 0 C-0.99 0.495 -0.99 0.495 -2 1 C-2 2.65 -2 4.3 -2 6 C-2.33 6 -2.66 6 -3 6 C-3 4.35 -3 2.7 -3 1 C-5.97 1 -8.94 1 -12 1 C-12.33 2.32 -12.66 3.64 -13 5 C-13 3.35 -13 1.7 -13 0 C-11.39679026 -0.19551338 -9.79237014 -0.38111983 -8.1875 -0.5625 C-7.29417969 -0.66691406 -6.40085938 -0.77132812 -5.48046875 -0.87890625 C-3 -1 -3 -1 0 0 Z " fill="#C3C6C9" transform="translate(151,41)"/>
<path d="M0 0 C1.2380014 3.57644848 0.74926071 6.33694766 0 10 C-1.32 10 -2.64 10 -4 10 C-2.8905928 6.51329166 -1.73662334 3.22515763 0 0 Z " fill="#44B29A" transform="translate(87,125)"/>
<path d="M0 0 C1.60080151 4.00200378 0.29279692 7.04556236 -1 11 C-1.99 10.67 -2.98 10.34 -4 10 C-2.8905928 6.51329166 -1.73662334 3.22515763 0 0 Z " fill="#235C88" transform="translate(57,54)"/>
<path d="M0 0 C0.33 0.66 0.66 1.32 1 2 C1.99 2 2.98 2 4 2 C4 3.32 4 4.64 4 6 C5.65 6.33 7.3 6.66 9 7 C8.01 7.33 7.02 7.66 6 8 C5.34 7.67 4.68 7.34 4 7 C3.67 7.66 3.34 8.32 3 9 C2.87625 8.360625 2.7525 7.72125 2.625 7.0625 C2.315625 6.0415625 2.315625 6.0415625 2 5 C1.34 4.67 0.68 4.34 0 4 C0 2.68 0 1.36 0 0 Z " fill="#CEDEE9" transform="translate(149,50)"/>
<path d="M0 0 C0.33 0 0.66 0 1 0 C1.19491452 1.45736087 1.38069358 2.91594593 1.5625 4.375 C1.66691406 5.18710938 1.77132812 5.99921875 1.87890625 6.8359375 C2 9 2 9 1 11 C0.34 11 -0.32 11 -1 11 C-1.02688151 9.35425434 -1.04634123 7.70838587 -1.0625 6.0625 C-1.07410156 5.14597656 -1.08570312 4.22945312 -1.09765625 3.28515625 C-1 1 -1 1 0 0 Z " fill="#ECF3F3" transform="translate(105,149)"/>
<path d="M0 0 C1.32 0.66 2.64 1.32 4 2 C4 3.65 4 5.3 4 7 C2.02 7 0.04 7 -2 7 C-1.01 6.67 -0.02 6.34 1 6 C0.67 4.02 0.34 2.04 0 0 Z " fill="#212935" transform="translate(122,60)"/>
<path d="M0 0 C3.65316671 1.24976756 4.78065836 1.67098753 7 5 C5.68 5.33 4.36 5.66 3 6 C0 2.25 0 2.25 0 0 Z " fill="#222F38" transform="translate(115,55)"/>
<path d="M0 0 C2 3.875 2 3.875 2 5 C-0.31 5.33 -2.62 5.66 -5 6 C-4.75 4.125 -4.75 4.125 -4 2 C-1.9375 0.75 -1.9375 0.75 0 0 Z " fill="#F0FCF4" transform="translate(159,57)"/>
<path d="M0 0 C0.33 0 0.66 0 1 0 C1.38922918 1.28745036 1.76098036 2.58019597 2.125 3.875 C2.33382812 4.59429687 2.54265625 5.31359375 2.7578125 6.0546875 C2.83773437 6.69664063 2.91765625 7.33859375 3 8 C2.34 8.66 1.68 9.32 1 10 C0.34 9.67 -0.32 9.34 -1 9 C-1.125 2.25 -1.125 2.25 0 0 Z " fill="#2D608A" transform="translate(36,94)"/>
<path d="M0 0 C0.33 0.66 0.66 1.32 1 2 C2.65 1.34 4.3 0.68 6 0 C5.67 1.65 5.34 3.3 5 5 C3.125 4.6875 3.125 4.6875 1 4 C0.34 3.01 -0.32 2.02 -1 1 C-0.67 0.67 -0.34 0.34 0 0 Z " fill="#465058" transform="translate(90,61)"/>
<path d="M0 0 C2.4375 0.6875 2.4375 0.6875 5 2 C5.8125 4.625 5.8125 4.625 6 7 C3.69 5.35 1.38 3.7 -1 2 C-0.67 1.34 -0.34 0.68 0 0 Z " fill="#D6EEF6" transform="translate(73,57)"/>
<path d="M0 0 C2.64 0 5.28 0 8 0 C7.67 1.32 7.34 2.64 7 4 C4.69 3.34 2.38 2.68 0 2 C0 1.34 0 0.68 0 0 Z " fill="#CEF7F0" transform="translate(155,43)"/>
<path d="M0 0 C1.65 0 3.3 0 5 0 C4.34 1.65 3.68 3.3 3 5 C2.01 4.67 1.02 4.34 0 4 C0 2.68 0 1.36 0 0 Z " fill="#DFFBF9" transform="translate(148,153)"/>
<path d="M0 0 C2.35953094 2.35953094 2.49141413 3.77895617 3 7 C1.35 7 -0.3 7 -2 7 C-1.34 4.69 -0.68 2.38 0 0 Z " fill="#9FDFD6" transform="translate(150,144)"/>
<path d="M0 0 C0.66 0 1.32 0 2 0 C1.50168276 3.68754757 0.89932357 5.60490662 -2 8 C-2.125 5.125 -2.125 5.125 -2 2 C-1.34 1.34 -0.68 0.68 0 0 Z " fill="#36B297" transform="translate(123,120)"/>
<path d="M0 0 C0.6875 1.625 0.6875 1.625 1 4 C-0.4375 7.25 -0.4375 7.25 -2 10 C-2.66 9.67 -3.32 9.34 -4 9 C-2.94124926 5.59687262 -1.99097846 2.98646769 0 0 Z " fill="#336691" transform="translate(41,85)"/>
<path d="M0 0 C0.99 0.33 1.98 0.66 3 1 C3.33 1.99 3.66 2.98 4 4 C3.01 4.66 2.02 5.32 1 6 C0.01 4.68 -0.98 3.36 -2 2 C-1.34 1.34 -0.68 0.68 0 0 Z " fill="#D3E1E3" transform="translate(113,56)"/>
<path d="M0 0 C1.98 0.66 3.96 1.32 6 2 C5.67 2.99 5.34 3.98 5 5 C3.35 4.67 1.7 4.34 0 4 C0 2.68 0 1.36 0 0 Z " fill="#346479" transform="translate(153,52)"/>
<path d="M0 0 C1.98 0 3.96 0 6 0 C6 1.32 6 2.64 6 4 C3.03 3.505 3.03 3.505 0 3 C0 2.01 0 1.02 0 0 Z " fill="#333B48" transform="translate(143,50)"/>
<path d="M0 0 C-0.99 0 -1.98 0 -3 0 C-3.28875 0.94875 -3.5775 1.8975 -3.875 2.875 C-5 6 -5 6 -7 8 C-6.4140625 1.84765625 -6.4140625 1.84765625 -6 0 C-3.50907189 -1.24546405 -2.58919267 -0.7767578 0 0 Z " fill="#DDF4FB" transform="translate(62,50)"/>
<path d="M0 0 C1 2 1 2 0.44140625 3.9453125 C0.15136719 4.66460937 -0.13867188 5.38390625 -0.4375 6.125 C-0.72496094 6.84945312 -1.01242188 7.57390625 -1.30859375 8.3203125 C-1.53675781 8.87460938 -1.76492187 9.42890625 -2 10 C-2.99 9.34 -3.98 8.68 -5 8 C-3.38731308 5.28775382 -1.75098126 2.62647188 0 0 Z " fill="#BEF0E8" transform="translate(122,127)"/>
<path d="M0 0 C3.26460973 1.80412643 4.88929795 2.83394693 7 6 C4.03 5.505 4.03 5.505 1 5 C0.67 3.35 0.34 1.7 0 0 Z " fill="#D3EDF8" transform="translate(64,126)"/>
<path d="M0 0 C0.33 0 0.66 0 1 0 C1.25 2.8125 1.25 2.8125 1 6 C-1 7.875 -1 7.875 -3 9 C-2.44271087 5.65626525 -1.64826111 2.96687001 0 0 Z " fill="#D1FBF4" transform="translate(131,110)"/>
<path d="M0 0 C4.875 2.75 4.875 2.75 6 5 C5.01 5.33 4.02 5.66 3 6 C2.01 5.34 1.02 4.68 0 4 C0 2.68 0 1.36 0 0 Z " fill="#DAEEF8" transform="translate(48,113)"/>
<path d="M0 0 C0.33 0 0.66 0 1 0 C0.67 2.31 0.34 4.62 0 7 C-0.66 7 -1.32 7 -2 7 C-2 7.66 -2 8.32 -2 9 C-2.66 9 -3.32 9 -4 9 C-2.80100302 5.9168649 -1.52299523 2.93720508 0 0 Z " fill="#41B59C" transform="translate(95,110)"/>
<path d="M0 0 C2.64 1.98 5.28 3.96 8 6 C7.01 6.495 7.01 6.495 6 7 C5.01 6.67 4.02 6.34 3 6 C3 5.34 3 4.68 3 4 C2.01 3.67 1.02 3.34 0 3 C0 2.01 0 1.02 0 0 Z " fill="#275A82" transform="translate(81,66)"/>
<path d="M0 0 C0.99 0.99 1.98 1.98 3 3 C1.68 3.99 0.36 4.98 -1 6 C-1.66 5.67 -2.32 5.34 -3 5 C-1.125 1.125 -1.125 1.125 0 0 Z " fill="#E3ECF2" transform="translate(114,65)"/>
<path d="M0 0 C2.64 0.66 5.28 1.32 8 2 C6.5 3.625 6.5 3.625 4 5 C1.16836197 4.65955497 -1.25986036 3.86771089 -4 3 C-2.68 2.67 -1.36 2.34 0 2 C0 1.34 0 0.68 0 0 Z " fill="#D7E3EB" transform="translate(134,57)"/>
<path d="M0 0 C1.65 0 3.3 0 5 0 C5.33 1.65 5.66 3.3 6 5 C5.01 5.495 5.01 5.495 4 6 C2.68 4.02 1.36 2.04 0 0 Z " fill="#51585E" transform="translate(95,143)"/>
<path d="M0 0 C3.63 0 7.26 0 11 0 C11.33 0.99 11.66 1.98 12 3 C11.34 3.66 10.68 4.32 10 5 C9.67 4.01 9.34 3.02 9 2 C6.03 1.67 3.06 1.34 0 1 C0 0.67 0 0.34 0 0 Z " fill="#25B496" transform="translate(128,87)"/>
<path d="M0 0 C0.99 0.66 1.98 1.32 3 2 C3 2.99 3 3.98 3 5 C1.35 4.67 -0.3 4.34 -2 4 C-1.34 2.68 -0.68 1.36 0 0 Z " fill="#1A5A8D" transform="translate(91,74)"/>
<path d="M0 0 C2.475 0.99 2.475 0.99 5 2 C4.67 2.99 4.34 3.98 4 5 C3.34 5 2.68 5 2 5 C2 4.34 2 3.68 2 3 C1.01 3 0.02 3 -1 3 C-0.67 2.01 -0.34 1.02 0 0 Z " fill="#CFDCE4" transform="translate(103,66)"/>
<path d="M0 0 C2.97 0.33 5.94 0.66 9 1 C8.67 1.99 8.34 2.98 8 4 C4.64404172 3.40072174 2.62198774 2.15377564 0 0 Z " fill="#D1DBDF" transform="translate(139,46)"/>
<path d="M0 0 C1.65 0 3.3 0 5 0 C4.67 1.32 4.34 2.64 4 4 C2.68 4 1.36 4 0 4 C0 2.68 0 1.36 0 0 Z " fill="#29313C" transform="translate(139,42)"/>
</svg>
